/* XPM */
static char *result[] = {
/* columns rows colors chars-per-pixel */
"64 64 136 2 ",
"   c #0A0A0B",
".  c #16130D",
"X  c #291F12",
"o  c #2D2911",
"O  c #1E252D",
"+  c #21272E",
"@  c #22282E",
"#  c #242733",
"$  c #262A34",
"%  c #272B38",
"&  c #2A2E3B",
"*  c #2C313E",
"=  c #423E38",
"-  c #57441A",
";  c #58481A",
":  c #694A1F",
">  c #73651E",
",  c #434534",
"<  c #474139",
"1  c #2D3342",
"2  c #2F364C",
"3  c #303745",
"4  c #323946",
"5  c #30374D",
"6  c #333A4C",
"7  c #353D53",
"8  c #37404F",
"9  c #3A414F",
"0  c #374054",
"q  c #3A4353",
"w  c #3C465C",
"e  c #3E485E",
"r  c #3C4760",
"t  c #3F4961",
"y  c #404B5D",
"u  c #424D63",
"i  c #424F68",
"p  c #455266",
"a  c #485465",
"s  c #46536B",
"d  c #49566E",
"f  c #4C5A6D",
"g  c #485770",
"h  c #4C5C75",
"j  c #4E5F78",
"k  c #515F76",
"l  c #56656F",
"z  c #4F6079",
"x  c #526275",
"c  c #586670",
"v  c #53647B",
"b  c #59677C",
"n  c #57687E",
"m  c #5B6A7B",
"M  c #6E7973",
"N  c #66717D",
"B  c #727F7B",
"V  c #956A28",
"C  c #977227",
"Z  c #AB7D2C",
"A  c #846A46",
"S  c #9F7C4B",
"D  c #967F5E",
"F  c #A57E44",
"G  c #A17D4B",
"H  c #778274",
"J  c #798375",
"K  c #9D8127",
"L  c #A18C26",
"P  c #B5862D",
"I  c #B5992B",
"U  c #BE9E2C",
"Y  c #B08333",
"T  c #C0A02C",
"R  c #878040",
"E  c #8B8341",
"W  c #97805E",
"Q  c #9A965A",
"!  c #A6814D",
"~  c #AF9740",
"^  c #A99E46",
"/  c #ADA147",
"(  c #928B6C",
")  c #566780",
"_  c #566981",
"`  c #5A6D84",
"'  c #5D7087",
"]  c #5F7389",
"[  c #606F83",
"{  c #637285",
"}  c #61758B",
"|  c #65798E",
" . c #687A8A",
".. c #797E81",
"X. c #667A90",
"o. c #6B7E93",
"O. c #7C8081",
"+. c #7C8A86",
"@. c #7F8589",
"#. c #6E8196",
"$. c #6F839A",
"%. c #708397",
"&. c #788797",
"*. c #718499",
"=. c #75899D",
"-. c #788B9F",
";. c #768CA1",
":. c #798EA1",
">. c #7A90A3",
",. c #7C96A9",
"<. c #7E99AB",
"1. c #848583",
"2. c #838A8C",
"3. c #8196A5",
"4. c #829CAD",
"5. c #8A9EAE",
"6. c #849FB0",
"7. c #85A1B1",
"8. c #8AA6B5",
"9. c #8AA8B7",
"0. c #8FADBB",
"q. c #92A8B7",
"w. c #93ADBB",
"e. c #95B0BE",
"r. c #9AB6C2",
"t. c #9EBAC6",
"y. c #AAC5CF",
"u. c #B3C9D3",
"i. c #B7CFD8",
"p. c #B7D0D8",
"a. c #C2D6DD",
"s. c #C3D8DF",
"d. c #C5DCE2",
"f. c #C9E0E6",
"g. c #DEF2F5",
"h. c None",
/* pixels */
"h.h.h.h.h.h.g.g.g.f.t.8.8.8.8.8.8.t.d.d.t.t.d.g.g.g.g.g.g.g.g.g.g.g.g.g.g.d.t.5.8.8.8.t.f.f.t.8.8.8.8.8.8.t.f.g.g.g.h.h.h.h.h.h.",
"h.h.h.h.h.h.d.d.d.i.w.6.6.6.7.<.6.w.i.i.q.q.u.a.d.a.a.a.a.d.a.a.a.a.a.d.d.u.r.5.6.6.<.w.u.i.w.6.6.6.6.<.6.q.u.d.d.d.h.h.h.h.h.h.",
"h.h.h.h.g.d.y.r.q.5.,.;.:.:.:.>.:.3.5.5.3.>.5.8.q.5.5.5.5.5.q.5.5.5.q.q.5.5.:.:.:.;.:.,.5.6.3.:.:.:.>.:.;.,.4.q.r.y.f.g.h.h.h.h.",
"h.h.h.h.d.u.r.,.;.*.=.=.;.=.;.;.:.=.=.=.;.=.=.=.=.*.=.=.=.=.&.=.=.=.=.o.;.=.=.;.;.=.=.;.=.=.;.=.;.-.;.;.=.=.=.=.,.w.p.d.h.h.h.h.",
"h.h.8.0.r.e.6.;.;.=.-.-.;.=.;.=.=.=.=.=.;.=.=.*.;.o.;.=.=.;.=.;.;.=.=.;.=.;.o.;.=.=.=.*.=.=.-.-.=.:.=.=.-.-.=.=.;.4.r.r.0.8.h.h.",
"h.h.0.8.7.,.2.1.O.1.1.1.1...N m m m m N ..1.1.+.1.1.1.1.1...N N m m b N ..1.1.1.+.1.1.1.1.O.N m m m m N ..1.1.1.1.2.>.7.8.0.h.h.",
"g.d.r.7.,.2.W S G S G G ! A < $ % % % = > D ! S G G G G G A = $ $ $ % = A G G G S S S ! ! A < % $ $ @ < A G G G F D 2.,.7.r.d.g.",
"f.p.e.<.;.@.W Z Y P P Z V : X     . o - Z P P Y Y P P Z V : X     . o ; C P P Z P P P Z V : o     . o ; C P P Y F D @.:.<.e.p.f.",
"t.e.4.;.=.&.+.( Y T T K ; X .     o > L I T I U U U T K - X .     o > L I I U U U U T K - o       o > L I I U ^ ( @.&.-.;.4.w.t.",
"<.>.=.$.*.$.*.+.Q / / R , O O O O , E / / / ^ ^ ^ ^ / R = + @ @ @ , K / ^ ^ ^ ^ ^ ^ / R , O O O + , E / ^ ^ ^ Q +.$.$.$.#.=.,.<.",
"#.#.| | | | #.] H H H N l f f f f l M H H H H H H J J M l f f g f x B J H H H H H H H M l f f x f c M J J H H H  .X.| | | | X.#.",
"' ' ] ] ] ] ] ] } } ] ] _ n n _ _ _ ) ) z ) ) ) ) ) ) v v b b ) ) ) ) ) ) ) _ z ) ) ) ) n n n _ ` v ) ) ' ] ] ] ] ] ] ] ] ] ' ' ",
"' ' ] ] ' ] ] ] ] ] ] _ d e e t t t t t r r r r r r r r u u u y t t t r r r w r r r r r r t t t t t e s _ | ] ] ] ] ] ] ] ] ] ] ",
"] #.#.] #.] ] ] ] ' ` f w 2 5 5 5 5 5 5 5 5 5 5 2 2 5 5 5 5 5 5 5 5 5 5 5 5 7 5 2 2 7 5 7 5 5 5 5 5 2 w h _ ] ]  .] |  .| | |  .",
"%.#.#.#.*.#.X.] ] ` s w 0 0 5 5 5 5 5 5 5 5 5 5 5 5 5 5 5 5 5 5 5 5 5 5 5 5 7 7 5 5 5 7 2 7 5 5 5 5 5 7 0 s _ ] ] | $.%.%.%.#.$.",
">.>.=.=.=.*.X.] ] v r 5 2 0 t t t p p t p p u u p i s t u u u u i u p u p t 7 5 5 0 t t t t t s p t 7 5 5 e n ] ] | %.=.=.=.>.>.",
"7.<.:.=.=.%. .] } v e 5 5 e _  . .| | }  .| | | } | | |  .{  .|  .| | |  .b u 5 2 y b | | } } } | b e 5 5 t v ] ] #.%.=.=.>.<.7.",
"9.7.>.=.=.%.#.] } v e 7 w h } o.=.o.=.o.o.=.o.o.*.%.*.*.=.o.o.o.o.o.o.o.o.} u 5 w k [ o.*.*.=.=.*.| d w 5 e n ] ] ] %.;.=.>.7.9.",
"9.7.>.=.=.#.] ] } v w y b { ` _ | | | | | | o.o.X.X.X.X.X.} k k } | ` ` | [ u w b [ k k { X.X.X.X.} ` f 0 e n ] ] ] *.=.=.:.7.9.",
"9.7.>.=.=.#.#.] } v w u  .%.` v ` } } } } } } { ] } ' ] } _ s s ) [ ) ) [ j y p | X.h s ) { ] ] ` ' { v e w n ] ] #.*.=.=.:.7.9.",
"9.7.>.=.=.%. .] } v w u } $.} ` ] ] ] ] [ } } } } } } } } ` h j [ } ` ] } k u u  .o.k k ` ] ] ` v ) ' v e e n ] ] | %.=.=.>.7.9.",
"9.<.>.=.=.%.#.] } b w u } =.X.} ] } ] ] } } } ` ' ' ` ` ` _ j j ) ' ` ` ) h 7 u } o.` j ' ] } ' v ) ' n w e v  .]  .%.=.=.:.<.9.",
"9.7.>.*.*.%.] ] } v y u  .*.X.} ] ] ] } ] } } ` ) j j ) j j j h j j ) h g u 7 u | o.) k ` ] } ] ' ' ] v e w v ]  .| #.=.=.>.7.9.",
"9.7.>.=.=.#.#.] } k w u } %.} ` ' } ] } } } } ` j h j j j j j j ) j j h g u 7 u  .o.) j ` } ] ] ] } } v w e v ] ] | $.=.=.:.7.9.",
"9.7.>.=.=.%.| ] ] n w t } #.` v ` } ] } } } } ` j j ) ' ' ` ' ` _ ` ` ` ` h w u  .o.) v ` { ] } ] ] ] v w w n ] ] | %.=.=.>.7.9.",
"7.<.:.=.;.%.| ] ] n w p  .#.` v ' } ] } } } } ` j h ' } } } } } } } } { ` g 0 u } #.) k ` ] } } | ] ] n e w n ] ] | %.=.=.>.<.7.",
">.:.=.=.=.#.#.] ] v w t  .*.] ' } } } } } } } [ d s _ } } } } } } } } ) d 0 7 u } #.) z ` ] } ] ] ] ] n w w n ] ] | *.=.=.=.:.>.",
"=.=.=.=.=.#. .] ] n w e m } n n j v j ) ) k k h u u h ) ) j b ) ) j ) h 0 5 w k | X.) z ` ] ] } ] | ] v e w n ] ] X.$.=.=.=.=.=.",
"&.=.=.&.=.%.] ]  .n e 0 e t e e u w y y w w w q 7 7 w r w w y 7 7 y y 7 7 w b  .| ] z z ' ] ] ] ] ] ] n r e n ] ] | %.=.=.&.=.=.",
">.:.=.=.=.%.#.] ] v e 5 2 0 e t u u u u u u u u 7 7 5 7 y u u u u u u u u k | o.] n z z n ' ' ` ] ` _ x 0 e v ]  . .%.=.=.-.=.>.",
"<.4.>.=.=.%.#.] ] n e 6 2 e n  .}  .}  .{ |  .b u 5 2 y k | { {  .| | } } | | } n z h z z z z z z z d t 7 e n ] ] | #.=.=.:.4.7.",
"9.7.>.=.=.%.] ] ] n w 0 w f ] #.o.o.o.o.o.;.o.| u 7 7 k X.=.=.=.=.o.*.*.&.%.} ` z h z z z z z z z z d t 7 e n ] ] | $.=.=.>.7.9.",
"9.7.:.=.;.%.X.} } b w y b } ` ) ) ) _ ` } X.o._ y y b | X.X.X.X.X.X.X.X.X.} } ' z z ) ' ` ` ` ` ` ` n h w w v  .] | $.=.=.>.7.9.",
"8.6.:.=.-.%.} } } k w u | o.` j j j h j ` } } j 7 u | =.} ` _ ` ` [ ` ' ` ` ` ` v ` } | X.| | | | o.o.n e w v ] ] | &.=.=.;.7.9.",
"8.6.:.-.=.%.} } } v w u | *.} ` ` _ k j ` } } b u u | o.` j j ) j ) j j ) j j )  .o.$.*.$.*.*.*.%.%.=.' t e v ] ] | $.=.=.;.7.9.",
"9.6.:.=.=.%.X.} } v y u } *.X.} } ` v k ) ` _ g 7 u } o.` j j j h h j j j j ) ` o.=.%.*.*.%.%.*.%.%.%.` e e n | ] | $.=.=.:.7.8.",
"8.6.:.=.=.%.X.} } v w u } *.X.{ } ` ) h k h g u 7 u  .=.} ` ' _ j j ) ` ` } } o.X.| | | | | | | | | ` h w w v ] ] | %.=.=.>.7.9.",
"9.6.>.=.=.%.} } } v y u } =.| } ] ` j h j j g u 7 i  .o.} ' { ` j j ` } } } o.=.| ] ] ] ] ] ] } } ` h i 7 e n }  . .%.=.=.:.4.9.",
"8.6.>.=.=.%.X.} } v w u } &.X.} ] ` j j ) ` ` k w u | o.` v ` ` ) j ' } } X.;.o.| ] ] ] ] | } } } ) d r 7 w v } ] | $.=.=.;.7.9.",
"8.7.;.=.=.$.X.{ } k w u } *.} ` ] ` j ) ` } | k w w [ } ) v } [ j h ' } } X.o.=.} ` ' ' _ n n n ` x u 0 7 e v } ] | $.=.=.:.7.8.",
"9.6.>.=.=.$.| ] ] v e p } #.` v ` ` v k ` } X.v u 7 y d _ } } ` g g ) }  .| *.#.` z v z d s s s g t 0 0 0 e n ] ] | $.=.=.>.7.9.",
"8.6.>.=.=.$.| ]  .v w t  .#.` v ] ` j h ` ] n d 7 4 1 7 d k x a w w f k x b ' m d u i e w 7 7 7 0 0 5 5 5 e n ] ] | &.=.=.;.7.9.",
"9.7.>.=.=.$.| } } v w u } *.} ] ] ` g g ` n e 4 * * * * 3 4 4 4 3 * 4 6 4 4 9 6 4 1 1 1 1 & * * 1 1 2 5 5 e n ] ] | *.=.=.;.7.8.",
"8.<.>.=.=.*.| ] } v e e b N v x k g w w f a 3 $ $ $ $ * 4 y 9 9 7 9 9 7 9 9 9 6 9 9 9 9 9 9 8 9 0 q t e 0 e n ] ] | $.=.=.:.7.8.",
"8.7.>.=.=.%.|  .} v e 6 9 9 6 4 6 4 * 3 4 3 * $ $ $ % 6 l { { { N { { { { ' { { { { { { { { { { { {  .v e e n ] ] | %.=.=.>.7.9.",
"8.7.>.=.=.%.| ] } b w 1 $ * 4 9 9 9 9 9 9 6 * $ $ * 4 y m o.#.#.*.&.$.=.*.*.=.*.*.*.*.=.*.%.#.#.$.=.=.{ e q x ]  . .%.=.=.:.4.9.",
"9.4.>.=.=.$.| ] } x 9 % # 4 x { { { { { { l 4 $ @ 4 k [ k h v ` } X.X.X.| | X.| | | X.X.| } ` ` | X.| v 8 8 v ] ] | $.=.=.>.7.9.",
"9.7.>.=.=.$.| ] } x 6 & 4 a } &.%.o.%.o.o.m 6 * 4 a  .| k s d v ` } { ] } ] } ] } ] } ] } ' v v ' ]  .x 4 6 x ] ] | $.=.=.=.7.8.",
"8.4.;.=.=.%.|  .] z 4 4 l { | | _ _ _ z h u 1 6 l } | } ' v h z ' ] ] ] ] ] ] ] ] ] ] ] ] ' ' ' ] ] | x 4 4 x  .] | $.=.=.>.7.9.",
"8.7.>.=.=.$.| ] ] x 8 9 { =.] n z h j h d e 1 9 { =.| } ] ' z z n ' ] ' ] ` ] ` ' ' ' ' ' ` ' _ _ n n a 3 8 x ] ] | *.=.=.>.7.9.",
"8.7.>.=.=.$.| ] ] x 8 8 { $.' h z z n ' ` f 3 9 { *.| } ] ' z h z z z z z z z z z z z z z z z z f t 0 3 & 4 v ] ] | *.=.=.:.4.9.",
"8.7.>.=.=.$.|  .] x 4 9 { #.' z z v ] ] n a 1 q { =.X.} ] ' n v z z z z h f z z z z z z h f z z t 5 & $ $ 8 x ] ] | *.=.=.:.7.9.",
"9.4.>.=.=.$.| ] ] x 8 9 { $.| ` ` ] ] n e 3 & 8 { -.o.]  .] ] ' ' ] ' v s s n ] ] ' ' ) t z _ x 0 * & $ $ 6 x ] ] | %.=.=.;.7.9.",
"9.7.:.=.=.%.| ] ] c 4 4 x N v z x x l p 3 # # 8 l ' v c x z x x x x z f w w f x x x z f w w f p 4 $ $ % $ 8 z  . . .%.=.&.;.7.9.",
"9.7.;.=.=.%. .}  .z 4 * 4 9 8 4 4 8 8 3 & $ $ * 6 9 6 6 4 8 4 4 8 4 8 3 * * 4 4 4 8 8 3 * 1 4 6 & $ $ $ $ 8 x ] ] | #.=.=.>.7.9.",
"7.<.:.=.=.%.| ] ] x 8 * * 4 8 6 4 8 4 4 8 3 & $ $ & 3 4 6 4 8 4 4 4 8 6 8 4 8 8 4 4 8 6 4 8 8 5 * $ $ % $ 6 x } ] | $.=.=.:.<.7.",
">.:.=.=.;.%.#.] ] x 4 3 a v l x z z z z v a 6 # @ 3 a z z z z z x x x x x x x x ) t _ ) z z ) t 4 $ % % O 8 n ] ] | $.=.=.-.:.:.",
":.:.=.=.=.%.] ] ] x 4 8 x ] ] ' ` ` ' ' ] x q 1 % 8 v ] ' _ ` ` ' ] ' ' ' ' ' ' ' ' ' ` ` ' ] ) q 3 4 1 & 8 x ] ] | $.=.=.=.:.:.",
"7.<.:.=.=.%.] ] ] z 4 4 x ] n z h g h ) z z s e 1 8 z ' z t j ) z z z z ) z z z ) j h ) z ) ) _ d t t e * 8 x ] ] | $.=.&.:.4.6.",
"9.7.>.=.:.%.#.]  .x 6 8 z ] z t t t t ) g h j t * 8 v ' z t h ) h h z h g g g g j t r t t h t t g z f t * 8 x ] ] X.=.=.=.>.6.9.",
"9.7.>.&.=.*.| ] ] x 4 8 x ` d t t r t t t g z t 3 8 x ' _ h ) t ) t h h t t t t t t r t t t t t t t d w 1 8 x ] ] | &.=.=.:.7.9.",
"7.<.:.=.=.%.| ] ] x 6 4 a x s t t t t t t t f s 3 3 t z t t t ) h ) h h t t t g t r t t h t t t t t t w * 4 x ] ] | $.=.=.:.<.7.",
">.:.=.=.;.#.#.] ] x 6 % 4 q t h g g g g t t g t 3 & 8 8 2 0 t h h h j t t t g h t j t t h h t h g g h t 1 8 x | ] | %.=.=.=.:.>.",
"&.=.=.=.=.#. .] ] x 8 $ # 6 t z h h z z t t f p 3 $ @ O % 7 t j h h j h g t t z h ) ) ) h h h h z z z t 1 8 x ] ] | %.=.=.=.&.=."
};
