/* XPM */
static char *result[] = {
/* columns rows colors chars-per-pixel */
"64 64 175 2 ",
"   c #751625",
".  c #791625",
"X  c #771826",
"o  c #7D1A26",
"O  c #7C1A28",
"+  c #5F6367",
"@  c #5C6369",
"#  c #656465",
"$  c #746661",
"%  c #821C26",
"&  c #841E2A",
"*  c #8C2026",
"=  c #85212A",
"-  c #89232B",
";  c #8B2A2D",
":  c #902226",
">  c #9A2726",
",  c #9C2826",
"<  c #962B2F",
"1  c #94302E",
"2  c #972D31",
"3  c #9F2F33",
"4  c #8A3733",
"5  c #8B3A34",
"6  c #8B3E3A",
"7  c #913734",
"8  c #923A35",
"9  c #9A3A32",
"0  c #933D3A",
"q  c #A32724",
"w  c #A42A25",
"e  c #A62F28",
"r  c #AA2E2B",
"t  c #A6332A",
"y  c #AB332C",
"u  c #A6392E",
"i  c #AD3C2E",
"p  c #B03E2E",
"a  c #A23435",
"s  c #AA3737",
"d  c #AC3E30",
"f  c #A43938",
"g  c #AE3A39",
"h  c #B23D31",
"j  c #B33D3A",
"k  c #B93F39",
"l  c #8C413E",
"z  c #93423A",
"x  c #9A483A",
"c  c #9A503E",
"v  c #AC4232",
"b  c #AF4B35",
"n  c #AF413A",
"m  c #A64838",
"M  c #AC4E3B",
"N  c #A34335",
"B  c #B14432",
"V  c #B44934",
"C  c #B84F37",
"Z  c #B4433B",
"A  c #BD443C",
"S  c #B24E3D",
"D  c #BB493E",
"F  c #B95037",
"G  c #B5563C",
"H  c #BB543A",
"J  c #B5593E",
"K  c #BB5B3E",
"L  c #C0463F",
"P  c #C14B3F",
"I  c #C1553E",
"U  c #C05D3E",
"Y  c #C2613F",
"T  c #8F4643",
"R  c #904946",
"E  c #9D5640",
"W  c #9D5B46",
"Q  c #9B5F4C",
"!  c #B75744",
"~  c #B65D42",
"^  c #BB5F40",
"/  c #8C6859",
"(  c #AD6C4C",
")  c #B66343",
"_  c #BC6040",
"`  c #B66B4C",
"'  c #BB7148",
"]  c #BB7C4F",
"[  c #A86A50",
"{  c #AC7C5C",
"}  c #BB7D52",
"|  c #C14740",
" . c #C24D40",
".. c #C35241",
"X. c #C45B44",
"o. c #C25E49",
"O. c #C56342",
"+. c #C86644",
"@. c #C66A44",
"#. c #C96D45",
"$. c #C26B4B",
"%. c #C96E49",
"&. c #C4654A",
"*. c #C47147",
"=. c #CB7046",
"-. c #C4734A",
";. c #CA754A",
":. c #CA7A4C",
">. c #C66353",
",. c #C66B50",
"<. c #C96D54",
"1. c #CA7D51",
"2. c #C97059",
"3. c #CD7E58",
"4. c #C77D53",
"5. c #B78253",
"6. c #B88454",
"7. c #BD8B57",
"8. c #B78658",
"9. c #BC8D5A",
"0. c #BD835C",
"q. c #BF905A",
"w. c #B99465",
"e. c #BF9C69",
"r. c #BC9E72",
"t. c #BFA26D",
"y. c #BDA074",
"u. c #CB814F",
"i. c #C48451",
"p. c #CA8354",
"a. c #C38B55",
"s. c #CB8C55",
"d. c #CE8459",
"f. c #CB8C5A",
"g. c #D08C5F",
"h. c #C6955D",
"j. c #CA935B",
"k. c #C69A5E",
"l. c #CC9B5C",
"z. c #CDA05F",
"x. c #C48B62",
"c. c #C59463",
"v. c #CB9D63",
"b. c #C49968",
"n. c #CC9D68",
"m. c #CDA363",
"M. c #CDAA65",
"N. c #C4A06B",
"B. c #CAA36B",
"V. c #CDAD6B",
"C. c #CEB16C",
"Z. c #D0B066",
"A. c #CDAE71",
"S. c #CFAB78",
"D. c #D4A47F",
"F. c #CEB374",
"G. c #CFBA76",
"H. c #CFBE7B",
"J. c #D1BA75",
"K. c #D0BE78",
"L. c #D1B57B",
"P. c #CFC07C",
"I. c #C5AE84",
"U. c #C9B68C",
"Y. c #D7B081",
"T. c #D8B583",
"R. c #D9B883",
"E. c #CFC583",
"W. c #D3C986",
"Q. c #D9C28B",
"!. c #DECB94",
"~. c #DBDA9A",
"^. c #E2E7A8",
"/. c #E4EBAC",
"(. c None",
/* pixels */
"(.(.(.(.(.(.(.(.(.(.(.(.(.(.(.(.(.(.(.(.(.(.(.(.(.(.(.(.(.(.(.(.(.(.(.(.(.(.(.(.(.(.(.(.(.(.(.(.(.(.(.(.(.(.(.(.(.(.(.(.(.(.(.(.",
"(.(.(.(.(.(.(.(.(.(.(.(.(.(.(.(.(.(.(.(.(.(.(.(.(.(.(.(.(.(.(.(.(.(.(.(.(.(.(.(.(.(.(.(.(.(.(.(.(.(.(.(.(.(.(.(.(.(.(.(.(.(.(.(.",
"(.(.(.(.(.(.(.(.(.(.(.(.(.(.(.(.(.(.(.(.(.(.(.(.(.(.(.(.(.(.(.(.(.(.(.(.(.(.(.(.(.(.(.(.(.(.(.(.(.(.(.(.(.(.(.(.(.(.(.(.(.(.(.(.",
"(.(.(.(.(.(.(.(.(.(.(.(.(.(.(.(.(.(.(.(.(.(.(.(.(.(.(.(.(.(.(.(.(.(.(.(.(.(.(.(.(.(.(.(.(.(.(.(.(.(.(.(.(.(.(.(.(.(.(.(.(.(.(.(.",
"(.(.(.(.(.(.(.(.(.(.(.(.(.(.(.(.(.(.(.(.(.(.(.(.(.(.(.(.#.#.#.#.#.#.#.=.(.(.(.(.(.(.(.(.(.(.(.(.(.(.(.(.(.(.(.(.(.(.(.(.(.(.(.(.",
"(.(.(.(.(.(.(.(.(.(.(.(.(.(.(.(.(.(.(.(.(.(.(.(.(.(.(.(.@.#.#.#.#.#.#.+.(.(.(.(.(.(.(.(.(.(.(.(.(.(.(.(.(.(.(.(.(.(.(.(.(.(.(.(.",
"(.(.(.(.(.(.(.(.(.(.(.(.(.(.(.(.(.(.(.(.(.(.(.(.(.(.#.#.+.+.#.#.#.#.#.#.+.O.(.(.(.(.(.(.(.(.(.(.(.(.(.(.(.(.(.(.(.(.(.(.(.(.(.(.",
"(.(.(.(.(.(.(.(.(.(.(.(.(.(.(.(.(.(.(.(.(.(.(.(.(.(.@.;.d.g.;.#.#.#.#.:.d.g.(.(.(.(.(.(.(.(.(.(.(.(.(.(.(.(.(.(.(.(.(.(.(.(.(.(.",
"(.(.(.(.(.(.(.(.(.(.(.(.(.(.(.(.(.(.(.(.(.(.(.(.L I O.d.R.R.d.#.#.#.#.d.R.T.2.A (.(.(.(.(.(.(.(.(.(.(.(.(.(.(.(.(.(.(.(.(.(.(.(.",
"(.(.(.(.(.(.(.(.(.(.(.(.(.(.(.(.(.(.(.(.(.(.(.(.L P X.3.R.R.d.O.Y #.Y d.Y.D.>.A (.(.(.(.(.(.(.(.(.(.(.(.(.(.(.(.(.(.(.(.(.(.(.(.",
"(.(.(.(.(.(.(.(.(.(.(.(.(.(.(.(.(.(.(.(.(.(.(.(.L L | o.3.d.;.@.#.#.Y =.<.>. .A (.(.(.(.(.(.(.(.(.(.(.(.(.(.(.(.(.(.(.(.(.(.(.(.",
"(.(.(.(.(.(.(.(.(.(.(.(.(.(.(.(.(.(.(.(.(.(.(.(.X.X.X.&.:.1.p.d.g.g.g.d.,.o.o.o.(.(.(.(.(.(.(.(.(.(.(.(.(.(.(.(.(.(.(.(.(.(.(.(.",
"(.(.(.(.(.(.(.(.(.(.(.(.(.(.(.(.(.(.(.(.(.(.(.(.f.f.f.j.B.F.A.L.Q.!.!.Q.S.n.j.f.(.(.(.(.(.(.(.(.(.(.(.(.(.(.(.(.(.(.(.(.(.(.(.(.",
"(.(.(.(.(.(.(.(.(.(.(.(.(.(.(.(.(.(.(.(.(.(.(.(.M.m.M.C.L.K.K.W.~.^./.^.~.W.J.V.(.(.(.(.(.(.(.(.(.(.(.(.(.(.(.(.(.(.(.(.(.(.(.(.",
"(.(.(.(.(.(.(.(.(.(.(.(.(.(.(.(.(.(.(.(.(.(.M.M.M.M.M.M.Z.C.C.F.W.~.^./.^.~.W.H.V.m.(.(.(.(.(.(.(.(.(.(.(.(.(.(.(.(.(.(.(.(.(.(.",
"(.(.(.(.(.(.(.(.(.(.(.(.(.(.(.(.(.(.(.(.(.(.k.l.7.5.5.6.5.5.5.8.w.e.I.U.U.I.r.b.m.k.(.(.(.(.(.(.(.(.(.(.(.(.(.(.(.(.(.(.(.(.(.(.",
"(.(.(.(.(.(.(.(.(.(.(.(.(.(.E.H.V.l.:.G ; z 7.7.E 4 4 4 4 4 5 5 5 l T T R T l W q.7.z - J =.#.:.l.V.H.E.(.(.(.(.(.(.(.(.(.(.(.(.",
"(.(.(.(.(.(.(.(.(.(.(.(.(.(.H.F.m.s.;.G ; 5 6.6.4     . & & & - = ; ; ; ; %   5 6.9.W z M K O.:.s.m.F.H.(.(.(.(.(.(.(.(.(.(.(.(.",
"(.(.(.(.(.(.(.(.(.(.(.(.E.K.F.m.p.:.=.G ; 5 6.7.5     = a j g Z G G G G G N % 4 5.M.N.{ z 9 K ;.:.p.m.C.H.E.(.(.(.(.(.(.(.(.(.(.",
"(.(.(.(.(.(.(.(.(.(.(.(.K.F.m.s.;.#.+.G = 4 6.7.x & & 2 A .. ...@.=.=.=.=.K 9 x ] m.J.t.Q z M K O.*.s.m.F.K.(.(.(.(.(.(.(.(.(.(.",
"(.(.(.(.(.(.(.(.(.(.(.(.V.m.s.;.=.+.I j = 5 6.f.! g g Z X.O.O.@.@.#.#.=.=.@.K _ *.s.m.V.t.{ z 1 Z X.%.s.m.V.(.(.(.(.(.(.(.(.(.(.",
"(.(.(.(.(.(.(.(.(.(.(.(.l.s.;.@.+.X.Z s 8 c } i.+. . ...O.=.#.#.#.#.#.#.#.#.#.#.#.;.s.m.L.t.Q 0 f Z X.%.p.j.(.(.(.(.(.(.(.(.(.(.",
"(.(.(.(.(.(.(.(.(.(.(.(.:.:.%.+.X.Z < 7 ( } &.o.O.+.O.+.#.#.#.#.#.#.#.#.#.#.#.#.#.*.;.p.m.V.N.{ 0 < Z ..o.o.(.(.(.(.(.(.(.(.(.(.",
"(.(.(.(.(.(.(.(.(.(.(.(.U O.O.X.Z u 7 c 5.p.o.I O.=.=.#.#.#.=.#.#.#.#.#.#.#.=.#.#.#.@.;.s.m.K.w.6 & 3 j j s (.(.(.(.(.(.(.(.(.(.",
"(.(.(.(.(.(.(.(.(.(.X ; Z ....Z 2 7 ( } &.o.+.+.#.#.#.#.#.#.#.=.=.=.#.=.=.#.=.#.#.#.#.#.;.s.M.9.5 . & - - = O X (.(.(.(.(.(.(.(.",
"(.(.(.(.(.(.(.(.(.(.X & a j A Z 7 c } 4.X.P +.@.@.#.#.#.#.@.O.K U U U U U U K O.@.#.#.#.@.;.s.5.8     X X . % % (.(.(.(.(.(.(.(.",
"(.(.(.(.(.(.X X X X . O & - (.(.} } $.X.P I +.#.#.@.#.#.#.Y V i i p i i i i i V O.*.#.#.+.=.:.-.(.(.(.(.X O : > w e w w (.(.(.(.",
"(.(.(.(.(.(.% % % % . X X   (.(.Z.f...! P ..O.=.:.:.1.:.@.H y w w w w w w w w i F O.;.:.u.:.=.#.(.(.(.(.X * u p d i i i (.(.(.(.",
"(.(.(.(.w w , > > : % X (.(.(.(.Z.f.o.P X.O.+.:.s.m.V.c.J y e w w q w q w w w e y G i.l.A.n.1.#.(.(.(.(.(.(.K U U U K H i w (.(.",
"(.(.(.(.i i i p d t - X (.(.(.(.f.4.X. .+.#.#.:.l.C.H.b.M w w t v b b b b v t w q b a.C.H.V.1.#.(.(.(.(.(.(.#.#.#.=.=.O.V i (.(.",
"(.(.w i H K Y U U K (.(.(.(.(.(.o. .| ..+.#.#.:.j.M.C.h.b q q v ' p.a.a.a.' v q q b 7.Z.C.v.:.#.(.(.(.(.(.(.#.#.#.#.#.@.Y U (.(.",
"(.(.i V O.#.=.#.=.#.(.(.(.(.(.(.| ! |  .+.@.#.;.s.l.s.' v t d ) k.C.C.C.V.k.) i e v ' s.j.s.;.#.(.(.(.(.(.(.=.#.=.#.=.#.#.#.(.(.",
"(.(.U U @.#.%.#.=.#.(.(.(.(.(.(.L L L P O.#.#.=.:.*.G v t v ' k.F.P.K.K.H.F.c.' v t d G @.:.=.#.(.(.(.(.(.(.#.#.#.#.#.#.#.;.(.(.",
"(.(.#.;.#.=.#.#.#.#.(.(.(.(.(.(.L L L P O.#.=.#.#.K i q q V a.M.F.F.E.E.E.H.V.a.b q q i K #.#.#.(.(.(.(.(.(.+.+.+.O.+.O.O.+.(.(.",
"(.(.#.#.#.=.#.#.#.#.(.(.(.(.(.(.L L L P O.=.=.#.#.U i w q b a.z.s.x.F.E.E.H.C.a.b q q i U #.#.#.(.(.(.(.(.(... ....... .....(.(.",
"(.(.+.O.+.O.O.+.O.O.(.(.(.(.(.(.L L ! ..O.#.#.#.#.U i w w b a.l.:.:.n.F.H.H.V.a.b w w i U =.#.#.(.(.(.(.(.(.k k k k k k k k (.(.",
"(.(......... .......(.(.(.(.(.(.P L L  .O.=.#.#.=.U i w q b a.l.:.#.1.j.F.P.C.a.b q w i U #.#.#.(.(.(.(.(.(.y y y r y y y y (.(.",
"(.(.k k k k k k A k (.(.(.(.(.(.| L L ..O.#.#.=.#.U i w w v ' a.p.:.;.f.A.F.v.' v w w i U #.=.#.(.(.(.(.(.(.v i i i i i i i (.(.",
"(.(.y r y r r y y r (.(.(.(.(.(.L L L  .+.=.#.#.=.U i q e t v ~ i.l.l.l.M.h.) v t w q i U #.#.#.(.(.(.(.=.@.Y U U U U U U U (.(.",
"(.(.p d d i i i i B (.(.(.(.(.(.L L P P X.O.#.=.:.*.J v t w q v ' s.7.a.a.' v q w t v J :.:.=.#.(.(.(.(.#.@.O.Y @.#.=.=.#.%.(.(.",
"(.(.U U U U U U Y Y @.#.(.(.(.(.(.(.L |  .X.O.;.s.v.B.0.m q q t v b b b b v t q q v ' h.B.B.1.#.(.(.(.(.=.Y V B O.#.=.#.#.#.(.(.",
"(.(.=.#.#.#.#.#.Y Y @.=.(.(.(.(.(.(.L L L ..O.:.l.C.G.B.~ y e w w w w w w w e e y J a.Z.K.A.d.+.(.(.(.(.Y F y i U #.#.#.#.@.(.(.",
"(.(.#.#.#.#.=.O.V V Y =.(.(.(.(.(.(.| L L I O.:.l.M.C.v.;.F y w w w w w w q e y F ;.l.M.M.M.(.(.(.(.=.Y B i e i U #.#.#.#.#.(.(.",
"(.(.#.#.#.#.#.K i y F Y (.(.(.(.(.(.P L L P X.;.i.j.f.d.:.Y V i i i v i i i i V Y :.s.l.m.m.(.(.(.(.#.Y V y e v $.1.O.@.:.p.(.(.",
"(.(.@.@.#.=.#.U i e y B Y %.(.(.(.(.(.(.L P  ...X.o.o.O.@.#.O.U U U U U X.K U Y @.;.:.u.(.(.(.(.(.(.#.@.O.C y S c.c.G G c.F.(.(.",
"(.(.d.:.O.@.:.$.v e y V O.#.(.(.(.(.(.(.j j g j A L L P X.+.+.@.#.=.=.=.=.=.=.@._ J J G (.(.(.(.(.(.#.#.#.I h S x.x.S S b.W.(.(.",
"(.(.F.c.G ! b.c.S t F Y @.#.(.(.(.(.(.(.- - - 2 j L L | ........@.=.#.=.=.=.=._ 9 ; ; ; (.(.(.(.(.(.(.(.| | A ! o.! D D (.(.(.(.",
"(.(.W.b.S M f.x.S h U @.+.#.(.(.(.(.(.(.% O X & a j j g g j g n G G K G J K K m ;   o o (.(.(.(.(.(.(.(.L L | | | | | | (.(.(.(.",
"(.(.(.(.D D o.o.! k P ..(.(.(.(.(.(.(.(., * % . = - - - - - - - ; ; ; ; ; ; ; = O O : > (.(.(.(.(.(.(.(.(.(.(.(.(.(.(.(.(.(.(.(.",
"(.(.(.(.L | A L L | L | (.(.(.(.(.(.(.(.e , * O . X X X X X X   X   X X X X . . % * , e (.(.(.(.(.(.(.(.(.(.(.(.(.(.(.(.(.(.(.(.",
"(.(.(.(.(.(.(.(.(.(.(.(.(.(.(.(.(.(.(.(.e w , : O X (.(.(.(.(.(.(.(.(.(.(.(.  O * , w w e w (.(.(.(.(.(.(.(.(.(.(.(.(.(.(.(.(.(.",
"(.(.(.(.(.(.(.(.(.(.(.(.(.(.(.(.(.(.(.(.p i p u < ; (.(.(.(.(.(.(.(.(.(.(.(.X - t p i i i B (.(.(.(.(.(.(.(.(.(.(.(.(.(.(.(.(.(.",
"(.(.(.(.(.(.(.(.(.(.(.(.(.(.(.(.(.(.#.@.Y U U U J J (.(.(.(.(.(.(.(.(.(.(.(.(.(.K U Y U K Y Y #.(.(.(.(.(.(.(.(.(.(.(.(.(.(.(.(.",
"(.(.(.(.(.(.(.(.(.(.(.(.(.(.(.(.(.(.#.=.:.:.=.=.=.=.(.(.(.(.(.(.(.(.(.(.(.(.(.(.#.#.#.=.:.:.u.:.(.(.(.(.(.(.(.(.(.(.(.(.(.(.(.(.",
"(.(.(.(.(.(.(.(.(.(.(.(.(.(.(.(.#.#.#.;.s.s.:.#.#.#.(.(.(.(.(.(.(.(.(.(.(.(.(.(.=.#.#.:.j.l.l.j.(.(.(.(.(.(.(.(.(.(.(.(.(.(.(.(.",
"(.(.(.(.(.(.(.(.(.(.(.(.(.(.(.(.#.=.;.s.l.l.u.=.#.#.(.(.(.(.(.(.(.(.(.(.(.(.(.(.#.#.+.:.s.l.z.M.(.(.(.(.(.(.(.(.(.(.(.(.(.(.(.(.",
"(.(.(.(.(.(.(.(.(.(.(.(.(.(.(.(.#.:.s.z.z.l.:.Y (.(.(.(.(.(.(.(.(.(.(.(.(.(.(.(.(.(.#.=.;.p.l.M.M.M.(.(.(.(.(.(.(.(.(.(.(.(.(.(.",
"(.(.(.(.(.(.(.(.(.(.(.(.(.(.(.(.H ' j.m.z.s.:.+.(.(.(.(.(.(.(.(.(.(.(.(.(.(.(.(.(.(.#.#.+.:.s.l.a.i.(.(.(.(.(.(.(.(.(.(.(.(.(.(.",
"(.(.(.(.(.(.(.(.(.(.(.(.(.(.w e i J a.l.s.;.=.#.(.(.(.(.(.(.(.(.(.(.(.(.(.(.(.(.(.(.#.#.#.=.:.*.G v t q (.(.(.(.(.(.(.(.(.(.(.(.",
"(.(.(.(.(.(.(.(.(.(.(.(.(.(.p p y V ' i.;.@.` [ (.(.(.(.(.(.(.(.(.(.(.(.(.(.(.(.(.(.[ ` #.@.Y F h t i B (.(.(.(.(.(.(.(.(.(.(.(.",
"(.(.(.(.(.(.(.(.(.(.(.(.#.+.Y K A Z V F O.` / $ # @ + + + + + + + + + + + + + + + # $ / ` U B h h A I Y @.#.(.(.(.(.(.(.(.(.(.(.",
"(.(.(.(.(.(.(.(.(.(.(.(.#.#.#.+...k r i U ( $ @ @ # + + @ # + + + + + + + + + + + + @ $ ` U p t k ..+.=.#.#.(.(.(.(.(.(.(.(.(.(.",
"(.(.(.(.(.(.(.(.(.(.(.(.(.(.(.(.(.(.(.(.(.(.(.(.(.(.(.(.(.(.(.(.(.(.(.(.(.(.(.(.(.(.(.(.(.(.(.(.(.(.(.(.(.(.(.(.(.(.(.(.(.(.(.(.",
"(.(.(.(.(.(.(.(.(.(.(.(.(.(.(.(.(.(.(.(.(.(.(.(.(.(.(.(.(.(.(.(.(.(.(.(.(.(.(.(.(.(.(.(.(.(.(.(.(.(.(.(.(.(.(.(.(.(.(.(.(.(.(.(."
};
