/* XPM */
static char *result[] = {
/* columns rows colors chars-per-pixel */
"64 64 175 2 ",
"   c #751625",
".  c #791625",
"X  c #771826",
"o  c #7D1A26",
"O  c #7D1B28",
"+  c #5F6367",
"@  c #5C6369",
"#  c #656465",
"$  c #746661",
"%  c #821C26",
"&  c #841E2A",
"*  c #8C2026",
"=  c #85222A",
"-  c #89232B",
";  c #8A2B2C",
":  c #922326",
">  c #9A2626",
",  c #9C2826",
"<  c #962B2F",
"1  c #94302E",
"2  c #972D31",
"3  c #8A3733",
"4  c #8B3A34",
"5  c #8B3E3A",
"6  c #913734",
"7  c #9F3033",
"8  c #933B35",
"9  c #9A3A32",
"0  c #933D3A",
"q  c #A32724",
"w  c #A42A25",
"e  c #A62F28",
"r  c #AA2E2B",
"t  c #A6332A",
"y  c #AB332C",
"u  c #A6392E",
"i  c #AD3C2E",
"p  c #A23435",
"a  c #A43937",
"s  c #AC3C32",
"d  c #A43938",
"f  c #AE3A39",
"g  c #B23D31",
"h  c #B23D3A",
"j  c #B93F39",
"k  c #8C413E",
"l  c #994437",
"z  c #92433A",
"x  c #994F3E",
"c  c #9B453A",
"v  c #9A503E",
"b  c #AC4232",
"n  c #AF4B35",
"m  c #AF413A",
"M  c #A64838",
"N  c #AC4E3B",
"B  c #A34335",
"V  c #B14432",
"C  c #B44934",
"Z  c #B84F37",
"A  c #B4433B",
"S  c #BD443B",
"D  c #B24E3D",
"F  c #BB493E",
"G  c #B95037",
"H  c #B5563C",
"J  c #BB543A",
"K  c #B5593E",
"L  c #BB5B3E",
"P  c #C0463F",
"I  c #C14B3F",
"U  c #C1553E",
"Y  c #C05D3E",
"T  c #C2613F",
"R  c #8F4643",
"E  c #904946",
"W  c #9D5640",
"Q  c #9D5B46",
"!  c #9B5F4C",
"~  c #B75744",
"^  c #B65D42",
"/  c #BB5F40",
"(  c #8C6859",
")  c #AC6C4C",
"_  c #B66343",
"`  c #BC6040",
"'  c #B66B4C",
"]  c #BB7148",
"[  c #BB7C4F",
"{  c #A86A50",
"}  c #AC7C5C",
"|  c #BB7D52",
" . c #C14740",
".. c #C24D40",
"X. c #C35241",
"o. c #C45B44",
"O. c #C35E49",
"+. c #C56342",
"@. c #C86644",
"#. c #C66A44",
"$. c #C96D45",
"%. c #C26C4B",
"&. c #C96E49",
"*. c #C4654A",
"=. c #C47147",
"-. c #CB7046",
";. c #C4734A",
":. c #CA754A",
">. c #CA7A4C",
",. c #C66353",
"<. c #C66B50",
"1. c #C96D54",
"2. c #C77D53",
"3. c #CA7D51",
"4. c #C97059",
"5. c #CD7E58",
"6. c #B78253",
"7. c #B98454",
"8. c #BD8B57",
"9. c #B78658",
"0. c #BB8D5A",
"q. c #BD835C",
"w. c #BE905A",
"e. c #B99465",
"r. c #BF9C69",
"t. c #BC9E72",
"y. c #BFA26D",
"u. c #BDA074",
"i. c #CB814F",
"p. c #C48451",
"a. c #CA8354",
"s. c #C38B55",
"d. c #CB8C55",
"f. c #CE8459",
"g. c #CB8C5A",
"h. c #D08C5F",
"j. c #C6955D",
"k. c #CA945C",
"l. c #C69A5E",
"z. c #CC9B5C",
"x. c #CDA05F",
"c. c #C48B62",
"v. c #C59463",
"b. c #CB9D63",
"n. c #C49968",
"m. c #CC9D68",
"M. c #CDA363",
"N. c #CDAA65",
"B. c #C4A06B",
"V. c #CAA36B",
"C. c #CDAD6B",
"Z. c #CEB16C",
"A. c #CDAE71",
"S. c #CFAB78",
"D. c #D4A47F",
"F. c #CEB374",
"G. c #CFBA76",
"H. c #CFBE7B",
"J. c #D1BA75",
"K. c #D0BE78",
"L. c #D1B57B",
"P. c #CFC07C",
"I. c #C5AE84",
"U. c #C9B68C",
"Y. c #D7B081",
"T. c #D8B583",
"R. c #D9B883",
"E. c #CFC583",
"W. c #D3C986",
"Q. c #D9C28B",
"!. c #DECB94",
"~. c #DBDA9A",
"^. c #E2E7A8",
"/. c #E4EBAC",
"(. c None",
/* pixels */
"(.(.(.(.(.(.(.(.(.(.(.(.(.(.(.(.(.(.(.(.(.(.(.(.(.(.(.(.(.(.(.(.(.(.(.(.(.(.(.(.(.(.(.(.(.(.(.(.(.(.(.(.(.(.(.(.(.(.(.(.(.(.(.(.",
"(.(.(.(.(.(.(.(.(.(.(.(.(.(.(.(.(.(.(.(.(.(.(.(.(.(.(.(.(.(.(.(.(.(.(.(.(.(.(.(.(.(.(.(.(.(.(.(.(.(.(.(.(.(.(.(.(.(.(.(.(.(.(.(.",
"(.(.(.(.(.(.(.(.(.(.(.(.(.(.(.(.(.(.(.(.(.(.(.(.(.(.(.(.(.(.(.(.(.(.(.(.(.(.(.(.(.(.(.(.(.(.(.(.(.(.(.(.(.(.(.(.(.(.(.(.(.(.(.(.",
"(.(.(.(.(.(.(.(.(.(.(.(.(.(.(.(.(.(.(.(.(.(.(.(.(.(.(.(.(.(.(.(.(.(.(.(.(.(.(.(.(.(.(.(.(.(.(.(.(.(.(.(.(.(.(.(.(.(.(.(.(.(.(.(.",
"(.(.(.(.(.(.(.(.(.(.(.(.(.(.(.(.(.(.(.(.(.(.(.(.(.(.(.(.$.$.$.$.$.$.$.$.(.(.(.(.(.(.(.(.(.(.(.(.(.(.(.(.(.(.(.(.(.(.(.(.(.(.(.(.",
"(.(.(.(.(.(.(.(.(.(.(.(.(.(.(.(.(.(.(.(.(.(.(.(.(.(.(.(.$.$.$.$.$.#.$.$.(.(.(.(.(.(.(.(.(.(.(.(.(.(.(.(.(.(.(.(.(.(.(.(.(.(.(.(.",
"(.(.(.(.(.(.(.(.(.(.(.(.(.(.(.(.(.(.(.(.(.(.(.(.(.(.$.$.$.$.$.$.$.$.$.$.$.$.(.(.(.(.(.(.(.(.(.(.(.(.(.(.(.(.(.(.(.(.(.(.(.(.(.(.",
"(.(.(.(.(.(.(.(.(.(.(.(.(.(.(.(.(.(.(.(.(.(.(.(.(.(.$.:.a.f.:.$.$.$.$.:.f.f.(.(.(.(.(.(.(.(.(.(.(.(.(.(.(.(.(.(.(.(.(.(.(.(.(.(.",
"(.(.(.(.(.(.(.(.(.(.(.(.(.(.(.(.(.(.(.(.(.(.(.(.P I @.f.R.T.a.$.$.$.$.a.R.T.4.S (.(.(.(.(.(.(.(.(.(.(.(.(.(.(.(.(.(.(.(.(.(.(.(.",
"(.(.(.(.(.(.(.(.(.(.(.(.(.(.(.(.(.(.(.(.(.(.(.(.P I o.5.T.T.f.@.+.$.@.f.Y.D.,.S (.(.(.(.(.(.(.(.(.(.(.(.(.(.(.(.(.(.(.(.(.(.(.(.",
"(.(.(.(.(.(.(.(.(.(.(.(.(.(.(.(.(.(.(.(.(.(.(.(.P P I o.5.f.:.$.#.$.$.$.1.,...S (.(.(.(.(.(.(.(.(.(.(.(.(.(.(.(.(.(.(.(.(.(.(.(.",
"(.(.(.(.(.(.(.(.(.(.(.(.(.(.(.(.(.(.(.(.(.(.(.(.o.o.O.*.:.a.a.f.f.h.f.5.1.O.O.O.(.(.(.(.(.(.(.(.(.(.(.(.(.(.(.(.(.(.(.(.(.(.(.(.",
"(.(.(.(.(.(.(.(.(.(.(.(.(.(.(.(.(.(.(.(.(.(.(.(.g.d.k.k.V.A.A.L.Q.!.!.R.S.m.j.g.(.(.(.(.(.(.(.(.(.(.(.(.(.(.(.(.(.(.(.(.(.(.(.(.",
"(.(.(.(.(.(.(.(.(.(.(.(.(.(.(.(.(.(.(.(.(.(.(.(.N.N.N.C.J.K.K.W.~././.^.~.W.J.C.(.(.(.(.(.(.(.(.(.(.(.(.(.(.(.(.(.(.(.(.(.(.(.(.",
"(.(.(.(.(.(.(.(.(.(.(.(.(.(.(.(.(.(.(.(.(.(.N.N.N.N.N.N.Z.Z.Z.J.W.~.^././.~.W.G.C.M.(.(.(.(.(.(.(.(.(.(.(.(.(.(.(.(.(.(.(.(.(.(.",
"(.(.(.(.(.(.(.(.(.(.(.(.(.(.(.(.(.(.(.(.(.(.l.z.8.6.6.7.6.| 6.9.e.t.I.U.U.I.u.r.M.l.(.(.(.(.(.(.(.(.(.(.(.(.(.(.(.(.(.(.(.(.(.(.",
"(.(.(.(.(.(.(.(.(.(.(.(.(.(.E.H.C.z.>.H ; 0 8.8.x 3 4 3 6 3 3 4 4 k R E E k k Q w.8.5 - H -.$.>.z.C.H.E.(.(.(.(.(.(.(.(.(.(.(.(.",
"(.(.(.(.(.(.(.(.(.(.(.(.(.(.K.F.M.d.>.H ; 4 7.7.3     . & & & - - ; ; ; ; =   4 7.w.Q z N L +.>.d.M.F.H.(.(.(.(.(.(.(.(.(.(.(.(.",
"(.(.(.(.(.(.(.(.(.(.(.(.E.K.F.M.a.:.-.H ; 4 7.7.4     % p h f h H H H H H B O 4 6.N.B.} z 9 L :.>.a.M.Z.H.E.(.(.(.(.(.(.(.(.(.(.",
"(.(.(.(.(.(.(.(.(.(.(.(.K.F.M.d.>.$.@.H ; 4 7.8.c & & 2 A X...o.#.$.-.-.-.L 9 l | M.J.B.! z N L +.=.d.M.F.K.(.(.(.(.(.(.(.(.(.(.",
"(.(.(.(.(.(.(.(.(.(.(.(.C.M.a.:.-.@.o.A & 3 7.j.~ f f A Y +.@.#.$.$.$.$.-.#.L L =.a.M.C.y.} z 2 A o.:.d.M.C.(.(.(.(.(.(.(.(.(.(.",
"(.(.(.(.(.(.(.(.(.(.(.(.z.d.>.$.@.U A p 8 x | a.*.....o.@.$.$.$.$.$.$.$.$.$.-.$.$.>.d.M.J.y.! 0 d A X.&.a.k.(.(.(.(.(.(.(.(.(.(.",
"(.(.(.(.(.(.(.(.(.(.(.(.>.>.$.@.o.A < 6 ) | *.o.@.@.@.@.$.$.-.$.$.$.$.$.$.$.$.$.$.$.>.a.M.A.B.} 0 < A X.o.O.(.(.(.(.(.(.(.(.(.(.",
"(.(.(.(.(.(.(.(.(.(.(.(.T @.@.o.A p 3 x | a.*.X.+.$.$.$.$.$.$.-.$.$.$.$.$.$.$.$.$.$.$.:.d.M.K.e.5 & p h f f (.(.(.(.(.(.(.(.(.(.",
"(.(.(.(.(.(.(.(.(.(.(.(...X.X.A < 6 ) | %.O.@.@.@.$.$.$.$.$.$.-.-.-.-.$.-.$.-.$.$.$.$.$.;.d.N.0.3 . & & - - (.(.(.(.(.(.(.(.(.(.",
"(.(.(.(.(.(.(.(.(.(.(.(.a f h a 6 x | a.o.I @.$.$.$.$.$.$.#.T L L Y Y T Y Y L +.#.$.$.$.$.:.d.6.0   X X X X (.(.(.(.(.(.(.(.(.(.",
"(.(.(.(.(.(.(.(.(.(.X O & - - 8 ) | *.o.I ..+.$.$.$.$.$.-.T C i i i i i i i i C +.-.$.$.#.$.:.=.(.(.  X X X X X (.(.(.(.(.(.(.(.",
"(.(.(.(.(.(.(.(.(.(.X X X     z 8.k.O.P I U @.-.>.>.a.:.#.J y q w w w w w w w i G +.:.>.i.>.>.$.(.(.X o o % % % (.(.(.(.(.(.(.(.",
"(.(.(.(.(.(.(.(.X X X X X X (.(.M.k.O.~ X.@.@.:.d.b.C.v.K y e w w q w q w w w e y G p.b.A.m.>.$.(.(.(.(.> > > , w w (.(.(.(.(.(.",
"(.(.(.(.(.(.(.(.% % % % .   (.(.k.2.o...@.@.$.>.z.C.P.n.N w q t b n n n n b t w q n s.Z.G.C.a.$.(.(.(.(.i i i i i i (.(.(.(.(.(.",
"(.(.(.(.(.(.w w , > > > (.(.(.(.*.X...X.@.$.$.>.z.N.Z.j.n w q b ] s.s.s.s.] b q q n s.C.C.b.>.$.(.(.(.(.Y Y T L Y J i w (.(.(.(.",
"(.(.(.(.(.(.i i i i i i (.(.(.(.P P S X.@.$.$.>.d.k.s.] b t b _ j.Z.C.Z.Z.l._ i t b ] s.z.d.:.$.(.(.(.(.-.-.$.$.-.+.C i (.(.(.(.",
"(.(.(.(., i J Y Y Y Y Y (.(.(.(.P P P U +.$.$.-.:.$.H b e b ] l.F.H.K.K.H.F.j.] b t s H #.>.-.$.(.(.(.(.$.$.$.$.$.$.` Y (.(.(.(.",
"(.(.(.(.i C +.-.-.-.-.-.(.(.(.(.P P P I @.$.-.$.-.L i q q n s.Z.H.E.E.E.L.A.N.s.n q q i L $.$.$.(.(.(.(.$.$.-.$.$.$.$.-.(.(.(.(.",
"(.(.(.(.L T #.$.$.$.$.$.(.(.(.(.P P P I @.$.$.$.$.L i q q n s.C.H.E.E.F.g.d.M.s.n w w i Y $.-.$.(.(.(.(.&.$.$.$.$.$.$.&.(.(.(.(.",
"(.(.(.(.$.$.$.$.-.$.$.$.(.(.(.(.P P P ~ @.$.-.$.$.T i w w n s.Z.H.H.F.m.3.>.z.s.n w w i L -.$.$.(.(.(.(.+.@.@.+.@.@.@.+.(.(.(.(.",
"(.(.(.(.&.$.$.$.$.$.$.$.(.(.(.(.P P P X.+.$.$.$.-.Y i w w n s.Z.P.F.v.>.$.>.z.s.n w w i o.$.$.$.(.(.(.(.X.X...X.X.....X.(.(.(.(.",
"(.(.(.(.@.+.@.@.@.@.+.@.(.(.(.(.P P P X.+.$.-.$.$.Y i w w b ] j.F.A.d.:.:.a.s.] b w w i L $.$.$.(.(.(.(.j j j j j j A j (.(.(.(.",
"(.(.(.(.X.X.X...X.X.X.X.(.(.(.(.P P P ..+.-.$.-.-.L i q e t b _ k.C.M.z.z.p.^ b t w w i Y $.$.$.(.(.(.(.y y y y y y y y (.(.(.(.",
"(.(.(.(.j j j j j j j j (.(.(.(.P P I I o.#.$.-.:.=.L b t q q b ] s.s.s.s.] b q q t b K >.>.&.$.(.(.(.(.g i i i i i i i (.(.(.(.",
"(.(.(.(.y y y r y y y t (.(.(.(.(.(. . ...o.+.>.d.b.B.q.n q q t b C n n n b t q w b ] j.C.m.3.$.(.(.$.$.+.Y Y Y Y Y Y Y (.(.(.(.",
"(.(.(.(.i i i g i i i g (.(.(.(.(.(. .S S X.@.>.z.Z.K.V.^ t e e w w w w w w e e y H s.Z.K.A.a.$.(.(.$.$.T +.$.$.$.$.$.-.(.(.(.(.",
"(.(.(.(.Y Y Y Y L Y T +.$.$.(.(.(.(. .P P X.+.:.z.N.Z.b.=.Z y w w e w w w w w y G ;.z.N.N.N.(.(.(.(.-.T C C Y $.&.$.$.$.(.(.(.(.",
"(.(.(.(.-.$.$.$.$.$.T T #.$.(.(.(.(.I P P I o.:.a.k.g.d.>.+.C i i i i i i i i C T >.d.z.M.M.(.(.(.(.L G y i L $.$.$.$.$.(.(.(.(.",
"(.(.(.(.$.$.$.$.-.T C C +.-.(.(.(.(.(.(.I  ...o.o.O.O.o.@.$.+.Y L Y Y Y T Y Y +.$.:.>.i.(.(.(.(.$.T V y e i L $.-.$.$.@.(.(.(.(.",
"(.(.(.(.$.$.$.$.$.Y i y Z T (.(.(.(.(.(.h f f h S P P ..o.@.@.$.$.-.-.$.-.-.$.$.L K H H (.(.(.(.$.+.C y e b &.3.+.+.3.a.(.(.(.(.",
"(.(.(.(.#.$.$.-.$.L i w y C Y $.(.(.(.(.- & - 2 h P I I I X.X.o.@.-.-.-.$.:.-./ 9 ; ; ; (.(.(.(.$.$.T G y N v.v.K H v.F.(.(.(.(.",
"(.(.(.(.a.>.+.#.>.=.b e y C +.&.(.(.(.(.% o X & p h h f f f f f H H L H K K L M ; . o % (.(.(.(.$.$.$.L g H c.c.D D n.W.(.(.(.(.",
"(.(.(.(.F.v.H ~ v.v.n y Z +.#.$.(.(.(.(.> : % o & - - - - - - - ; ; ; ; ; ; ; - O % * > (.(.(.(.(.(.X.I S ~ o.O.~ j (.(.(.(.(.(.",
"(.(.(.(.W.n.D D c.c.F g U @.$.$.(.(.(.(.e , & o .     X X X X X X   X X X X X . o * , e (.(.(.(.(.(. .S  . .P S P P (.(.(.(.(.(.",
"(.(.(.(.(.(.F F ~ O.~ S I X.(.(.(.(.(.(.w w , : o X (.(.(.(.(.(.(.(.(.(.(.(.X o * , w e e w (.(.(.(.(.(.(.(.(.(.(.(.(.(.(.(.(.(.",
"(.(.(.(.(.(. . . .P P P S P (.(.(.(.(.(.V i i u 1 ; (.(.(.(.(.(.(.(.(.(.(.(.. - u i i i i i (.(.(.(.(.(.(.(.(.(.(.(.(.(.(.(.(.(.",
"(.(.(.(.(.(.(.(.(.(.(.(.(.(.(.(.(.(.$.#.Y Y Y L K K (.(.(.(.(.(.(.(.(.(.(.(.(.(.L Y Y Y L T T -.(.(.(.(.(.(.(.(.(.(.(.(.(.(.(.(.",
"(.(.(.(.(.(.(.(.(.(.(.(.(.(.(.(.(.(.$.-.>.>.:.-.-.$.(.(.(.(.(.(.(.(.(.(.(.(.(.(.$.$.$.:.>.i.>.>.(.(.(.(.(.(.(.(.(.(.(.(.(.(.(.(.",
"(.(.(.(.(.(.(.(.(.(.(.(.(.(.(.(.$.$.$.:.d.d.:.-.$.$.(.(.(.(.(.(.(.(.(.(.(.(.(.(.$.$.$.>.d.x.z.k.(.(.(.(.(.(.(.(.(.(.(.(.(.(.(.(.",
"(.(.(.(.(.(.(.(.(.(.(.(.(.(.(.(.$.-.:.d.z.z.:.$.$.$.(.(.(.(.(.(.(.(.(.(.(.(.(.(.$.$.$.:.d.z.x.N.(.(.(.(.(.(.(.(.(.(.(.(.(.(.(.(.",
"(.(.(.(.(.(.(.(.(.(.(.(.(.(.(.(.-.:.d.z.N.z.>.$.(.(.(.(.(.(.(.(.(.(.(.(.(.(.(.(.(.(.$.$.:.d.x.N.N.N.(.(.(.(.(.(.(.(.(.(.(.(.(.(.",
"(.(.(.(.(.(.(.(.(.(.(.(.(.(.(.(.J =.z.M.z.d.:.$.(.(.(.(.(.(.(.(.(.(.(.(.(.(.(.(.(.(.$.$.$.>.d.j.s.p.(.(.(.(.(.(.(.(.(.(.(.(.(.(.",
"(.(.(.(.(.(.(.(.(.(.(.(.(.(.e e y K k.z.d.:.$.$.(.(.(.(.(.(.(.(.(.(.(.(.(.(.(.(.(.(.$.$.$.-.:.-.H b t q (.(.(.(.(.(.(.(.(.(.(.(.",
"(.(.(.(.(.(.(.(.(.(.(.(.(.(.s i y V ] p.-.] ' ) (.(.(.(.(.(.(.(.(.(.(.(.(.(.(.(.(.(.{ ' #.+.T J i y i V (.(.(.(.(.(.(.(.(.(.(.(.",
"(.(.(.(.(.(.(.(.(.(.(.(.$.$.T J S A V G +.' ( $ # @ + + + + + + + + + + + + + + @ # $ ( ] T C g j S J T @.-.(.(.(.(.(.(.(.(.(.(.",
"(.(.(.(.(.(.(.(.(.(.(.(.$.$.$.@.X.j t i Y ) $ @ @ # + + @ # + + + + + + + + + + # @ @ $ ' Y y y j X.@.-.$.&.(.(.(.(.(.(.(.(.(.(.",
"(.(.(.(.(.(.(.(.(.(.(.(.(.(.(.(.(.(.(.(.(.(.(.(.(.(.(.(.(.(.(.(.(.(.(.(.(.(.(.(.(.(.(.(.(.(.(.(.(.(.(.(.(.(.(.(.(.(.(.(.(.(.(.(.",
"(.(.(.(.(.(.(.(.(.(.(.(.(.(.(.(.(.(.(.(.(.(.(.(.(.(.(.(.(.(.(.(.(.(.(.(.(.(.(.(.(.(.(.(.(.(.(.(.(.(.(.(.(.(.(.(.(.(.(.(.(.(.(.(."
};
