/* XPM */
static char *result[] = {
/* columns rows colors chars-per-pixel */
"64 64 173 2 ",
"   c #751625",
".  c #791626",
"X  c #771826",
"o  c #7D1A26",
"O  c #7D1B28",
"+  c #5F6367",
"@  c #5C6369",
"#  c #656465",
"$  c #746661",
"%  c #821C26",
"&  c #841E2A",
"*  c #8C2126",
"=  c #85222A",
"-  c #89232C",
";  c #8A2A2C",
":  c #912326",
">  c #992626",
",  c #9D2927",
"<  c #962B2F",
"1  c #972D31",
"2  c #8A3733",
"3  c #8B3A34",
"4  c #8B3E3A",
"5  c #913734",
"6  c #9F3033",
"7  c #933B35",
"8  c #9A3A32",
"9  c #933D3A",
"0  c #A32724",
"q  c #A42A25",
"w  c #A62F28",
"e  c #AA2E2B",
"r  c #A7322A",
"t  c #AB332B",
"y  c #AE3C2E",
"u  c #A23435",
"i  c #A43937",
"p  c #AC3B32",
"a  c #A43938",
"s  c #AE3A39",
"d  c #B23D31",
"f  c #B23D3A",
"g  c #B93F39",
"h  c #8C413E",
"j  c #92433A",
"k  c #994F3E",
"l  c #9A4539",
"z  c #9A503E",
"x  c #AF402F",
"c  c #AC4232",
"v  c #AF4B35",
"b  c #AF413A",
"n  c #A64838",
"m  c #AC4E3B",
"M  c #A34335",
"N  c #B14432",
"B  c #B44934",
"V  c #B84F37",
"C  c #B4433B",
"Z  c #BC453B",
"A  c #B24E3D",
"S  c #BB493E",
"D  c #B95037",
"F  c #B5563C",
"G  c #BC543A",
"H  c #B6593E",
"J  c #BB5C3E",
"K  c #C0463F",
"L  c #C14B3F",
"P  c #C1553E",
"I  c #C05D3E",
"U  c #C2613F",
"Y  c #8F4643",
"T  c #904946",
"R  c #9D5640",
"E  c #9D5B46",
"W  c #9B5F4C",
"Q  c #B75744",
"!  c #B65D42",
"~  c #BB5F40",
"^  c #8C6859",
"/  c #AC6C4C",
"(  c #B66343",
")  c #BC6040",
"_  c #B66B4C",
"`  c #BB7148",
"'  c #BB7C4F",
"]  c #A86A50",
"[  c #AC7C5C",
"{  c #BB7D52",
"}  c #C14740",
"|  c #C24D40",
" . c #C35241",
".. c #C45B44",
"X. c #C25E49",
"o. c #C56442",
"O. c #C86644",
"+. c #C66A44",
"@. c #C96D45",
"#. c #C4634A",
"$. c #C26C4B",
"%. c #C86E49",
"&. c #C47147",
"*. c #CB7046",
"=. c #C4734A",
"-. c #CA7549",
";. c #CA7A4C",
":. c #C66B50",
">. c #C96D5A",
",. c #C86C54",
"<. c #CA7D52",
"1. c #C77D53",
"2. c #B78253",
"3. c #B98454",
"4. c #BD8B57",
"5. c #B78658",
"6. c #BB8D5A",
"7. c #BD835C",
"8. c #BE905A",
"9. c #B99465",
"0. c #BF9C69",
"q. c #BC9E72",
"w. c #BFA26D",
"e. c #BDA074",
"r. c #CB814F",
"t. c #C48451",
"y. c #CB8354",
"u. c #C38B55",
"i. c #CB8C55",
"p. c #CE8458",
"a. c #CA8D5A",
"s. c #D08C5F",
"d. c #C6955D",
"f. c #CA945C",
"g. c #C69A5E",
"h. c #CC9B5C",
"j. c #CDA05F",
"k. c #C48B62",
"l. c #D08D60",
"z. c #C59463",
"x. c #CB9D63",
"c. c #C49968",
"v. c #CB9D68",
"b. c #D19465",
"n. c #CDA363",
"m. c #CDAA65",
"M. c #C4A06B",
"N. c #CAA36B",
"B. c #CDAD6B",
"V. c #CEB16C",
"C. c #CDAD71",
"Z. c #CFAB78",
"A. c #D7AD7F",
"S. c #CEB374",
"D. c #CFBA76",
"F. c #CFBE7B",
"G. c #D1BA75",
"H. c #D0BE78",
"J. c #D1B47A",
"K. c #CFC07C",
"L. c #C5AE84",
"P. c #C9B68C",
"I. c #D8B481",
"U. c #CFC583",
"Y. c #D3C986",
"T. c #D9C28B",
"R. c #DBC192",
"E. c #DECD96",
"W. c #DED299",
"Q. c #DBDA9A",
"!. c #E2E6A8",
"~. c #E4ECAD",
"^. c None",
/* pixels */
"^.^.^.^.^.^.^.^.^.^.^.^.^.^.^.^.^.^.^.^.^.^.^.^.^.^.^.^.^.^.^.^.^.^.^.^.^.^.^.^.^.^.^.^.^.^.^.^.^.^.^.^.^.^.^.^.^.^.^.^.^.^.^.^.",
"^.^.^.^.^.^.^.^.^.^.^.^.^.^.^.^.^.^.^.^.^.^.^.^.^.^.^.^.^.^.^.^.^.^.^.^.^.^.^.^.^.^.^.^.^.^.^.^.^.^.^.^.^.^.^.^.^.^.^.^.^.^.^.^.",
"^.^.^.^.^.^.^.^.^.^.^.^.^.^.^.^.^.^.^.^.^.^.^.^.^.^.^.^.@.+.@.@.@.@.@.@.^.^.^.^.^.^.^.^.^.^.^.^.^.^.^.^.^.^.^.^.^.^.^.^.^.^.^.^.",
"^.^.^.^.^.^.^.^.^.^.^.^.^.^.^.^.^.^.^.^.^.^.^.^.^.^.^.^.@.@.@.+.@.@.@.@.^.^.^.^.^.^.^.^.^.^.^.^.^.^.^.^.^.^.^.^.^.^.^.^.^.^.^.^.",
"^.^.^.^.^.^.^.^.^.^.^.^.^.^.^.^.^.^.^.^.^.^.^.^.^.^.@.@.@.O.@.O.@.@.@.@.+.@.^.^.^.^.^.^.^.^.^.^.^.^.^.^.^.^.^.^.^.^.^.^.^.^.^.^.",
"^.^.^.^.^.^.^.^.^.^.^.^.^.^.^.^.^.^.^.^.^.^.^.^.^.^.@.-.p.l.l.s.-.@.@.%.p.b.^.^.^.^.^.^.^.^.^.^.^.^.^.^.^.^.^.^.^.^.^.^.^.^.^.^.",
"^.^.^.^.^.^.^.^.^.^.^.^.^.^.^.^.^.^.^.^.^.^.^.^.K P o.p.I.W.E.I.<.@.O.l.I.W.!.~.^.^.^.^.^.^.^.^.^.^.^.^.^.^.^.^.^.^.^.^.^.^.^.^.",
"^.^.^.^.^.^.^.^.^.^.^.^.^.^.^.^.^.^.^.^.^.^.^.^.K L P <.I.E.E.I.p.O.@.<.I.R.E.I.^.^.^.^.^.^.^.^.^.^.^.^.^.^.^.^.^.^.^.^.^.^.^.^.",
"^.^.^.^.^.^.^.^.^.^.^.^.^.^.^.^.^.^.^.^.^.^.^.^.K K L #.<.s.s.p.%.O.@.@.,.>.>.>.^.^.^.^.^.^.^.^.^.^.^.^.^.^.^.^.^.^.^.^.^.^.^.^.",
"^.^.^.^.^.^.^.^.^.^.^.^.^.^.^.^.^.^.^.^.^.^.^.^...X...#.<.<.<.y.s.l.l.<.$.X.....^.^.^.^.^.^.^.^.^.^.^.^.^.^.^.^.^.^.^.^.^.^.^.^.",
"^.^.^.^.^.^.^.^.^.^.^.^.^.^.^.^.^.^.^.^.^.^.^.^.a.a.a.l.N.C.C.J.T.E.E.I.Z.c.f.i.^.^.^.^.^.^.^.^.^.^.^.^.^.^.^.^.^.^.^.^.^.^.^.^.",
"^.^.^.^.^.^.^.^.^.^.^.^.^.^.^.^.^.^.^.^.^.^.^.^.m.m.m.B.H.H.H.Y.Q.~.~.~.Q.Y.S.B.^.^.^.^.^.^.^.^.^.^.^.^.^.^.^.^.^.^.^.^.^.^.^.^.",
"^.^.^.^.^.^.^.^.^.^.^.^.^.^.^.^.^.^.^.^.^.^.n.m.m.m.m.m.B.V.B.G.T.Q.!.~.!.Q.Y.G.B.m.^.^.^.^.^.^.^.^.^.^.^.^.^.^.^.^.^.^.^.^.^.^.",
"^.^.^.^.^.^.^.^.^.^.^.^.^.^.^.^.^.^.^.^.^.^.g.h.4.2.2.2.2.2.2.5.9.q.L.P.P.L.e.0.n.d.^.^.^.^.^.^.^.^.^.^.^.^.^.^.^.^.^.^.^.^.^.^.",
"^.^.^.^.^.^.^.^.^.^.^.^.^.^.U.F.V.h.;.F ; j 4.8.z 2 3 3 2 2 3 3 4 h h Y T Y h E 8.4.4 - F *.@.;.h.B.H.U.^.^.^.^.^.^.^.^.^.^.^.^.",
"^.^.^.^.^.^.^.^.^.^.^.^.^.^.F.S.m.i.-.F ; 3 3.3.3     . & - & - - ; ; ; ; =   3 3.8.E j m J +.;.i.n.S.F.^.^.^.^.^.^.^.^.^.^.^.^.",
"^.^.^.^.^.^.^.^.^.^.^.^.U.F.V.n.y.-.*.F ; 3 3.3.3     & 6 s f s F F F F F M = 2 2.m.M.[ j 8 J -.;.i.n.V.H.U.^.^.^.^.^.^.^.^.^.^.",
"^.^.^.^.^.^.^.^.^.^.^.^.F.S.n.i.-.@.+.A - 3 3.4.l & & 1 Z | | ..o.*.@.*.*.J 8 l { m.G.e.W 9 m J ..*.i.n.G.H.^.^.^.^.^.^.^.^.^.^.",
"^.^.^.^.^.^.^.^.^.^.^.^.B.n.i.-.*.O...C & 2 3.f.Q s s C ..o.O.@.@.@.@.*.@.+.J ) $.i.n.B.0.[ j 1 C ..%.i.n.B.^.^.^.^.^.^.^.^.^.^.",
"^.^.^.^.^.^.^.^.^.^.^.^.h.i.-.+.+...C u 7 k ' t.O.L | ..o.@.@.@.@.@.@.@.@.@.*.@.@.*.i.n.H.w.W 9 a C  .%.y.f.^.^.^.^.^.^.^.^.^.^.",
"^.^.^.^.^.^.^.^.^.^.^.^.;.-.*.O...C < 5 / { $...o.O.O.O.@.@.*.@.@.@.@.@.@.@.@.@.@.@.-.i.n.B.M.[ j < C ....X.^.^.^.^.^.^.^.^.^.^.",
"^.^.^.^.^.^.^.^.^.^.^.^.O.O.o...g u 5 R { y.#. .O.@.@.@.@.@.@.@.@.@.@.@.@.@.@.*.@.@.+.&.i.n.H.9.4 & 6 s s s ^.^.^.^.^.^.^.^.^.^.",
"^.^.^.^.^.^.^.^.^.^.^.^.P  . .C < 5 / { $...o.o.@.@.@.@.@.@.*.@.*.@.*.@.@.*.*.@.@.@.@.@.-.i.m.6.4 X % - & - ^.^.^.^.^.^.^.^.^.^.",
"^.^.^.^.^.^.^.^.^.^.^.^.s f s i 5 T { <...| o.@.@.+.@.@.@.+.U J J U I I I I I U +.@.@.@.@.-.i.2.7   X X . X ^.^.^.^.^.^.^.^.^.^.",
"^.^.^.^.^.^.^.^.^.^.X O & = - 5 / ' $. .| | o.@.@.@.@.@.*.U B y y y y y y y y B U *.@.+.+.@.-.-.^.^.X X X X X X ^.^.^.^.^.^.^.^.",
"^.^.^.^.^.^.^.^.^.^.X X X     j d.f.X.} L P O.*.;.;.y.;.+.D y , q q q q q q q t V o.-.;.y.;.%.@.^.^.% % o % % % ^.^.^.^.^.^.^.^.",
"^.^.^.^.^.^.^.^.X X X X X   ^.^.n.f.X.L ..O.@.;.i.n.B.z.H t w q q q q q q q q r t F t.n.C.v.<.@.^.^.> > > > > > ^.^.^.^.^.^.^.^.",
"^.^.^.^.^.^.^.^.% % % % % % ^.^.f.1...L o.@.@.-.h.B.H.c.m 0 q r c B v v v c r q 0 v u.V.H.B.<.@.^.^.y y d y y y ^.^.^.^.^.^.^.^.",
"^.^.^.^.^.^.^.^.> > > > > > ^.^.#. .| | O.@.@.;.f.B.V.d.v 0 0 c ` u.u.u.u.` c 0 , v u.m.V.n.;.@.^.^.I I I I U G y q ^.^.^.^.^.^.",
"^.^.^.^.^.^.^.^.y y y d d y ^.^.K Q K P O.@.@.;.i.f.u.` x r y ( g.m.n.h.h.u.H x r x ` u.f.i.-.@.^.^.@.*.@.*.*.o.B p ^.^.^.^.^.^.",
"^.^.^.^.^.^.q y G I I I U I ^.^.K K K L O.@.@.*.-.&.F x r x ` g.S.B.a.-.;.t.u.` c r x F &.-.*.@.^.^.@.@.*.@.@.@.I I ^.^.^.^.^.^.",
"^.^.^.^.^.^.y B o.@.*.@.*.@.^.^.K K K K ..@.@.@.*.I y 0 , v 4.V.K.J.l.;.@.;.h.u.v q 0 y J *.@.@.^.^.@.*.@.@.@.@.@.@.^.^.^.^.^.^.",
"^.^.^.^.^.^.I U +.@.@.@.@.*.^.^.K } K P o.@.*.@.@.I y 0 0 v u.V.F.K.S.v.;.;.h.u.v q q y J @.@.@.^.^.@.@.@.@.@.@.@.*.^.^.^.^.^.^.",
"^.^.^.^.^.^.@.*.@.*.@.*.@.@.^.^.K K K  .O.@.@.@.@.J y q q v u.B.F.U.U.J.z.i.x.u.v q 0 y I @.*.@.^.^.o.o.#.O.O.#.o.O.^.^.^.^.^.^.",
"^.^.^.^.^.^.@.@.@.*.@.@.@.*.^.^.K K K L o.@.*.@.*.I y q q v u.V.F.U.U.F.S.C.m.u.v 0 q y I @.*.@.^.^. . . . . .| P | ^.^.^.^.^.^.",
"^.^.^.^.^.^.O.#.o.o.O.o.o.o.^.^.} K K P o.*.@.@.@.I y 0 0 c ` d.S.F.F.F.K.S.f.` c q q y I @.@.@.^.^.g Z g g g g g g ^.^.^.^.^.^.",
"^.^.^.^.^.^. . . .|  . . .| ^.^.K K K | O.@.@.@.@.J y 0 q r c ( d.B.V.V.V.z.( c r q q y I @.@.@.^.^.t t e t t t e t ^.^.^.^.^.^.",
"^.^.^.^.^.^.g g g Z g g g g ^.^.K K Z | ..O.+.*.-.-.! v r q q c ` u.u.u.u.` c q q r x F -.<.-.@.^.^.x y y y y y y d ^.^.^.^.^.^.",
"^.^.^.^.^.^.t e t t t e e t ^.^.^.^.} } L ..+.-.i.x.c.7.v 0 q t x v v v v c r q 0 c ` d.N.N.<.@.@.+.I I I I I I I I ^.^.^.^.^.^.",
"^.^.^.^.^.^.p y y y y p y N ^.^.^.^.} } K P o.;.h.V.D.N.! t w q 0 q q q 0 q q w y F u.V.D.C.y.@.@.+.o.U @.@.@.@.*.@.^.^.^.^.^.^.",
"^.^.^.^.^.^.I I I I I I I U +.*.^.^.Z } } | O.;.h.m.V.x.=.V t q q q q q q q q t D =.h.m.B.m.^.^.*.U B B U *.@.@.@.@.^.^.^.^.^.^.",
"^.^.^.^.^.^.*.@.@.*.*.+.U U +.*.^.^.K L } | ..-.y.f.f.y.-.o.B y y y y y y y y B o.-.i.h.j.n.^.^.I D r y J *.@.@.@.@.^.^.^.^.^.^.",
"^.^.^.^.^.^.@.@.@.*.*.U B B U *.^.^.^.^.} K | ....X...#.+.+.U I I I I I I I I o.@.-.;.r.^.^.*.I B t w y I @.&.@.+.@.^.^.^.^.^.^.",
"^.^.^.^.^.^.@.@.@.@.@.I y t D U ^.^.^.^.s s f f Z K K | ..@.O.@.*.*.*.*.*.*.*.+.J H H F ^.^.*.o.B t q B $.;.o.o.;.y.^.^.^.^.^.^.",
"^.^.^.^.^.^.@.@.*.*.*.J y w t B I *.^.^.- - = 1 f K K L | |  ...@.*.*.*.*.*.*.) 8 ; ; ; ^.^.@.+.U V t v z.z.F Q z.S.^.^.^.^.^.^.",
"^.^.^.^.^.^.y.;.) o.<.$.x w t B o.*.^.^.% o X & u s f f s s s b F F F F H H H n ; . o % ^.^.*.@.+.I d A k.k.A A c.Y.^.^.^.^.^.^.",
"^.^.^.^.^.^.S.k.F H z.z.m t V U +.@.^.^.> : o X & - - - - - - - ; ; ; ; ; ; ; - . o : > ^.^.^.^. .K Z Q X.X.S S ^.^.^.^.^.^.^.^.",
"^.^.^.^.^.^.Y.c.A A k.k.A d P @.@.*.^.^.w q & % X   X X X . X X X       X X X X o * q w ^.^.^.^.K K K K K K K K ^.^.^.^.^.^.^.^.",
"^.^.^.^.^.^.^.^.Q Z X.X.Z Z }  .^.^.^.^.w q , : o   ^.^.^.^.^.^.^.^.^.^.^.^.  % : , q w ^.^.^.^.^.^.^.^.^.^.^.^.^.^.^.^.^.^.^.^.",
"^.^.^.^.^.^.^.^.} K K K } } } } ^.^.^.^.q w w , * % ^.^.^.^.^.^.^.^.^.^.^.^.X & , w q w ^.^.^.^.^.^.^.^.^.^.^.^.^.^.^.^.^.^.^.^.",
"^.^.^.^.^.^.^.^.^.^.^.^.^.^.^.^.^.^.^.^.q w w 0 , > ^.^.^.^.^.^.^.^.^.^.^.^.^.^.q q w q w q ^.^.^.^.^.^.^.^.^.^.^.^.^.^.^.^.^.^.",
"^.^.^.^.^.^.^.^.^.^.^.^.^.^.^.^.^.^.^.^.p y y y y y ^.^.^.^.^.^.^.^.^.^.^.^.^.^.y y y y y y ^.^.^.^.^.^.^.^.^.^.^.^.^.^.^.^.^.^.",
"^.^.^.^.^.^.^.^.^.^.^.^.^.^.^.^.^.^.@.+.U I I J U U ^.^.^.^.^.^.^.^.^.^.^.^.^.^.I J I I I I U @.^.^.^.^.^.^.^.^.^.^.^.^.^.^.^.^.",
"^.^.^.^.^.^.^.^.^.^.^.^.^.^.^.^.^.^.@.*.-.;.*.*.@.@.^.^.^.^.^.^.^.^.^.^.^.^.^.^.@.*.@.-.;.r.r.;.^.^.^.^.^.^.^.^.^.^.^.^.^.^.^.^.",
"^.^.^.^.^.^.^.^.^.^.^.^.^.^.^.^.@.@.@.;.i.i.-.*.@.@.^.^.^.^.^.^.^.^.^.^.^.^.^.^.@.@.@.;.i.h.h.f.^.^.^.^.^.^.^.^.^.^.^.^.^.^.^.^.",
"^.^.^.^.^.^.^.^.^.^.^.^.^.^.^.^.*.*.*.t.j.j.;.@.@.@.^.^.^.^.^.^.^.^.^.^.^.^.^.^.@.@.@.-.i.j.j.m.^.^.^.^.^.^.^.^.^.^.^.^.^.^.^.^.",
"^.^.^.^.^.^.^.^.^.^.^.^.^.^.^.^.*.-.i.h.j.h.-.@.^.^.^.^.^.^.^.^.^.^.^.^.^.^.^.^.^.^.@.@.;.y.j.m.m.m.^.^.^.^.^.^.^.^.^.^.^.^.^.^.",
"^.^.^.^.^.^.^.^.^.^.^.^.^.^.^.^.G $.h.m.j.i.;.@.^.^.^.^.^.^.^.^.^.^.^.^.^.^.^.^.^.^.@.@.@.-.i.f.u.t.^.^.^.^.^.^.^.^.^.^.^.^.^.^.",
"^.^.^.^.^.^.^.^.^.^.^.^.^.^.q w y F u.j.i.*.*.*.^.^.^.^.^.^.^.^.^.^.^.^.^.^.^.^.^.^.@.@.@.*.;.&.F c t 0 ^.^.^.^.^.^.^.^.^.^.^.^.",
"^.^.^.^.^.^.^.^.^.^.^.^.^.^.x y t B ` t.&.+._ ] ^.^.^.^.^.^.^.^.^.^.^.^.^.^.^.^.^.^.] _ +.+.U D y t y N ^.^.^.^.^.^.^.^.^.^.^.^.",
"^.^.^.^.^.^.^.^.^.^.^.^.@.+.U G Z C B D o._ ^ $ # + + + + + + + + + + + + + + + + # $ ^ _ I B p g Z G U +.@.^.^.^.^.^.^.^.^.^.^.",
"^.^.^.^.^.^.^.^.^.^.^.^.@.@.*.O. .Z e t I ] $ @ + + + + + # + + + + + + + + + + + + @ $ _ I y t g  .O.*.@.@.^.^.^.^.^.^.^.^.^.^.",
"^.^.^.^.^.^.^.^.^.^.^.^.^.^.^.^.^.^.^.^.^.^.^.^.^.^.^.^.^.^.^.^.^.^.^.^.^.^.^.^.^.^.^.^.^.^.^.^.^.^.^.^.^.^.^.^.^.^.^.^.^.^.^.^.",
"^.^.^.^.^.^.^.^.^.^.^.^.^.^.^.^.^.^.^.^.^.^.^.^.^.^.^.^.^.^.^.^.^.^.^.^.^.^.^.^.^.^.^.^.^.^.^.^.^.^.^.^.^.^.^.^.^.^.^.^.^.^.^.^."
};
