/* XPM */
static char *result[] = {
/* columns rows colors chars-per-pixel */
"64 64 172 2 ",
"   c #751625",
".  c #791626",
"X  c #771826",
"o  c #7D1A26",
"O  c #7D1B28",
"+  c #5F6367",
"@  c #5C6369",
"#  c #656465",
"$  c #746661",
"%  c #821C26",
"&  c #841E2A",
"*  c #8C2126",
"=  c #85222A",
"-  c #89232C",
";  c #8A2A2C",
":  c #932426",
">  c #9A2626",
",  c #9D2927",
"<  c #962B2F",
"1  c #972D31",
"2  c #8A3733",
"3  c #8B3A34",
"4  c #8B3E3A",
"5  c #913734",
"6  c #9F3033",
"7  c #933B35",
"8  c #9A3A32",
"9  c #933D3A",
"0  c #A32724",
"q  c #A42A26",
"w  c #A62F28",
"e  c #AA2E2B",
"r  c #A7322A",
"t  c #AB332C",
"y  c #AD3C2E",
"u  c #A23435",
"i  c #A43937",
"p  c #AD3A34",
"a  c #A43938",
"s  c #AE3A39",
"d  c #B23D31",
"f  c #B23D3A",
"g  c #B93F39",
"h  c #8C413E",
"j  c #994437",
"k  c #92433A",
"l  c #994F3E",
"z  c #9B453A",
"x  c #9A503E",
"c  c #AC4232",
"v  c #AF4A35",
"b  c #AF413A",
"n  c #A64838",
"m  c #AC4E3B",
"M  c #A34335",
"N  c #B14432",
"B  c #B44934",
"V  c #B84F37",
"C  c #B4433B",
"Z  c #BC453B",
"A  c #B24E3D",
"S  c #BB493E",
"D  c #B95037",
"F  c #B5563C",
"G  c #BB543A",
"H  c #B6593E",
"J  c #BB5C3E",
"K  c #C0463F",
"L  c #C14B3F",
"P  c #C1563E",
"I  c #C05D3E",
"U  c #C2613F",
"Y  c #8F4643",
"T  c #904946",
"R  c #9D5640",
"E  c #9D5B46",
"W  c #9B5F4C",
"Q  c #B75744",
"!  c #B65D42",
"~  c #BB5F40",
"^  c #8C6859",
"/  c #AC6C4C",
"(  c #B66343",
")  c #BC6040",
"_  c #B66B4C",
"`  c #BB7249",
"'  c #BB7C4F",
"]  c #A86A50",
"[  c #AC7C5C",
"{  c #BB7D52",
"}  c #C14740",
"|  c #C24D40",
" . c #C35241",
".. c #C45B44",
"X. c #C35E49",
"o. c #C56342",
"O. c #C86644",
"+. c #C66A44",
"@. c #C96D45",
"#. c #C4634B",
"$. c #C26C4B",
"%. c #C96F49",
"&. c #C47147",
"*. c #CB7046",
"=. c #C4734A",
"-. c #CA754A",
";. c #CA7A4C",
":. c #C76553",
">. c #C66D52",
",. c #C96E5A",
"<. c #C77D53",
"1. c #CA7C51",
"2. c #B78253",
"3. c #B98454",
"4. c #BD8B57",
"5. c #B78658",
"6. c #BB8D5A",
"7. c #BD835C",
"8. c #BE905A",
"9. c #B99465",
"0. c #BF9C69",
"q. c #BC9E72",
"w. c #BFA26D",
"e. c #BDA074",
"r. c #CC804E",
"t. c #C48451",
"y. c #CA8354",
"u. c #C38B55",
"i. c #CB8C55",
"p. c #CE8459",
"a. c #CB8D59",
"s. c #D08C5F",
"d. c #C6955D",
"f. c #CA945B",
"g. c #C69B5E",
"h. c #CC9B5C",
"j. c #CDA05F",
"k. c #C48B62",
"l. c #C59463",
"z. c #CA9660",
"x. c #CB9D61",
"c. c #C49968",
"v. c #CC9D68",
"b. c #CDA363",
"n. c #CDAA65",
"m. c #C4A06B",
"M. c #CBA46C",
"N. c #CDAD6B",
"B. c #CEB16C",
"V. c #CEAD72",
"C. c #CFAD79",
"Z. c #D6AA7F",
"A. c #CEB373",
"S. c #CFBA76",
"D. c #CFBE7B",
"F. c #D1BA75",
"G. c #D0BE78",
"H. c #D1B47A",
"J. c #C5AE84",
"K. c #C9B68C",
"L. c #D9B783",
"P. c #D9B883",
"I. c #CFC583",
"U. c #D3C986",
"Y. c #D9C28B",
"T. c #DCC592",
"R. c #DECB94",
"E. c #DBDA9A",
"W. c #E2E7A8",
"Q. c #E4EBAC",
"!. c #E5F1B3",
"~. c None",
/* pixels */
"~.~.~.~.~.~.~.~.~.~.~.~.~.~.~.~.~.~.~.~.~.~.~.~.~.~.~.~.~.~.~.~.~.~.~.~.~.~.~.~.~.~.~.~.~.~.~.~.~.~.~.~.~.~.~.~.~.~.~.~.~.~.~.~.",
"~.~.~.~.~.~.~.~.~.~.~.~.~.~.~.~.~.~.~.~.~.~.~.~.~.~.~.~.~.~.~.~.~.~.~.~.~.~.~.~.~.~.~.~.~.~.~.~.~.~.~.~.~.~.~.~.~.~.~.~.~.~.~.~.",
"~.~.~.~.~.~.~.~.~.~.~.~.~.~.~.~.~.~.~.~.~.~.~.~.~.~.~.~.@.@.@.@.@.@.@.@.~.~.~.~.~.~.~.~.~.~.~.~.~.~.~.~.~.~.~.~.~.~.~.~.~.~.~.~.",
"~.~.~.~.~.~.~.~.~.~.~.~.~.~.~.~.~.~.~.~.~.~.~.~.~.~.~.~.@.O.@.@.@.@.@.@.~.~.~.~.~.~.~.~.~.~.~.~.~.~.~.~.~.~.~.~.~.~.~.~.~.~.~.~.",
"~.~.~.~.~.~.~.~.~.~.~.~.~.~.~.~.~.~.~.~.~.~.~.~.~.~.@.@.@.O.@.@.O.@.@.@.@.@.~.~.~.~.~.~.~.~.~.~.~.~.~.~.~.~.~.~.~.~.~.~.~.~.~.~.",
"~.~.~.~.~.~.~.~.~.~.~.~.~.~.~.~.~.~.~.~.~.~.~.~.~.~.+.@.@.-.p.s.-.@.@.@.@.;.~.~.~.~.~.~.~.~.~.~.~.~.~.~.~.~.~.~.~.~.~.~.~.~.~.~.",
"~.~.~.~.~.~.~.~.~.~.~.~.~.~.~.~.~.~.~.~.~.~.~.~.K  .O.@.@.p.P.P.p.@.@.@.@.p.T.!.~.~.~.~.~.~.~.~.~.~.~.~.~.~.~.~.~.~.~.~.~.~.~.~.",
"~.~.~.~.~.~.~.~.~.~.~.~.~.~.~.~.~.~.~.~.~.~.~.~.K | ..o.O.p.P.H.p.O.O.O.o.1.Z.T.~.~.~.~.~.~.~.~.~.~.~.~.~.~.~.~.~.~.~.~.~.~.~.~.",
"~.~.~.~.~.~.~.~.~.~.~.~.~.~.~.~.~.~.~.~.~.~.~.~.K L |  .o.-.p.p.-.U U @.L ..:.,.~.~.~.~.~.~.~.~.~.~.~.~.~.~.~.~.~.~.~.~.~.~.~.~.",
"~.~.~.~.~.~.~.~.~.~.~.~.~.~.~.~.~.~.~.~.~.~.~.~.....X.#.1.y.1.y.s.s.s.p.>.X.....~.~.~.~.~.~.~.~.~.~.~.~.~.~.~.~.~.~.~.~.~.~.~.~.",
"~.~.~.~.~.~.~.~.~.~.~.~.~.~.~.~.~.~.~.~.~.~.~.~.a.a.a.z.M.V.V.H.Y.R.R.Y.C.v.f.u.~.~.~.~.~.~.~.~.~.~.~.~.~.~.~.~.~.~.~.~.~.~.~.~.",
"~.~.~.~.~.~.~.~.~.~.~.~.~.~.~.~.~.~.~.~.~.~.~.~.n.n.n.B.F.G.G.U.E.W.Q.W.E.U.F.B.~.~.~.~.~.~.~.~.~.~.~.~.~.~.~.~.~.~.~.~.~.~.~.~.",
"~.~.~.~.~.~.~.~.~.~.~.~.~.~.~.~.~.~.~.~.~.~.n.n.n.n.n.n.N.B.N.F.U.E.W.Q.W.E.U.S.N.b.~.~.~.~.~.~.~.~.~.~.~.~.~.~.~.~.~.~.~.~.~.~.",
"~.~.~.~.~.~.~.~.~.~.~.~.~.~.~.~.~.~.~.~.~.~.g.j.4.2.2.3.2.2.2.3.9.m.J.K.K.J.e.c.b.g.~.~.~.~.~.~.~.~.~.~.~.~.~.~.~.~.~.~.~.~.~.~.",
"~.~.~.~.~.~.~.~.~.~.~.~.~.~.I.D.B.h.;.F - k 4.4.x 2 3 3 3 2 2 3 4 h Y T T Y h E 8.4.4 - H *.@.;.f.N.D.I.~.~.~.~.~.~.~.~.~.~.~.~.",
"~.~.~.~.~.~.~.~.~.~.~.~.~.~.D.A.b.i.;.F ; 3 3.3.3     . & - & - - ; - ; ; =   2 2.8.E k m J +.-.i.b.A.D.~.~.~.~.~.~.~.~.~.~.~.~.",
"~.~.~.~.~.~.~.~.~.~.~.~.I.D.B.b.y.;.*.F ; 3 3.3.3     & 6 s s b F F F F F M = 2 { n.0.[ k 8 J -.;.i.b.A.D.I.~.~.~.~.~.~.~.~.~.~.",
"~.~.~.~.~.~.~.~.~.~.~.~.D.A.b.i.-.@.O.A - 3 3.4.z & & < Z | | ..O.*.@.*.*.J 8 j { n.G.w.W k m H o.*.i.b.A.D.~.~.~.~.~.~.~.~.~.~.",
"~.~.~.~.~.~.~.~.~.~.~.~.N.b.i.-.*.O...C & 3 3.d.Q s s C ..O.O.O.@.@.@.*.@.+.J ) &.i.b.N.w.[ k 6 C ..@.i.b.N.~.~.~.~.~.~.~.~.~.~.",
"~.~.~.~.~.~.~.~.~.~.~.~.h.i.-.+.O...C u 5 l ' t.o. . . .O.@.@.@.@.@.@.@.@.@.*.@.+.-.i.b.F.w.W 9 i C  .%.y.f.~.~.~.~.~.~.~.~.~.~.",
"~.~.~.~.~.~.~.~.~.~.~.~.;.;.*.O...C < 5 / { $...o.O.o.+.@.@.@.@.@.@.@.@.@.@.@.@.@.@.-.y.b.N.m.[ k < C  ...X.~.~.~.~.~.~.~.~.~.~.",
"~.~.~.~.~.~.~.~.~.~.~.~.O.O.O...C u 5 R { y.#. .O.*.@.@.@.@.@.@.@.@.@.@.@.@.@.@.@.@.@.-.i.b.G.9.4 % 6 s f f ~.~.~.~.~.~.~.~.~.~.",
"~.~.~.~.~.~.~.~.~.~.~.~.P L  .C < 5 / { $...o.O.O.*.@.@.@.@.*.*.*.*.@.*.@.-.*.@.@.@.@.@.-.i.n.6.4 . % - - & ~.~.~.~.~.~.~.~.~.~.",
"~.~.~.~.~.~.~.~.~.~.~.~.p f s u 8 T { 1...L o.@.@.@.+.@.@.+.U ) I I I J I I I U +.@.@.+.O.-.i.2.7 X X X X X ~.~.~.~.~.~.~.~.~.~.",
"~.~.~.~.~.~.~.~.~.~.X O & - - 5 / { $...L | O.@.@.@.+.@.*.U B y y y y y y y y B U &.@.@.O.*.;.=.~.~.X X X X X . ~.~.~.~.~.~.~.~.",
"~.~.~.~.~.~.~.~.~.~.X X X     k 4.f.X.} L  .O.*.;.;.y.;.+.D t q q q q q q q q t V +.-.;.y.;.*.@.~.~.X o o % % % ~.~.~.~.~.~.~.~.",
"~.~.~.~.~.~.~.~.X X X X X   ~.~.b.f.X.K ..O.@.-.i.b.N.l.H t q q q q q q q q q r t V t.b.N.v.1.@.~.~.~.~.> > > , q q ~.~.~.~.~.~.",
"~.~.~.~.~.~.~.~.% % % % o X ~.~.f.<...| o.@.@.;.f.B.D.c.m q q r c v B v v c r q 0 v u.B.D.N.1.O.~.~.~.~.y y y y p y ~.~.~.~.~.~.",
"~.~.~.~.~.~.q q > > > > ~.~.~.~.X...| | O.@.@.;.h.n.B.u.v q 0 c ` u.u.u.u.` c 0 0 v u.n.B.b.;.@.~.~.~.~.J I U I U D y q ~.~.~.~.",
"~.~.~.~.~.~.y y y y y y ~.~.~.~.K K K | O.@.@.-.a.f.u.` c r c J t.h.h.h.h.u.J y r c ` u.f.i.-.@.~.~.~.~.*.*.@.*.*.U B y ~.~.~.~.",
"~.~.~.~.q y D I I I ..I ~.~.~.~.K } } | o.@.@.-.;.&.F c r c ` u.r.;.;.;.;.;.u.` c r c F $.;.*.@.~.~.~.~.@.@.@.@.@.O.U J ~.~.~.~.",
"~.~.~.~.y B o.@.@.*.*.*.~.~.~.~.K Z K | o.@.@.@.*.J y 0 q v u.j.i.y.1.y.y.i.b.4.B 0 0 y J @.@.@.~.~.~.~.*.*.+.*.@.*.*.*.~.~.~.~.",
"~.~.~.~.J o.@.@.@.@.@.@.~.~.~.~.} } K P O.@.@.@.@.I y 0 0 v u.n.N.V.V.V.V.A.n.4.v q q t I *.@.@.~.~.~.~.@.@.@.@.@.@.%.@.~.~.~.~.",
"~.~.~.~.@.@.@.@.@.*.@.@.~.~.~.~.} Z K  .O.*.@.*.@.J y q q v u.B.D.I.I.I.I.P.B.u.v q q y ) @.*.@.~.~.~.~.o.O.O.o.O.O.o.O.~.~.~.~.",
"~.~.~.~.@.*.@.@.*.@.@.@.~.~.~.~.} K K | o.@.@.@.*.I y q 0 v u.B.G.I.I.I.I.D.B.u.B q 0 y I @.@.@.~.~.~.~. . .|  . .|  . .~.~.~.~.",
"~.~.~.~.O.O.o.O.O.O.o.O.~.~.~.~.Z } L L O.@.@.@.@.I y 0 q c ` d.A.D.D.D.D.A.d.` c 0 q y I @.@.@.~.~.~.~.g g g g g g g g ~.~.~.~.",
"~.~.~.~. . .|  . . .|  .~.~.~.~.} } Z | o.@.@.@.@.I y 0 q r c ( d.N.B.B.B.d.( c r q q y I @.@.@.~.~.~.~.t t t t e t t t ~.~.~.~.",
"~.~.~.~.g g g g g g g g ~.~.~.~.} } } | ..@.@.*.-.=.H v r q q c ` u.u.t.u.` c q q r c F =.1.-.@.~.~.~.~.d y y y p y y y ~.~.~.~.",
"~.~.~.~.t t e t t t t r ~.~.~.~.~.~.} | L  .O.;.i.x.m.7.v q q r c v v v v c r q q c ` d.M.v.;.@.~.~.@.+.o.J I I I I I I ~.~.~.~.",
"~.~.~.~.y y p y y y y p ~.~.~.~.~.~.} Z K P U ;.h.N.G.M.! t r q q q q q q q q q t H u.B.G.V.i.O.~.~.@.@.U U @.@.*.@.@.%.~.~.~.~.",
"~.~.~.~.I I I I I I I U +.@.~.~.~.~.} K K  .o.;.h.N.B.x.&.V t q q q q q q q q t D &.f.n.n.N.~.~.~.~.*.U B B o.%.@.@.@.@.~.~.~.~.",
"~.~.~.~.@.*.*.@.@.@.U O.+.@.~.~.~.~.} } K | ..-.y.a.a.i.-.o.B y y y y y y y y B O.;.i.h.b.b.~.~.~.~.U D t t I @.@.@.@.+.~.~.~.~.",
"~.~.~.~.@.@.@.@.@.U B B U *.~.~.~.~.~.~.Q | |  .X.X.X.o.@.+.o.I I I J I I I J o.O.-.;.r.~.~.~.~.*.U B t r y I @.*.@.@.@.~.~.~.~.",
"~.~.~.~.@.@.@.@.@.I y t D U ~.~.~.~.~.~.s s s g g } } | ..O.O.O.@.*.*.*.@.*.*.@.) H H H ~.~.~.~.@.U B t q c &.1.+.o.;.y.~.~.~.~.",
"~.~.~.~.@.@.@.@.@.J y q t N I @.~.~.~.~.& & & 6 f K K | | |  ...@.*.@.*.*.*.*.) 8 ; ; ; ~.~.~.~.@.+.o.V t m k.l.Q F l.A.~.~.~.~.",
"~.~.~.~.y.;.o.+.1.&.c w t B o.@.~.~.~.~.% % . & u f f s f s s b D F H F H H H n - o o % ~.~.~.~.@.@.@.G d Z k.k.A A c.U.~.~.~.~.",
"~.~.~.~.V.l.F Q l.l.m t D o.+.@.~.~.~.~.> : o o % - - - - - - - ; ; ; ; ; ; ; - X O : > ~.~.~.~.~.~. .| g Q X. .Z S ~.~.~.~.~.~.",
"~.~.~.~.U.c.A m k.k.A d I +.@.@.~.~.~.~.e q & o X   X X X X X X X X X   X X X . O * , r ~.~.~.~.~.~.K Q } } } K K Q ~.~.~.~.~.~.",
"~.~.~.~.~.~.Q Z X.X.S Z |  .~.~.~.~.~.~.q w , : O X ~.~.~.~.~.~.~.~.~.~.~.~.  % : q q q ~.~.~.~.~.~.~.~.~.~.~.~.~.~.~.~.~.~.~.~.",
"~.~.~.~.~.~.K K K K } } K K ~.~.~.~.~.~.q q w , * % ~.~.~.~.~.~.~.~.~.~.~.~.X & > w q r ~.~.~.~.~.~.~.~.~.~.~.~.~.~.~.~.~.~.~.~.",
"~.~.~.~.~.~.~.~.~.~.~.~.~.~.~.~.~.~.~.~.q q q q , > ~.~.~.~.~.~.~.~.~.~.~.~.~.~.q q q q r q ~.~.~.~.~.~.~.~.~.~.~.~.~.~.~.~.~.~.",
"~.~.~.~.~.~.~.~.~.~.~.~.~.~.~.~.~.~.~.~.N y y y y y ~.~.~.~.~.~.~.~.~.~.~.~.~.~.y c y y y N ~.~.~.~.~.~.~.~.~.~.~.~.~.~.~.~.~.~.",
"~.~.~.~.~.~.~.~.~.~.~.~.~.~.~.~.~.~.*.+.I I I I U I ~.~.~.~.~.~.~.~.~.~.~.~.~.~.U I U J J U U U ~.~.~.~.~.~.~.~.~.~.~.~.~.~.~.~.",
"~.~.~.~.~.~.~.~.~.~.~.~.~.~.~.~.~.~.@.*.;.;.-.@.@.@.~.~.~.~.~.~.~.~.~.~.~.~.~.~.@.@.@.*.;.;.r.;.~.~.~.~.~.~.~.~.~.~.~.~.~.~.~.~.",
"~.~.~.~.~.~.~.~.~.~.~.~.~.~.~.~.@.+.@.;.i.i.;.*.@.@.~.~.~.~.~.~.~.~.~.~.~.~.~.~.*.@.@.;.a.j.h.h.~.~.~.~.~.~.~.~.~.~.~.~.~.~.~.~.",
"~.~.~.~.~.~.~.~.~.~.~.~.~.~.~.~.@.*.-.r.j.h.;.@.@.@.~.~.~.~.~.~.~.~.~.~.~.~.~.~.@.O.@.;.i.j.j.j.~.~.~.~.~.~.~.~.~.~.~.~.~.~.~.~.",
"~.~.~.~.~.~.~.~.~.~.~.~.~.~.~.~.@.-.i.h.n.h.;.@.~.~.~.~.~.~.~.~.~.~.~.~.~.~.~.~.~.~.@.@.;.y.j.n.b.n.~.~.~.~.~.~.~.~.~.~.~.~.~.~.",
"~.~.~.~.~.~.~.~.~.~.~.~.~.~.~.~.G ` h.b.h.i.-.O.~.~.~.~.~.~.~.~.~.~.~.~.~.~.~.~.~.~.@.@.O.;.i.f.u.t.~.~.~.~.~.~.~.~.~.~.~.~.~.~.",
"~.~.~.~.~.~.~.~.~.~.~.~.~.~.q q y F u.h.i.-.*.@.~.~.~.~.~.~.~.~.~.~.~.~.~.~.~.~.~.~.@.@.@.-.;.&.F c r 0 ~.~.~.~.~.~.~.~.~.~.~.~.",
"~.~.~.~.~.~.~.~.~.~.~.~.~.~.N y t B ` t.-.+._ ] ~.~.~.~.~.~.~.~.~.~.~.~.~.~.~.~.~.~.] _ +.O.U D d t y N ~.~.~.~.~.~.~.~.~.~.~.~.",
"~.~.~.~.~.~.~.~.~.~.~.~.@.+.U G Z C B V O._ ^ $ # @ + + + + + + + + + + + + + + @ # $ ^ ` I B p d Z G o.O.*.~.~.~.~.~.~.~.~.~.~.",
"~.~.~.~.~.~.~.~.~.~.~.~.@.@.*.O. .g e y I / $ @ @ # + + @ # + + + + + + + + + + # @ @ $ _ I y t Z  .O.@.@.@.~.~.~.~.~.~.~.~.~.~.",
"~.~.~.~.~.~.~.~.~.~.~.~.~.~.~.~.~.~.~.~.~.~.~.~.~.~.~.~.~.~.~.~.~.~.~.~.~.~.~.~.~.~.~.~.~.~.~.~.~.~.~.~.~.~.~.~.~.~.~.~.~.~.~.~.",
"~.~.~.~.~.~.~.~.~.~.~.~.~.~.~.~.~.~.~.~.~.~.~.~.~.~.~.~.~.~.~.~.~.~.~.~.~.~.~.~.~.~.~.~.~.~.~.~.~.~.~.~.~.~.~.~.~.~.~.~.~.~.~.~."
};
