/* XPM */
static char *result[] = {
/* columns rows colors chars-per-pixel */
"64 64 177 2 ",
"   c #761625",
".  c #791625",
"X  c #771826",
"o  c #7D1A26",
"O  c #7C1D29",
"+  c #5F6367",
"@  c #5C6369",
"#  c #656465",
"$  c #746661",
"%  c #821C26",
"&  c #851E2A",
"*  c #8C2026",
"=  c #85222A",
"-  c #89232B",
";  c #8A2A2C",
":  c #922326",
">  c #9A2626",
",  c #9C2826",
"<  c #94272F",
"1  c #962C2F",
"2  c #94302E",
"3  c #972D31",
"4  c #853030",
"5  c #8A3733",
"6  c #8B3934",
"7  c #8B3D39",
"8  c #983731",
"9  c #923A35",
"0  c #9A3B32",
"q  c #923C3A",
"w  c #A32724",
"e  c #A42A25",
"r  c #A62F28",
"t  c #AA2E2B",
"y  c #A6332A",
"u  c #AB332C",
"i  c #A6392E",
"p  c #AD3C2E",
"a  c #A13335",
"s  c #A43837",
"d  c #AC3B32",
"f  c #AE3A39",
"g  c #A53A39",
"h  c #B23D31",
"j  c #B33D3A",
"k  c #B93F39",
"l  c #8C413D",
"z  c #93423B",
"x  c #9B463A",
"c  c #9A4739",
"v  c #9A503E",
"b  c #AC4232",
"n  c #AF4B35",
"m  c #AF413A",
"M  c #A64838",
"N  c #AD4E3B",
"B  c #A34335",
"V  c #B14432",
"C  c #B44934",
"Z  c #B84F37",
"A  c #B4433A",
"S  c #BC453B",
"D  c #B24E3D",
"F  c #BB493E",
"G  c #B95037",
"H  c #B5563C",
"J  c #BB543A",
"K  c #B5593E",
"L  c #BA5B3E",
"P  c #C0463F",
"I  c #C14B3F",
"U  c #C1563E",
"Y  c #C05D3E",
"T  c #C2613F",
"R  c #8F4643",
"E  c #904946",
"W  c #9D5640",
"Q  c #9C5B46",
"!  c #9B5F4C",
"~  c #B75744",
"^  c #B65D42",
"/  c #BB5F40",
"(  c #9B604C",
")  c #8C6859",
"_  c #AD6D4C",
"`  c #B66343",
"'  c #BC6040",
"]  c #BB6A46",
"[  c #B66B4C",
"{  c #BB7148",
"}  c #BB7C4F",
"|  c #A86A50",
" . c #AC7B5C",
".. c #BB7D52",
"X. c #B27D51",
"o. c #C14740",
"O. c #C24D40",
"+. c #C35241",
"@. c #C45B44",
"#. c #C25D49",
"$. c #C56442",
"%. c #C86544",
"&. c #C66A44",
"*. c #C96D45",
"=. c #C4634B",
"-. c #C26B4B",
";. c #C86F49",
":. c #C47147",
">. c #CB7046",
",. c #C4734A",
"<. c #CA764A",
"1. c #CA7A4C",
"2. c #C76B55",
"3. c #CA7C51",
"4. c #C77D53",
"5. c #B78253",
"6. c #B88555",
"7. c #BD8956",
"8. c #B78658",
"9. c #BC8D59",
"0. c #BD835C",
"q. c #BE905B",
"w. c #B89163",
"e. c #BD9B69",
"r. c #BC9E72",
"t. c #BFA26D",
"y. c #BDA074",
"u. c #CB814F",
"i. c #C48451",
"p. c #CA8354",
"a. c #C38B55",
"s. c #CB8C55",
"d. c #CE8459",
"f. c #CA8D5A",
"g. c #D08C5F",
"h. c #C6945C",
"j. c #CA935B",
"k. c #C6985F",
"l. c #CC9B5C",
"z. c #CDA05F",
"x. c #C48B62",
"c. c #C59463",
"v. c #CA9660",
"b. c #CB9D63",
"n. c #C49968",
"m. c #CC9D68",
"M. c #CDA363",
"N. c #CDAA65",
"B. c #C4A16B",
"V. c #CBA46C",
"C. c #CDAD6B",
"Z. c #CEB16C",
"A. c #D1B067",
"S. c #CDAE71",
"D. c #CFAD79",
"F. c #D6AA7F",
"G. c #CEB374",
"H. c #CFBB76",
"J. c #CFBE7B",
"K. c #D1BA75",
"L. c #D0BE78",
"P. c #D1B47A",
"I. c #CFC07C",
"U. c #C5AE84",
"Y. c #C9B68C",
"T. c #D9B783",
"R. c #D9B883",
"E. c #CFC583",
"W. c #D3C986",
"Q. c #D9C28B",
"!. c #DCC592",
"~. c #DECB94",
"^. c #DBDA9A",
"/. c #E2E7A8",
"(. c #E4EBAC",
"). c #E5F1B3",
"_. c None",
/* pixels */
"_._._._._._._._._._._._._._._._._._._._._._._._._._._._._._._._._._._._._._._._._._._._._._._._._._._._._._._._._._._._._._._._.",
"_._._._._._._._._._._._._._._._._._._._._._._._._._._._._._._._._._._._._._._._._._._._._._._._._._._._._._._._._._._._._._._._.",
"_._._._._._._._._._._._._._._._._._._._._._._._._._._._._._._._._._._._._._._._._._._._._._._._._._._._._._._._._._._._._._._._.",
"_._._._._._._._._._._._._._._._._._._._._._._._._._._._._._._._._._._._._._._._._._._._._._._._._._._._._._._._._._._._._._._._.",
"_._._._._._._._._._._._._._._._._._._._._._._._._._._._.*.*.*.*.*.*.*.*._._._._._._._._._._._._._._._._._._._._._._._._._._._._.",
"_._._._._._._._._._._._._._._._._._._._._._._._._._._._.*.*.*.*.*.*.*.*._._._._._._._._._._._._._._._._._._._._._._._._._._._._.",
"_._._._._._._._._._._._._._._._._._._._._._._._._._.*.*.*.*.&.&.*.*.*.*.*.%._._._._._._._._._._._._._._._._._._._._._._._._._._.",
"_._._._._._._._._._._._._._._._._._._._._._._._._._.%.>.*.<.d.d.1.%.*.*.*.1._._._._._._._._._._._._._._._._._._._._._._._._._._.",
"_._._._._._._._._._._._._._._._._._._._._._._._.P +.%.*.&.d.R.R.d.&.*.*.%.g.!.)._._._._._._._._._._._._._._._._._._._._._._._._.",
"_._._._._._._._._._._._._._._._._._._._._._._._.P I @.%.T d.T.T.d.&.*.T $.3.T.R._._._._._._._._._._._._._._._._._._._._._._._._.",
"_._._._._._._._._._._._._._._._._._._._._._._._.P P O.+.%.<.d.d.<.T T T +.@.2.2._._._._._._._._._._._._._._._._._._._._._._._._.",
"_._._._._._._._._._._._._._._._._._._._._._._._.@.@.@.%.3.p.4.p.g.g.g.g.2.#.#.+._._._._._._._._._._._._._._._._._._._._._._._._.",
"_._._._._._._._._._._._._._._._._._._._._._._._.j.s.f.v.V.D.S.P.Q.~.~.R.P.m.j.a._._._._._._._._._._._._._._._._._._._._._._._._.",
"_._._._._._._._._._._._._._._._._._._._._._._._.N.N.N.C.H.J.I.W.^.(.(./.^.W.H.C._._._._._._._._._._._._._._._._._._._._._._._._.",
"_._._._._._._._._._._._._._.E.J.Z.l.1.*.*.1.l.N.N.N.N.N.C.Z.A.K.W.^./.(./.^.W.J.S.j.1.*.*.*.&.1.j.C.L.E._._._._._._._._._._._._.",
"_._._._._._._._._._._._._._.J.G.M.s.<.&.L ] a.z.9.5.5.5.5.5...8.h.r.U.Y.Y.U.y.n.V.h.] L &.*.*.<.s.M.K.L._._._._._._._._._._._._.",
"_._._._._._._._._._._._.E.J.Z.M.p.<.>.^ 0 c 7.9.W 5 5 5 5 5 5 7 7 l l E E R l Q q.6.c 8 L *.*.;.1.s.b.Z.J.E._._._._._._._._._._.",
"_._._._._._._._._._._._.J.G.M.s.<.*.*.H ; 5 6.6.5     . & & = - - ; ; ; ; =   5 6.q.Q z N L %.%.%.1.s.M.G.J._._._._._._._._._._.",
"_._._._._._._._._._._._.C.M.s.<.>.*.>.H ; 6 6.6.6     & a f f A H H H H H B = 5 6.N.B. .z 3 A @.%.*.1.s.M.C._._._._._._._._._._.",
"_._._._._._._._._._._._.l.s.<.&.$.%.%.H - 6 6.9.x & = 3 S +.O.+.&.>.*.>.>.L 8 c ..M.K.t.! q s A @.%.%.;.p.j._._._._._._._._._._.",
"_._._._._._._._._._._._.1.1.>.%.+.O.U m - 5 6.h.~ f f A @.%.$.&.&.*.*.*.>.&.L L ,.s.M.C.e. .q < A I I +.@.$._._._._._._._._._._.",
"_._._._._._._._._._._._.%.%.%.@.O.S j s 9 v ..4.$.+.O.+.$.>.*.*.*.*.*.*.*.*.>.*.*.<.s.M.L.B.! q s j j f f j _._._._._._._._._._.",
"_._._._._._._._._._._._.U O.+.O.O.k < 9 _ ..-.@.$.%.%.$.*.*.*.*.*.*.*.*.*.*.>.*.*.>.>.s.M.C.B. .z & - - - - _._._._._._._._._._.",
"_._._._._._._._._._._._.f j f f f s 9 v ..d.@.U $.>.*.*.*.*.>.*.*.*.*.*.*.*.*.*.*.*.%.,.s.M.L.e.l           _._._._._._._._._._.",
"_._._._._._._._._._.X O & - - - & 9 _ ..-.#.$.%.%.*.*.*.*.*.*.>.>.>.>.>.*.>.>.*.*.*.*.*.,.s.N.9.6     X   X X X _._._._._._._._.",
"_._._._._._._._._._.X X X X   O 4 v ..4.@.I %.*.*.*.%.*.*.&.T L Y Y Y Y Y Y L $.*.*.*.&.&.<.s.5.q     o o % % & _._._._._._._._.",
"_._._._._._._._.    X X X X _._.X...-.@.I O.$.*.*.*.*.*.*.$.C p p p p p p p p C T >.*.&.&.*.1.:._._._._.> > > > e e _._._._._._.",
"_._._._._._._._.& % % % X   _._.A.j.@.o.I U %.>.1.1.p.1.&.G p e e e e e e e e u G $.<.1.p.1.>.*._._._._.p p p p d p _._._._._._.",
"_._._._._._.e e > > , > _._._._.C.f.#.I @.$.&.1.s.M.C.c.K u r e e e e e e e e y u G i.M.C.m.1.&._._._._.Y Y T Y Y G p e _._._._.",
"_._._._._._.p p p p p p _._._._.j.4.@.O.$.*.*.1.l.C.I.n.H e , y b n n n C b y e w n a.Z.L.C.p.&._._._._.*.>.*.>.>.T C p _._._._.",
"_._._._.e p G Y Y Y Y Y _._._._.#.+.O.+.%.*.%.1.l.N.Z.h.n w w b { a.a.a.a.{ b w e n a.C.Z.b.1.*._._._._.>.*.>.*.*.*.T L _._._._.",
"_._._._.p C $.*.>.>.>.*._._._._.P P o.O.%.*.*.1.s.j.a.{ b y p K a.l.l.M.N.h.` b r b { f.j.s.1.*._._._._.*.*.*.*.*.*.>.>._._._._.",
"_._._._.L T %.*.*.*.*.*._._._._.P o.P +.$.*.*.>.1.:.H b r b { a.u.1.<.s.S.G.k.{ b y d H :.<.>.*._._._._.*.*.*.*.*.*.;.*._._._._.",
"_._._._.>.>.>.*.*.>.*.*._._._._.P S P O.$.>.*.*.*.T u w e n a.l.1.*.3.j.P.J.Z.a.n w w p L >.*.*._._._._.$.%.%.%.$.%.%.%._._._._.",
"_._._._.*.>.;.*.>.*.*.*._._._._.P o.o.+.$.*.*.>.*.L p e e n a.l.1.1.m.P.J.J.Z.a.n w w p Y *.*.*._._._._.O.+.+.+.+.+.+.O._._._._.",
"_._._._.%.%.%.%.%.%.$.%._._._._.P P S +.$.>.*.*.>.Y p e e n a.z.s.j.D.E.E.J.C.a.n e e p Y *.>.*._._._._.k k k k k k k k _._._._.",
"_._._._.+.+.+.O.+.+.+.~ _._._._.I S o.O.%.*.*.*.*.Y p e e C a.N.S.G.I.E.E.J.Z.a.C e e p Y *.*.*._._._._.u u u u u t u u _._._._.",
"_._._._.k k k k k k k k _._._._.P P o.+.$.*.*.>.*.Y p e e b { k.G.I.J.J.J.G.h.{ b e e p Y >.*.*._._._._.h p p p p p d p _._._._.",
"_._._._.u t u t u u t t _._._._.o.o.o.O.%.*.*.*.*.Y u e e y b ` c.Z.Z.C.Z.k.` b y e e p Y *.*.*._._.*.&.$.L Y Y Y Y Y Y _._._._.",
"_._._._.p p p p p p p h _._._._.I o.S O.@.&.*.>.1.:.K n i w w b { a.a.a.a.] b e e y b K ,.4.>.*._._.*.*.T T *.*.*.*.>.*._._._._.",
"_._._._.Y Y Y Y Y Y Y T *.>._._._._.o.o.O.+.%.1.s.l.B.0.n w e y b n n n n b u w e b { h.C.m.3.*._._.>.T C C $.*.>.*.>.*._._._._.",
"_._._._.*.>.>.*.*.*.T T &.*._._._._.o.o.S +.$.1.l.Z.I.V.^ u r e e e e w e e e r u K a.Z.H.S.p.%._._.T G u p L *.*.*.*.*._._._._.",
"_._._._.*.*.*.*.>.T C C T >._._._._.P S I I %.1.l.N.Z.b.,.G u e e e e e e e e u G :.l.N.C.N._._.*.T C u e p Y *.>.&.%.%._._._._.",
"_._._._.*.*.*.*.>.L p u G T _._._._.I P P +.@.>.p.f.j.p.1.T C p p p p p p p p C T u.s.l.z.N._._.*.T C u e V ;.4.&.&.3.p._._._._.",
"_._._._.*.*.*.*.%.L p e u C Y *._._._._.o.o.+.+.@.#.@.=.*.&.$.Y T Y Y Y Y Y L $.*.>.1.u._._._._.*.&.$.Z t D x.v.H H c.G._._._._.",
"_._._._.p.1.&.&.3.{ A e u C $.;._._._._.f f f k S P o.O.@.%.%.%.*.>.>.>.>.>.*.&.T K K K _._._._.*.*.%.J t ~ x.x.D D n.W._._._._.",
"_._._._.P.x.H H c.c.D u G T &.*._._._._.; - - 3 j P P o.U O.+.@.&.>.>.>.>.>.>.T 0 ; ; ; _._._._._._.+.+.k ~ #.@.~ S _._._._._._.",
"_._._._.W.n.N D f.x.H h L %.*.*._._._._.% X   = a j j f f j f j H H H K K K L M = X o o _._._._._._.o.P o.P P P o.P _._._._._._.",
"_._._._._._.F F #.#.~ k P +._._._._._._.> : o o = ; - - ; & - - ; ; ; ; ; ; ; ; O o : , _._._._._._._._._._._._._._._._._._._._.",
"_._._._._._.o.o.o.S o.o.P P _._._._._._.e , * o X         X X X X   X         X o * , e _._._._._._._._._._._._._._._._._._._._.",
"_._._._._._._._._._._._._._._._._._._._.e e , : o   _._._._._._._._._._._._.  o : , e e e e _._._._._._._._._._._._._._._._._._.",
"_._._._._._._._._._._._._._._._._._._._.V p p i 2 ; _._._._._._._._._._._._.  - i p p p p V _._._._._._._._._._._._._._._._._._.",
"_._._._._._._._._._._._._._._._._._.*.&.T Y Y Y L K _._._._._._._._._._._._._._.L Y Y Y L T T >._._._._._._._._._._._._._._._._.",
"_._._._._._._._._._._._._._._._._._.*.>.<.1.>.>.;.*._._._._._._._._._._._._._._.*.*.*.>.1.u.1.1._._._._._._._._._._._._._._._._.",
"_._._._._._._._._._._._._._._._.*.*.&.<.s.s.1.>.*.*._._._._._._._._._._._._._._.>.*.*.1.s.z.l.j._._._._._._._._._._._._._._._._.",
"_._._._._._._._._._._._._._._._.*.>.<.s.z.l.u.T *.*._._._._._._._._._._._._._._.*.*.%.1.s.l.z.N._._._._._._._._._._._._._._._._.",
"_._._._._._._._._._._._._._._._.>.1.s.z.M.l.1.*._._._._._._._._._._._._._._._._._._.*.>.<.p.z.N.N.N._._._._._._._._._._._._._._.",
"_._._._._._._._._._._._._._._._.J -.l.z.l.s.<.*._._._._._._._._._._._._._._._._._._.*.*.*.1.s.j.a.i._._._._._._._._._._._._._._.",
"_._._._._._._._._._._._._._.e r p H a.z.s.<.>.>._._._._._._._._._._._._._._._._._._.*.*.*.*.1.:.H b y w _._._._._._._._._._._._.",
"_._._._._._._._._._._._._._.p p u C { i.:.&.[ | _._._._._._._._._._._._._._._._._._.| [ *.&.T G h y p V _._._._._._._._._._._._.",
"_._._._._._._._._._._._.*.&.T U S A V G $.[ ) $ # @ + + + + + + # @ + + # + + + + # $ ) [ T C h h S U T &.*._._._._._._._._._._.",
"_._._._._._._._._._._._.*.>.*.%.+.k t p Y _ $ @ @ # + + + + + + @ @ # + @ + + + + + @ $ [ Y u y k +.%.>.*.*._._._._._._._._._._.",
"_._._._._._._._._._._._._._._._._._._._._._._._._._._._._._._._._._._._._._._._._._._._._._._._._._._._._._._._._._._._._._._._.",
"_._._._._._._._._._._._._._._._._._._._._._._._._._._._._._._._._._._._._._._._._._._._._._._._._._._._._._._._._._._._._._._._."
};
