/* XPM */
static char *result[] = {
/* columns rows colors chars-per-pixel */
"64 64 140 2 ",
"   c #0F121B",
".  c #11141D",
"X  c #141720",
"o  c #151821",
"O  c #191C27",
"+  c #1A1E29",
"@  c #1D222D",
"#  c #1F2530",
"$  c #212633",
"%  c #232935",
"&  c #242A39",
"*  c #292E3F",
"=  c #29313E",
"-  c #007C00",
";  c #00761C",
":  c #03781F",
">  c #057721",
",  c #057A20",
"<  c #087E22",
"1  c #292F40",
"2  c #2A3142",
"3  c #2E3549",
"4  c #30374C",
"5  c #323B4D",
"6  c #343E52",
"7  c #374156",
"8  c #384357",
"9  c #374258",
"0  c #394459",
"q  c #3C495B",
"w  c #3F4D62",
"e  c #45444B",
"r  c #474B55",
"t  c #414E62",
"y  c #435264",
"u  c #465669",
"i  c #48576A",
"p  c #49596C",
"a  c #555764",
"s  c #555C6E",
"d  c #595C6C",
"f  c #4E5F72",
"g  c #4F6174",
"h  c #516376",
"j  c #5F6474",
"k  c #536579",
"l  c #57687A",
"z  c #606575",
"x  c #058405",
"c  c #0D8C0D",
"v  c #0D820C",
"b  c #06971B",
"n  c #07981B",
"m  c #0F8625",
"M  c #0F8F23",
"N  c #108726",
"B  c #118A26",
"V  c #138B28",
"C  c #1D972D",
"Z  c #1F992E",
"A  c #1D8D30",
"S  c #2A8B28",
"D  c #349B32",
"F  c #21A121",
"G  c #2DAF2E",
"H  c #24BB2A",
"J  c #2DBD2F",
"K  c #26A131",
"L  c #2EAE35",
"P  c #30AE36",
"I  c #31AE38",
"U  c #2EB234",
"Y  c #34BE35",
"T  c #35B23A",
"R  c #3AB439",
"E  c #37BE38",
"W  c #3EBE3E",
"Q  c #40BF3F",
"!  c #0AD511",
"~  c #0FEF0F",
"^  c #00FF00",
"/  c #0CF20C",
"(  c #15E516",
")  c #1AE41A",
"_  c #2FCE2F",
"`  c #22DC22",
"'  c #30D02F",
"]  c #33CB33",
"[  c #3BC23B",
"{  c #40C03F",
"}  c #549D50",
"|  c #41BD40",
" . c #4FB353",
".. c #56BD54",
"X. c #5BBF58",
"o. c #40C140",
"O. c #4DCD4A",
"+. c #59C057",
"@. c #5DC15A",
"#. c #60C15E",
"$. c #64C161",
"%. c #77C072",
"&. c #7AC275",
"*. c #7DC278",
"=. c #667282",
"-. c #6B7584",
";. c #6F7A89",
":. c #737380",
">. c #727D8B",
",. c #868C97",
"<. c #929096",
"1. c #97969F",
"2. c #A59D9F",
"3. c #8DB986",
"4. c #95B98D",
"5. c #99B290",
"6. c #98BA90",
"7. c #9C9DA5",
"8. c #A79EA0",
"9. c #A89FA1",
"0. c #ADA6AB",
"q. c #B1A9AE",
"w. c #B4AEB2",
"e. c #B6B1B5",
"r. c #B8B3B7",
"t. c #B9B4B8",
"y. c #94C98D",
"u. c #97C490",
"i. c #9AC592",
"p. c #A3C59B",
"a. c #A8C69F",
"s. c #A9C2A1",
"d. c #B6C6AC",
"f. c #B9C7B0",
"g. c #D5C9C9",
"h. c #DBCDCD",
"j. c #DDD0CF",
"k. c #DDCED1",
"l. c #E3CCD6",
"z. c None",
/* pixels */
"z.z.z.z.z.z.o o o o o o X o o o X X o o o X X X o X X o X X o o o o X X o X X o o o o o X o X o o o X o o o X o o o o o X o z.z.",
"z.z.z.z.z.z.o o + + + + + + + + + + + + + + + + @ O O @ + + + + + + + O @ O O @ + + + + + + + + + + + + + + + + + + + O o o z.z.",
"z.z.z.z.z.z.o O $ & & & & & & & & & & & & & & & & & & & & & & & & & & & & & & & & & & & & & & & & & & & & & & & & & & $ + o z.z.",
"z.z.z.z.z.z.o + & 2 2 2 2 2 1 2 1 2 2 1 2 2 2 1 1 2 1 1 2 2 1 2 2 2 1 2 1 2 1 1 2 1 2 2 2 2 1 2 1 2 2 2 1 2 1 2 2 2 2 & + o z.z.",
"z.z.z.z.z.z.X + & 2 2 2 1 2 2 1 2 1 2 2 2 2 2 = 2 1 2 2 1 2 1 2 2 2 2 2 2 1 2 2 2 2 2 2 2 2 2 2 2 1 2 1 2 2 2 2 1 2 2 & + o z.z.",
"z.z.z.z.z.z.o + % & * * 1 1 2 2 1 2 1 1 * 2 2 2 2 2 1 1 1 1 1 1 2 2 2 2 1 1 1 1 1 1 2 2 2 2 1 1 1 * 1 2 2 2 1 = 1 1 & $ + o z.z.",
"z.z.z.z.z.z.z.z.+ @ & = * 2 3 3 2 = * = * 2 3 4 5 3 2 = * * * = 3 5 5 3 2 = * * = 2 3 4 4 3 2 = * = * 1 3 3 2 * 1 & @ + z.z.z.z.",
"z.z.z.z.z.z.z.z.o + 3 5 5 6 9 9 5 4 5 4 5 5 7 8 9 9 6 5 5 5 5 7 9 0 0 8 6 5 5 5 5 5 9 9 9 9 5 4 5 4 5 5 9 9 6 5 6 2 @ X z.z.z.z.",
"z.z.z.z.z.z.z.z.. % q i i p i u u y u y y u u u u u u u u i i i p p f u i u u u u u u u i i u y y y u y i f i i p q % . z.z.z.z.",
"z.z.z.z.z.z.z.z.. $ 8 y t a l >.>.>.>.>.>.>.>.>.>.=.h u u u i y u u u u u u u i u h =.>.>.>.>.>.>.>.>.>.>.z p t t 7 % O z.z.z.z.",
"z.z.z.z.z.z.z.z.o + $ % % r 1.t.e.e.e.e.e.e.e.e.r.1.j 9 7 7 4 5 9 9 9 6 4 5 6 9 8 z 1.e.e.e.e.e.e.e.e.e.t.<.r $ % $ @ . z.z.z.z.",
"z.z.z.z.z.z.z.z.o o . .   e 9.j.j.g.h.h.h.g.h.h.j.q.z d d s a a d d d s a a s d d z q.j.h.g.h.h.h.h.g.h.j.0.e   . . . . z.z.z.z.",
"z.z.z.z.z.z.z.z.z.z.z.z.  e 8.j.z.z.z.z.z.z.z.z.z.z.q.q.0.0.0.0.0.0.0.0.0.0.0.0.q.q.z.z.z.z.z.z.z.z.z.z.j.2.e   z.z.z.z.z.z.z.z.",
"z.z.z.z.z.z.z.z.z.z.z.z.  e 2.j.z.z.z.z.z.z.z.z.z.z.g.h.h.h.h.h.h.h.h.h.h.h.h.h.h.h.z.z.z.z.z.z.z.z.z.z.j.2.e   z.z.z.z.z.z.z.z.",
"z.z.z.z.z.z.z.z.z.z.z.z.  e 2.h.z.z.z.z.z.z.z.z.g.g.z.z.z.z.z.z.z.z.z.z.z.z.z.z.z.z.z.z.z.z.z.z.z.z.z.z.h.2.e . z.z.z.z.z.z.z.z.",
"z.z.z.z.z.z.z.z.z.z.z.z.  e 2.j.z.z.z.z.z.z.z.z.g.g.z.z.z.z.z.z.z.z.z.z.z.z.z.z.z.z.z.z.z.z.z.z.z.z.z.z.j.9.e . z.z.z.z.z.z.z.z.",
"z.z.z.z.z.z.z.z.z.z.z.z.. e 2.h.z.z.z.z.z.z.g.g.z.z.z.z.z.z.z.z.z.z.z.z.z.z.z.z.z.z.z.z.z.z.z.z.z.z.z.z.h.8.8   z.z.z.z.z.z.z.z.",
"z.z.z.z.z.z.z.z.z.z.z.z.. e 2.h.z.z.z.z.z.z.g.g.z.z.z.z.z.z.z.z.z.z.z.z.z.z.z.z.z.z.z.z.z.z.z.z.z.z.z.z.h.2.e   z.z.z.z.z.z.z.z.",
"z.z.z.z.z.z.z.z.z.z.z.z.  e 0.j.z.z.z.z.g.g.z.z.z.z.z.z.z.z.z.z.z.z.z.z.z.z.z.z.z.z.z.z.z.z.z.z.z.z.z.z.h.8.e . z.z.z.z.z.z.z.z.",
"z.z.z.z.z.z.z.z.z.z.z.z.. e 2.g.z.z.z.z.g.g.z.z.z.z.z.z.z.z.z.z.z.z.z.z.z.z.z.z.z.z.z.z.z.z.z.z.z.z.z.z.k.8.e   z.z.z.z.z.z.z.z.",
"z.z.z.z.z.z.z.z.z.z.z.z.  e 8.h.z.z.g.g.z.z.z.z.z.z.z.z.z.z.g.g.z.z.z.z.z.z.z.z.z.z.z.z.z.z.z.z.z.z.z.z.h.2.e . z.z.z.z.z.z.z.z.",
"z.z.z.z.z.z.z.z.z.z.z.z.  e 8.h.z.z.h.h.z.z.z.z.z.z.z.z.z.z.g.g.z.z.z.z.z.z.z.z.z.z.z.z.z.z.z.z.z.z.z.z.h.2.e . z.z.z.z.z.z.z.z.",
"z.z.z.z.z.z.z.z.z.z.z.z.  e 2.h.z.z.z.z.z.z.z.z.z.z.z.z.g.g.z.z.z.z.z.z.z.z.z.z.z.z.z.z.z.z., , < ; z.z.j.8.e   z.z.z.z.z.z.z.z.",
"z.z.z.z.z.z.z.z.z.z.z.z.  e 2.k.z.z.z.z.z.z.z.z.z.z.z.z.g.g.z.z.z.z.z.z.z.z.z.z.z.z.z.z.z.z., < m M z.z.j.8.e   z.z.z.z.z.z.z.z.",
"z.z.z.z.z.z.z.z.z.z.z.z.. e 8.k.z.z.- - - - - - z.z.h.g.z.z.z.z.z.z.z.z.z.z.< > < : < < > , , m K L z.z.k.8.e . z.z.z.z.z.z.z.z.",
"z.z.z.z.z.z.z.z.z.z.z.z.. e 2.j.z.z.c c c c x v z.z.l.g.z.z.z.z.z.z.z.z.z.z.< > < : : : : < m C R [ z.z.k.8.e . z.z.z.z.z.z.z.z.",
"z.z.z.z.z.z.z.z.z.z.z.z.  e 2.k.z.z.G G U F x S 5.l.z.z.z.z.z.z.z.z.< < < : : : > , > : : m K T W W z.z.k.2.e   z.z.z.z.z.z.z.z.",
"z.z.z.z.z.z.z.z.z.z.z.z.  e 2.k.z.z.W o.o.R D } 4.s.z.z.z.z.z.z.z.z.> > : < V V V V V V V C R o.W W z.z.k.2.e . z.z.z.z.z.z.z.z.",
"z.z.z.z.z.z.z.z.z.z.z.z.. e 8.k.z.z.[ | W ..3.6.%. .A ; ; : : > , , , , : m K I T L I I I T W | [ W z.z.k.8.e   z.z.z.z.z.z.z.z.",
"z.z.z.z.z.z.z.z.z.z.z.z.. e 8.k.z.z.E | +.&.p.i.@.U C V V V V V V M n n M C R o.o.{ o.[ ] ] _ ] [ W z.z.k.2.e   z.z.z.z.z.z.z.z.",
"z.z.z.z.z.z.z.z.z.z.z.z.  e 2.j.z.z.Y +.u.p.*.@.o.E I I L I I I I H ! ! H T W W { | | ] ) / / ) ] W z.z.k.8.e . z.z.z.z.z.z.z.z.",
"z.z.z.z.z.z.z.z.z.z.z.z.. e 2.j.z.z.#.&.p.y.O._ [ Q | | | Q { Q W ] ) ) ] | W W W W Q ] ~ ^ ^ ~ ] W z.z.j.2.e . z.z.z.z.z.z.z.z.",
"z.z.z.z.z.z.z.z.z.z.z.z.  e 8.h.z.z.d.p.&.O.) ( ] | | | | | | | W [ ] ] [ W o.W W | | ] ~ ^ ^ ~ ] W z.z.k.2.e   z.z.z.z.z.z.z.z.",
"z.z.z.z.z.z.z.z.z.z.z.z.  e 2.h.z.z.d.u.X._ ) ) ] W ] _ _ ] [ W W W W | | o.W W W | W ] ) / ~ ) ] W z.z.k.2.e   z.z.z.z.z.z.z.z.",
"z.z.z.z.z.z.z.z.z.z.z.z.  e 2.k.z.z.$.@.| [ ] ] [ ] ) / ~ ) ] | | W W W | W W W | W W [ ] _ _ ] [ E z.z.k.8.e   z.z.z.z.z.z.z.z.",
"z.z.z.z.z.z.z.z.z.z.z.z.  e 2.k.z.z.E W W W | | | _ ~ ^ ^ ~ _ W W o.| o.o.W W [ ] ] [ W | | | W | W z.z.k.2.e   z.z.z.z.z.z.z.z.",
"z.z.z.z.z.z.z.z.z.z.z.z.. e 8.k.z.z.W W W W W | W _ ~ ^ ^ ~ _ | | W o.| W W | ] ( ) ] Q | W W W W W z.z.k.8.e   z.z.z.z.z.z.z.z.",
"z.z.z.z.z.z.z.z.z.z.z.z.. e 8.k.z.z.W W | W | W | ] ) ~ ~ ) ] | | W W W W W | ] ) ( ] { Q Q W W W | z.z.k.2.e   z.z.z.z.z.z.z.z.",
"z.z.z.z.z.z.z.z.z.z.z.z.  e 8.k.z.z.E W W o.W W W W ] _ _ ] [ W | W W W W W W [ ] ] [ W W | Q W E +.p.k.h.8.e   z.z.z.z.z.z.z.z.",
"z.z.z.z.z.z.z.z.z.z.z.z.  e 2.k.z.z.W W W o.W W W W | | | | W [ ] ] [ W W o.W W | | W W W W W o.@.*.d.h.h.8.e   z.z.z.z.z.z.z.z.",
"z.z.z.z.z.z.z.z.z.z.z.z.. e 2.k.z.z.W W W | o.W W W W W W W | ] ) ) ] W | W W | W W W | | W E +.u.f.z.z.h.8.e   z.z.z.z.z.z.z.z.",
"z.z.z.z.z.z.z.z.z.z.z.z.. e 8.k.z.z.W [ W W | [ W o.W o.| W | _ ~ / ` ] [ W W W W | W W W | +.&.i.d.z.z.j.8.e . z.z.z.z.z.z.z.z.",
"z.z.z.z.z.z.z.z.z.z.z.z.. e 2.k.z.z.W W W o.W | W W o.| W W | _ ~ ^ / ) ] | | [ W W o.W W @.u.p.&.#.z.z.k.2.e   z.z.z.z.z.z.z.z.",
"z.z.z.z.z.z.z.z.z.z.z.z.. e 2.h.z.z.E W W E W W W W W W W | | ] ) / / ) ] | | | | W W E E $.d.d.#.J z.z.k.2.e   z.z.z.z.z.z.z.z.",
"z.z.z.z.z.z.z.z.z.z.z.z.. e 2.h.z.z.z.z.z.z.z.z.z.z.z.z.| W | [ ] _ _ ] [ W Q W z.z.z.z.z.z.z.z.z.z.z.z.h.8.e   z.z.z.z.z.z.z.z.",
"z.z.z.z.z.z.z.z.z.z.z.z.. e 2.h.z.z.z.z.z.z.z.z.z.z.z.z.E W W | W W W W W W W E z.z.z.z.z.z.z.z.z.z.z.z.k.8.e   z.z.z.z.z.z.z.z.",
"z.z.z.z.z.z.z.z.z.z.o . . e 0.h.h.h.h.k.h.h.h.k.k.k.z.z.z.z.z.z.z.z.z.z.z.z.z.z.z.z.k.h.h.h.h.h.h.h.h.h.j.8.e . . o z.z.z.z.z.z.",
"z.z.z.z.z.z.z.z.z.z.o o @ r <.t.e.e.e.e.w.w.q.q.w.t.z.z.z.z.z.z.z.z.z.z.z.z.z.z.z.z.e.e.e.e.w.w.q.q.w.r.t.<.r @ O o z.z.z.z.z.z.",
"z.z.z.z.z.z.z.z.z.z.o # 7 p z >.;.>.>.>.>.-.z j =.,.t.k.k.k.k.k.k.k.k.k.k.k.k.k.k.t.,.;.;.>.>.;.z z -.>.>.=.p 7 # . z.z.z.z.z.z.",
"z.z.z.z.z.z.z.z.z.z.. % q p p f u u u u u t 6 9 u =.7.e.q.0.w.w.w.w.w.r.w.e.w.r.t.7.=.p u u u y 6 6 t u u p p q % . z.z.z.z.z.z.",
"z.z.z.z.z.z.z.z.O X . @ 5 0 0 8 9 9 0 0 9 6 4 6 w f =.-.=.f ;.>.>.>.;.>.;.>.;.>.>.-.k p w 6 6 6 4 6 6 9 8 9 0 4 # . . O z.z.z.z.",
"z.z.z.z.z.z.z.z.X O # = 7 0 9 8 0 6 6 6 9 0 0 t p =.f u 9 9 w w u u u u u u u u u u p u 6 6 6 0 0 0 0 0 9 0 0 6 = # @ . z.z.z.z.",
"z.z.z.z.z.z.z.z.. # 8 y i i p i p t 6 6 y p p p =.p g w 9 6 9 9 6 9 6 0 6 9 9 9 6 0 0 6 6 6 t i p u i i i p i u y 8 $ O z.z.z.z.",
"z.z.z.z.z.z.z.z.. % y k g h g h k p w 6 p k k g =.f =.w w 9 9 w 6 6 9 0 0 0 0 0 w 6 6 w 9 t f k k k h h g k h k j y % . z.z.z.z.",
"z.z.z.z.z.z.z.z.o % w k k g k k k p w 6 p k k g w =.p =.p g p w 6 6 u p p p p p p p p p i f s h h k g k k k h k h y & . z.z.z.z.",
"z.z.z.z.z.z.z.z.. % 0 i i i p p p t 6 6 t u p p w f w w w p w w 6 6 t u u u u p p p p p i i u i u u u p i u u u i 8 % . z.z.z.z.",
"z.z.z.z.z.z.z.z.o @ 2 5 7 5 8 0 6 6 6 3 4 6 6 r 0 e 5 6 5 5 5 4 4 4 4 6 6 5 5 6 8 0 r 6 6 6 4 6 6 6 6 0 0 8 5 5 7 = + X z.z.z.z.",
"z.z.z.z.z.z.z.z.O # & = = 2 4 5 4 4 2 2 * 2 4 4 4 3 2 * * 2 * * 1 1 1 1 1 1 * 2 4 5 4 3 1 1 1 1 * 2 4 6 5 3 3 1 = % @ + z.z.z.z.",
"z.z.z.z.z.z.O + % = = 2 1 2 2 2 2 2 2 1 * 2 2 2 3 3 2 * 2 * 2 2 1 1 2 1 * * 2 2 2 2 2 2 1 1 1 1 * 1 1 2 2 2 1 * = = & % + o z.z.",
"z.z.z.z.z.z.. + # % % % & & & & & & & & & & & & & & & & & & & & & & & & & & & & & & & & & & & & & & & & & & & % % & & % + o z.z.",
"z.z.z.z.z.z.o o + + + + + + + + + O + + + + + + O O O + O + + + + + + + + + + + + + + + + + + + + + + O + + + + + + + O o o z.z.",
"z.z.z.z.z.z.o O + + + + + O o o O @ + + + + o o O O + + O O o o o o o o o o O + + + + + o o + + + + + O O . + + + + + + O X z.z.",
"z.z.z.z.z.z.. + $ & & & & $ + O $ & & & & $ O O $ * & & & & O o o o o o o O $ & & & & $ + + $ & & & & $ + O $ & & & & $ O o z.z.",
"z.z.z.z.z.z.o + & * 2 2 2 & + + & 2 2 1 1 & + + & 1 1 1 2 & O o o o o o o + & 2 2 2 * & + + & 2 2 2 2 & + + & 2 2 2 2 & + o z.z."
};
