/* XPM */
static char *result[] = {
/* columns rows colors chars-per-pixel */
"64 64 60 1 ",
"  c #14151D",
". c #121A1F",
"X c #151720",
"o c #151921",
"O c #1A1C25",
"+ c #1A1E29",
"@ c #0F292D",
"# c #12272D",
"$ c #1D212D",
"% c #11292E",
"& c #1F2330",
"* c #112C31",
"= c #0F3236",
"- c #0B3C3F",
"; c #103136",
": c #19323A",
"> c #212532",
", c #242A35",
"< c #252A3A",
"1 c #282E3F",
"2 c #29313D",
"3 c #0C3D40",
"4 c #1F3D45",
"5 c #292F40",
"6 c #2B3144",
"7 c #203B43",
"8 c #2F3845",
"9 c #2D3549",
"0 c #333B4E",
"q c #343D51",
"w c #065355",
"e c #095355",
"r c #085658",
"t c #055A5B",
"y c #274556",
"u c #374154",
"i c #394256",
"p c #3A445A",
"a c #3C4A5A",
"s c #0F5D63",
"d c #3F4B60",
"f c #056668",
"g c #04696B",
"h c #17676C",
"j c #17696E",
"k c #3D6473",
"l c #424F5F",
"z c #42505F",
"x c #404D60",
"c c #425162",
"v c #475769",
"b c #48576A",
"n c #4A596D",
"m c #4E5E72",
"M c #505F73",
"N c #4F6174",
"B c #516376",
"V c #526578",
"C c #008585",
"Z c None",
/* pixels */
"ZZZZZZZZZZZZZZZZZZZZZZZZZZZZZZZZZZZZZZZZZZZZZZZZZZZZZZZZZZZZZZZZ",
"ZZZZZZZZZZZZZZZZZZZZZZZZZZZZZZZZZZZZZZZZZZZZZZZZZZZZZZZZZZZZZZZZ",
"ZZZZZZZZZZZZZZZZZZZZZZZZZZZZZZZZZZZZZZZZZZZZZZZZZZZZZZZZZZZZZZZZ",
"ZZZZZZZZZZZZZZZZZZZZZZZZZZZZZZZZZZZZZZZZZZZZZZZZZZZZZZZZZZZZZZZZ",
"ZZZZZZZZZZZZZZZZZZZZZZZZZZZZZZZZZZZZZZZZZZZZZZZZZZZZZZZZZZZZZZZZ",
"ZZZZZZZZZZZZZZZZZZZZZZZZZZZZZZZZZZZZZZZZZZZZZZZZZZZZZZZZZZZZZZZZ",
"ZZZZZZZZZZZZZZZZZZZZZZZZZZZZZZZZZZZZZZZZZZZZZZZZZZZZZZZZZZZZZZZZ",
"ZZZZZZZZZZZZZZZZZZZZZZZZZZZZZZZZZZZZZZZZZZZZZZZZZZZZZZZZZZZZZZZZ",
"ZZZZZZZZZZZZZZZZZZZZZZZZZZZZZZZZZZZZZZZZZZZZZZZZZZZZZZZZZZZZZZZZ",
"ZZZZZZZZZZZZZZZZZZZZZZZZZZZZZZZZZZZZZZZZZZZZZZZZZZZZZZZZZZZZZZZZ",
"ZZZZZZZZZZZZZZZZZZZZZZZZZZZZZZZZZZZZZZZZZZZZZZZZZZZZZZZZZZZZZZZZ",
"ZZZZZZZZZZZZZZZZZZZZZZZZZZZZZZZZZZZZZZZZZZZZZZZZZZZZZZZZZZZZZZZZ",
"ZZZZZZZZZZZZZZZZZZZZZZZZZZZZZZZZZZZZZZZZZZZZZZZZZZZZZZZZZZZZZZZZ",
"ZZZZZZZZZZZZZZZZZZZZZZZZZZZZZZZZZZZZZZZZZZZZZZZZZZZZZZZZZZZZZZZZ",
"ZZZZZZZZZZooXX XXXX  X XX X XXX XXXXXXXXXXXooXXXXooX XXoZZZZZZZZ",
"ZZZZZZZZZZo+&,,,,,,<,,<,,,<,,,,,,,,,,,,,,,,&+o++++++++OoZZZZZZZZ",
"ZZZZZZZZZZX>uzcczcccccxcczccclcccccccccccccu&+&><<<<<&+XZZZZZZZZ",
"ZZZZZZZZZZ ,cBnvbbbbbbbbbbbbbbbbbbbbbbbvvnNc<+<61<<<5&+XZZZZZZZZ",
"ZZZZZZZZZZ <cna00000q00000000000000000000anc,+>5>+O+++OoZZZZZZZZ",
"ZZZZZZZZZZo,cv0<112121121165112512111212<0vd,+<<OoO++OooZZZZZZZZ",
"ZZZZZZZZZZ ,zv0112111111225252551611<21<10vz,+><+O&<<,OoZZZZZZZZ",
"ZZZZZZZZZZX,cnp0000u0qq0000000000000uu000anc,+<<++<66>OoZZZZZZZZ",
"ZZZZZZZZZZ.,cNmvbbbbbnbbvbbbbbvbbbbbbbbvvnBc,+><++<56<+oZZZZZZZZ",
"ZZZZZZZZZZ.&uccczzczzczzcccccccxccczczcccczu>+<<++<55<+oZZZZZZZZ",
"ZZZZZZZZZZo+>,,,,,,,<>>><<,,<,,<,,,,,,,,>><&++<<+O<56<+XZZZZZZZZ",
"ZZZZZZZZZZo X Xo+$+$$+$++$++$+++$$$++$+$$$$+o+<<++<56<+oZZZZZZZZ",
"ZZZZZZZZZZZZZZX+<66666656595556666666666669<++<<++<55:+XZZZZZZZZ",
"ZZZZZZZZZZZZZZX$6q000000000q0000009009009006++<<++<55<+XZZZZZZZZ",
"ZZZZZZZZZZZZZZX$6q996959666696696688999969q9$+<<++<56<+oZZZZZZZZ",
"ZZZZZZZZZZZZZZX$6065<>,,<<<<<<,,<,,,>><19qq6$+&&O+<55<+XZZZZZZZZ",
"ZZZZZZZZZZZZZZX$6065$+OOOOO+OOO+OOO OOO,pcp6$X+o++<55<+XZZZZZZZZ",
"ZZZZZZZZZZZZZZX$609&Oo@;*#oo#*oo#*==;%o>dnd6$oO+X+<55<+OZZZZZZZZ",
"ZZZZZZZZZZZZZZX$202,O%effe%%rr%%eggggw#>xma6$O<>OO<56<+XZZZZZZZZ",
"ZZZZZZZZZZZZZZX$8u8,O;fCCf;%er%%egggge%,xnp5$+<<++&<<&+XZZZZZZZZ",
"ZZZZZZZZZZZZZZX$802,O*fCCf;.*%..****;%o,xmd6$+<<+o+++OOXZZZZZZZZ",
"ZZZZZZZZZZZZZZo$608,O*fCCf*O%;=*OO*;;%.>xnp5$O<<&++O+OOoZZZZZZZZ",
"ZZZZZZZZZZZZZZX$606,O;fCCf;%egge%%egge%>xna9+O<1<<<<<&+XZZZZZZZZ",
"ZZZZZZZZZZZZZZX$606<O%effe##egge#%egge@,xnp5$O<555656<+XZZZZZZZZ",
"ZZZZZZZZZZZZZZX$606<O.%*;%O %=:*..%;*%.,xmd5++<556565<+XZZZZZZZZ",
"ZZZZZZZZZZZZZZX$606<OO%%O.%;:%. %;;=*%.,xmp6$+<555655<+oZZZZZZZZ",
"ZZZZZZZZZZZZZZX$606<O#re%%egge%%egggfe@,znz2>O<556615<+oZZZZZZZZ",
"ZZZZZZZZZZZZZZX$606<O&rr**egge%%egggfe@,zbz2++<555265<+XZZZZZZZZ",
"ZZZZZZZZZZZZZZX$606<Oo**..%*=*O.%*;:@@.,zni2++<561616<+XZZZZZZZZ",
"ZZZZZZZZZZZZZZX$606<O         .        ,znl2++,526565,+oZZZZZZZZ",
"ZZZZZZZZZZZZZZX&606,O                  ,zna6++<555655<+XZZZZZZZZ",
"ZZZZZZZZZZZZZZX+6qq8<,>>,,,,>,,,,,,,>>,8bnp6++<1<<<<1<+oZZZZZZZZ",
"ZZZZZZZZZZZZZZX+5pzvzzzzzzzzzzdczzzzzzzzmba6&+<<$++$<<+XZZZZZZZZ",
"ZZZZZZZZZZZZZZ+,9pvnmnnnnmnnbbnmbbmbnnmmbvi6++<1&O+&1<+oZZZZZZZZ",
"ZZZZZZZZZZZZX+59qqqdppqdppppippppppippppppq6$+<1<<<<1<+XZZZZZZZZ",
"ZZZZZZZZZZZZ+,5569yy99yy99yy96yy99yy966659q6++,5<<<11<+oZZZZZZZZ",
"ZZZZZZZZZZ +55>+O:ss::ss::ss::ss:*sh:OO$+,96$+<<&O+$<<+XZZZZZZZZ",
"ZZZZZZZZZZ+,5<Oo@3tt33tt33tt-3tt33tt3%. O>96$+<<&++$1<+oZZZZZZZZ",
"ZZZZZZZZo$<2&O #wt3-tr-3tt33rt--tt33tw#O>905++<1<<<<5<+XZZZZZZZZ",
"ZZZZZZZZ.$0u1,&4jj44hh44hh44hh44ss77jj41qap0$+<5<<<<5<+XZZZZZZZZ",
"ZZZZZZZZ ,abczzvkkcxkkcvkkcvkkdayyackkvxbnna>+,1>++$1<+oZZZZZZZZ",
"ZZZZZZZZ ,zNmbbbvnnmmmmnmmnnmMVn00vVBBBBBVVx,O<<+XX+<<+ ZZZZZZZZ",
"ZZZZZZZZX,cbauuiqqpxMmxxbmddmBBviumVMBBVNVVd,#<<+XX+<<+XZZZZZZZZ",
"ZZZZZZZZX,cv0699599qbbppnnpivBBnpqxnnbbbnnvi&+<<+XX+<<+OZZZZZZZZ",
"ZZZZZZZZX<dni969996qbbppnvpivBBnpqqpppppii06$+,<+XX+<<+XZZZZZZZZ",
"ZZZZZZZZ ,cni969999qbbpqvnpqnBNmxppqqqqpiuu2$+,<+XXO<<+oZZZZZZZZ",
"ZZZZZZZZX,cbq699969pnnppbnqpvNNmmbmxqpcnnnva,O<<+XX+<<+XZZZZZZZZ",
"ZZZZZZZZ ,zbp0ipqqqdnnddmnddmBNBmBBbpqnMNVVd,O,1>++$<,+oZZZZZZZZ",
"ZZZZZZZZX,cBbbnbvvnnmmnnmMnnmBBNNBBvqqvMVVVc,+<1<<<<1<+XZZZZZZZZ",
"ZZZZZZZZ ,cBBBBBBBNBNBBBBBBMBNNBNBNv90vVNNVd&O,166566<+oZZZZZZZZ"
};
