/* XPM */
static char *result[] = {
/* columns rows colors chars-per-pixel */
"64 64 212 2 ",
"   c #3E3A3E",
".  c #7D241B",
"X  c #7E2117",
"o  c #4D3536",
"O  c #682D2A",
"+  c #6C3A35",
"@  c #752B3A",
"#  c #3A423F",
"$  c #5D4E3D",
"%  c #764838",
"&  c #1B3F4D",
"*  c #393C47",
"=  c #453848",
"-  c #473747",
";  c #493F50",
":  c #642E42",
">  c #7C3147",
",  c #1E424E",
"<  c #1C4550",
"1  c #1B4A54",
"2  c #1E575E",
"3  c #20434E",
"4  c #2C484B",
"5  c #3A4348",
"6  c #224955",
"7  c #224D5A",
"8  c #264853",
"9  c #3F4D58",
"0  c #24515D",
"q  c #2C585C",
"w  c #36585A",
"e  c #265660",
"r  c #265A62",
"t  c #2A5E6D",
"y  c #295A64",
"u  c #355C6D",
"i  c #2E6465",
"p  c #2C626D",
"a  c #326764",
"s  c #356B6B",
"d  c #2D6474",
"f  c #2C6679",
"g  c #2C6B7B",
"h  c #2A6876",
"j  c #336877",
"k  c #2F737E",
"l  c #32727E",
"z  c #377977",
"x  c #495649",
"c  c #424A56",
"v  c #49545C",
"b  c #4A5F54",
"n  c #4F4246",
"m  c #615848",
"M  c #734B4B",
"N  c #46685B",
"B  c #68675A",
"V  c #71734D",
"C  c #465867",
"Z  c #525367",
"A  c #505569",
"S  c #4F4D60",
"D  c #486568",
"F  c #597768",
"G  c #4A7275",
"H  c #587C7A",
"J  c #496C72",
"K  c #727267",
"L  c #9E1606",
"P  c #9E1807",
"I  c #9C1A09",
"U  c #971A0C",
"Y  c #A01504",
"T  c #A01806",
"R  c #85241A",
"E  c #972212",
"W  c #961F39",
"Q  c #991E38",
"!  c #981D37",
"~  c #A21B36",
"^  c #B61533",
"/  c #BD1332",
"(  c #B91A37",
")  c #822B23",
"_  c #88382A",
"`  c #96203A",
"'  c #A5223F",
"]  c #C30F2F",
"[  c #C11131",
"{  c #B1581E",
"}  c #884927",
"|  c #92452D",
" . c #8E4630",
".. c #905329",
"X. c #9E6438",
"o. c #9C733C",
"O. c #9D622A",
"+. c #B9662D",
"@. c #A86332",
"#. c #B96C33",
"$. c #BD763D",
"%. c #B05A20",
"&. c #C17237",
"*. c #9C2642",
"=. c #992944",
"-. c #803850",
";. c #A92C45",
":. c #945D50",
">. c #3F8274",
",. c #568679",
"<. c #648C72",
"1. c #76A57F",
"2. c #7DAF76",
"3. c #7FB177",
"4. c #9C8037",
"5. c #C89D37",
"6. c #CF8937",
"7. c #E49D2D",
"8. c #D2A53B",
"9. c #F3AD27",
"0. c #F2AC29",
"q. c #EEAA3B",
"w. c #F1A936",
"e. c #F9B23D",
"r. c #AE884C",
"t. c #868968",
"y. c #BA8965",
"u. c #9AA96B",
"i. c #CE925B",
"p. c #CC9050",
"a. c #E9995C",
"s. c #D0AE44",
"d. c #F3A84F",
"f. c #DA9671",
"g. c #D5A76A",
"h. c #C7A475",
"j. c #D6B378",
"k. c #EAAE73",
"l. c #EAB879",
"z. c #F2B46F",
"x. c #FFC275",
"c. c #2F7582",
"v. c #327581",
"b. c #347E84",
"n. c #537E81",
"m. c #3C8384",
"M. c #34848B",
"N. c #358B8C",
"B. c #358386",
"V. c #3A928E",
"C. c #369293",
"Z. c #399495",
"A. c #3B9E9C",
"S. c #3A9D9A",
"D. c #358B91",
"F. c #3CA19D",
"G. c #3BA3A1",
"H. c #3AA7A3",
"J. c #548887",
"K. c #479581",
"L. c #439695",
"P. c #4B8D84",
"I. c #689787",
"U. c #5DA689",
"Y. c #46AB9F",
"T. c #46A498",
"R. c #55AA97",
"E. c #55B092",
"W. c #5AB99A",
"Q. c #58B697",
"!. c #5BB18F",
"~. c #6FAA83",
"^. c #75A681",
"/. c #73AA82",
"(. c #77B384",
"). c #6CB093",
"_. c #45ADA1",
"`. c #48AFA1",
"'. c #4BB2A1",
"]. c #55BDA2",
"[. c #5CC6A4",
"{. c #5CC8A6",
"}. c #5BCBA8",
"|. c #57C5A5",
" X c #66D5A9",
".X c #68D4A7",
"XX c #6ECCA4",
"oX c #869889",
"OX c #A3A88B",
"+X c #A4AD94",
"@X c #C9AD83",
"#X c #CDB88B",
"$X c #D4B686",
"%X c #E7BE87",
"&X c #82C38E",
"*X c #ABC39E",
"=X c #87D5A6",
"-X c #A5D9A7",
";X c #D5C798",
":X c #EAC68E",
">X c #FCC387",
",X c #F2D79F",
"<X c #D8DCA6",
"1X c #D0D6A4",
"2X c #F5DDA6",
"3X c #F9DDA6",
"4X c #F6DFA9",
"5X c #EFDEA7",
"6X c #F9E2AB",
"7X c #F7E1AA",
"8X c #E0E0A9",
"9X c None",
/* pixels */
"9X9X9X9X9X9X9X9X9X9X9X9X9X9X9X9X9X9X9X9X9X9X9X9X9X9X0.0.9X9X0.0.9X9X0.0.9X9X9X9X9X9X9X9X9X9X9X9X9X9X9X9X9X9X9X9X9X9X9X9X9X9X9X9X",
"9X9X9X9X9X9X9X9X9X9X9X9X9X9X9X9X9X9X9X9X9X9X9X9X9X9X0.0.9X9X0.0.9X9X0.0.9X9X9X9X9X9X9X9X9X9X9X9X9X9X9X9X9X9X9X9X9X9X9X9X9X9X9X9X",
"9X9X9X9X9X9X9X9X9X9X9X9X9X9X9X9X9X9X9X9X9X9X9X9X9X9X0.0.0.0.0.7.9.0.0.0.9X9X9X9X9X9X9X9X9X9X9X9X9X9X9X9X9X9X9X9X9X9X9X9X9X9X9X9X",
"9X9X9X9X9X9X9X9X9X9X9X9X9X9X9X9X9X9X9X9X9X9X9X9X9X9X0.0.w.w.w.w.w.w.0.0.9X9X9X9X9X9X9X9X9X9X9X9X9X9X9X9X9X9X9X9X9X9X9X9X9X9X9X9X",
"9X9X9X9X9X9X9X9X9X9X9X9X9X9X9X9X9X9X9X9X9X9X9X9X9X9X0.q.d.a.a.a.a.a.w.9.9X9X9X9X9X9X9X9X9X9X9X9X9X9X9X9X9X9X9X9X9X9X9X9X9X9X9X9X",
"9X9X9X9X9X9X9X9X9X9X9X9X9X9X9X9X9X9X9X9X9X9X9X9X9X9X7.6.y.y.f.f.y.p.5.7.9X9X9X9X9X9X9X9X9X9X9X9X9X9X9X9X9X9X9X9X9X9X9X9X9X9X9X9X",
"9X9X9X9X9X9X9X9X9X9X9X9X9X9X9X9X9X9X2X2X2X2X2X4X6Xl.6.O.m K h.h.B m O.&.l.6X4X4X2X2X9X9X9X9X9X9X9X9X9X9X9X9X9X9X9X9X9X9X9X9X9X9X",
"9X9X9X9X9X9X9X9X9X9X9X9X9X9X9X9X9X9X3X2X2X2X2X4X6X%X$...m K j.j.:.m ..$.:X6X2X3X3X3X9X9X9X9X9X9X9X9X9X9X9X9X9X9X9X9X9X9X9X9X9X9X",
"9X9X9X9X9X9X9X9X9X9X9X9X9X9X9X9X7X3X3X2X2X2X4X4X7X:X$.@.i.$X%X:X#Xy.@.$.%X4X4X2X2X3X3X3X9X9X9X9X9X9X9X9X9X9X9X9X9X9X9X9X9X9X9X9X",
"9X9X9X9X9X9X9X9X9X9X9X9X9X9X9X9X1X1X<X<X2X7X4X,X:Xf.#.#.k.%Xk.k.:Xk.#.#.g.:X2X5X<X1X<X1X9X9X9X9X9X9X9X9X9X9X9X9X9X9X9X9X9X9X9X9X",
"9X9X9X9X9X9X9X9X9X9X9X9X.X.X.XXX=X=X=X-X<X6X6X:Xp.#.{ &.k.k.p.$.l.k.&.%.#.i.:X<X-X=X=X=XXX X9X9X9X9X9X9X9X9X9X9X9X9X9X9X9X9X9X9X",
"9X9X9X9X9X9X9X9X9X9X9X9X[.[.[.[.[.[.[.XX*X;X2X%Xo.} } @.i.i.+.+.i.i.@...@.p.@X*XXX|.|.|.[.[.9X9X9X9X9X9X9X9X9X9X9X9X9X9X9X9X9X9X",
"9X9X9X9X9X9X9X9X9X9X.X[.'.Y.Y.Y.`._._.L.J.oX;X#XB # # $ @.+.{ { &.O.$ m h.#XoXJ.L.`._.Y.Y.'.[..X9X9X9X9X9X9X9X9X9X9X9X9X9X9X9X9X",
"9X9X9X9X9X9X9X9X9X9X[.].Y.S.S.S.A.A.Z.M.c.n.+XOXD 3 y N V o.o.o.@.V N F OXOXH g N.Z.A.F.S.Y.].[.9X9X9X9X9X9X9X9X9X9X9X9X9X9X9X9X",
"9X9X9X9X9X9X9X9X.X[.'.Y.F.G.A.A.G.Z.b.g g j J.G q 2 K.!.).3.(.(.(.).!.U.G s s f v.b.Z.G.S.L._.'.{..X9X9X9X9X9X9X9X9X9X9X9X9X9X9X",
"9X9X9X9X9X9X9X9X.X[.Y.F.F.L.A.A.Z.M.v.j g j t r i ,.W. X X X X X X X.XW.>.i t t d l M.Z.A.A.A._.].[.9X9X9X9X9X9X9X9X9X9X9X9X9X9X",
"9X9X9X9X9X9X9X9X X{._.A.A.A.G.Z.B.v.g j f t 7 y K.W..X.X.X.X.X X.X.X.X{.Q.K.i 7 d j v.b.Z.F.F.F.Y.`.9X9X9X9X9X9X9X9X9X9X9X9X9X9X",
"9X9X9X9X9X9X9X9XW.`.S.Z.Z.Z.Z.M.l j j f d t e z R.[.[.[.[.[.[.[.[.[.[.{.{.R.z e t t f v.N.Z.Z.Z.Z.Z.9X9X9X9X9X9X9X9X9X9X9X9X9X9X",
"9X9X9X9X9X9X9X9Xb.n.b.c.c.v.v.v.j f j t e y k V.Y.Y.`.`.Y.Y.Y.Y.Y.Y._.Y.Y.T.Z.z y 0 t j v.v.l v.v.c.9X9X9X9X9X9X9X9X9X9X9X9X9X9X",
"9X9X9X9X9X9X9X9Xf u C Z Z C u t t t d y 6 q N.H.A.A.A.A.S.A.S.A.S.S.S.S.F.G.G.N.e 6 y p p t t u C v 9X9X9X9X9X9X9X9X9X9X9X9X9X9X",
"9X9X9X9X9X9X9X9X9X9X=.*.*.> c 7 7 7 7 6 3 r N.G.A.L.H.A.A.A.A.S.S.A.S.S.A.A._.M.r 3 6 7 0 7 7 5 O ) 9X9X9X9X9X9X9X9X9X9X9X9X9X9X",
"9X9X9X9X9X9X9X9X9X9X/ [ ] ! - < , 3 3 , , q b.Z.Z.Z.Z.Z.Z.V.Z.L.R.).).R.L.D.C.b.e , , 3 3 , ,   R T 9X9X9X9X9X9X9X9X9X9X9X9X9X9X",
"9X9X9X9X9X9X9X9X9X9X[ [ ] Q = 1 , 3 3 3 3 7 h v.v.v.v.v.v.v.l J.+X#X#XOXJ.l v.h 7 3 3 3 , < ,   . T 9X9X9X9X9X9X9X9X9X9X9X9X9X9X",
"9X9X9X9X9X9X9X9X9X9X/ [ [ ~ : * 4 , , 3 3 7 p j d f d j j f j H j.z.%X@XI.g f t 6 , 3 3 , < <   . P 9X9X9X9X9X9X9X9X9X9X9X9X9X9X",
"9X9X9X9X9X9X9X9X9X9X/ / / ^ ~ @ * < < 3 3 7 p j g j d g d f f F p.d.x.#XU.b.c.t 7 , 3 3 3 < ,   . P 9X9X9X9X9X9X9X9X9X9X9X9X9X9X",
"9X9X9X9X9X9X9X9X9X9X/ / / [ [ Q = < < < , 6 y t d f j d f f f F 5.e.g.OXR.A.L.v.s w 6 , 3 3   o R P 9X9X9X9X9X9X9X9X9X9X9X9X9X9X",
"9X9X9X9X9X9X9X9X9X9X/ / / / [ ` = < < 3 3 8 1 0 t j f d j d f F 5.s.:.P.L.`.R.].Q.K.q & ,   O R U I 9X9X9X9X9X9X9X9X9X9X9X9X9X9X",
"9X9X9X9X9X9X9X9X9X9X/ / / [ [ ~ : * 3 3 3 6 q s z m.m.m.b.P.n.t.s.s.,.c.M.L.].[.}.E.z a i x R I P I 9X9X9X9X9X9X9X9X9X9X9X9X9X9X",
"9X9X9X9X9X9X9X9X9X9X/ / / / / ^ ~ > * < & q K.Q.W.W.W.W.W.).+Xj.l.h.H f c.b.L.`._.Y.E.Q.E.<._ P I I 9X9X9X9X9X9X9X9X9X9X9X9X9X9X",
"9X9X9X9X9X9X9X9X9X9X/ / / / / [ ] ! = 1 0 z E.}.{.{.[.}.|.=X;X>X>X@XH f f c.M.Z.S._.].}.}.~. .I I I 9X9X9X9X9X9X9X9X9X9X9X9X9X9X",
"9X9X9X9X9X9X9X9X9X9X/ / / / / [ ] Q = 2 k Z.T.`.`.`.`._.H.).#X>X>X@XH f f f v.b.C.H._._.`.,._ I I I 9X9X9X9X9X9X9X9X9X9X9X9X9X9X",
"9X9X9X9X9X9X9X9X9X9X/ / / / / / [ ~ : 9 z C.S.F.F.F.A.L.U.u.$Xz.z.g.t.F F F s f b.D.S.G.H.,._ L I I 9X9X9X9X9X9X9X9X9X9X9X9X9X9X",
"9X9X9X9X9X9X9X9X9X9X/ / / / / / / ^ ~ > 9 h C.F.H.H.S.1.u.8.e.d.d.e.8.8.5.4.N 2 0 h V.F.H.,._ P I I 9X9X9X9X9X9X9X9X9X9X9X9X9X9X",
"9X9X9X9X9X9X9X9X9X9X/ / / / / / / / ] ~ + 9 z N.N.>.N.<.4.8.8.s.s.8.s.8.8.4.$ < & q J ,.,.B _ P I I 9X9X9X9X9X9X9X9X9X9X9X9X9X9X",
"9X9X9X9X9X9X9X9X9X9X/ / / / / / / / ] ^ ! > 9 r 2 2 2 w b <.2.(.~.(.&X3.V x 1 < , 5 + _ + ) E I I I 9X9X9X9X9X9X9X9X9X9X9X9X9X9X",
"9X9X9X9X9X9X9X9X9X9X/ / / ^ / / / / / / ] ! = , 1 1 , & & N E.}.H.H.}.E.i , , < , * . L L I I I I I 9X9X9X9X9X9X9X9X9X9X9X9X9X9X",
"9X9X9X9X9X9X9X9X9X9X/ / / / / / / / / ] [ ` o < < < , , & i E.}.Y.Y.|.E.i < < < < o . I I I I I I I 9X9X9X9X9X9X9X9X9X9X9X9X9X9X",
"9X9X9X9X9X9X9X9X9X9X/ / / / / / / / / / ] ` = < < < < , , a E.[.Y.Y.[.E.i < , < <   . I I I I U I I 9X9X9X9X9X9X9X9X9X9X9X9X9X9X",
"9X9X9X9X9X9X9X9X9X9X/ / / / / / / / / / [ ` = < , , , , , a !.[.Y._.[.!.a , , < <   . P P I I I I I 9X9X9X9X9X9X9X9X9X9X9X9X9X9X",
"9X9X9X9X9X9X9X9X9X9X/ / / / / / / / / ] / ` = < , , , , , a E.[.Y.Y.|.E.a , , < 3 * . I I I I I I U 9X9X9X9X9X9X9X9X9X9X9X9X9X9X",
"9X9X9X9X9X9X9X9X9X9X/ / / / / / / / / [ ] ! - & < 3 3 3 , a E.[.Y.Y.{.!.a , 3 , <   X P I I I I I I 9X9X9X9X9X9X9X9X9X9X9X9X9X9X",
"9X9X9X9X9X9X9X9X9X9X/ / / / / / / / / ^ ~ > * < < 3 3 3 , a !.[.Y.Y.{.E.a , , , <   X P I I I I I I 9X9X9X9X9X9X9X9X9X9X9X9X9X9X",
"9X9X9X9X9X9X9X9X9X9X/ / / / / / / / ] ~ : * & 8 3 3 3 3 & a E.{._.Y.{.E.a , 3 < 1 o . I I I I I I I 9X9X9X9X9X9X9X9X9X9X9X9X9X9X",
"9X9X9X9X9X9X9X9X9X9X/ / / / / / / / / W = < 8 & < 3 3 , , a E.[.Y.Y.{.!.a , 3 < < # . T I I I I I I 9X9X9X9X9X9X9X9X9X9X9X9X9X9X",
"9X9X9X9X9X9X9X9X9X9X/ / / / / / / / [ W = 1 < 3 3 3 3 3 3 a E.[._.Y.{.E.a , 3 , <   . P I I E I I I 9X9X9X9X9X9X9X9X9X9X9X9X9X9X",
"9X9X9X9X9X9X9X9X9X9X/ / / / / / / [ [ W = < < 3 < 3 3 , & a E.[.Y.Y.{.!.a , 3 < <   . P I I I I I U 9X9X9X9X9X9X9X9X9X9X9X9X9X9X",
"9X9X9X9X9X9X9X9X9X9X/ / / / / / / / [ W = < , 3 3 3 3 3 3 a E.[.Y.Y.{.E.a , , < <   . P I I I I I I 9X9X9X9X9X9X9X9X9X9X9X9X9X9X",
"9X9X9X9X9X9X9X9X9X9X/ / / / / / / [ [ Q ; 7 7 6 3 3 3 3 & a Q.[.Y.Y.{.!.a , < 7 0 5 . P P I I I I I 9X9X9X9X9X9X9X9X9X9X9X9X9X9X",
"9X9X9X9X9X9X9X9X9X9X/ / / / / ( / / [ *.S t t e 6 & & & 3 a E.[.Y.Y.[.E.a 6 y d p v ) I I I I I I I 9X9X9X9X9X9X9X9X9X9X9X9X9X9X",
"9X9X9X9X9X9X9X9X9X9X/ / / / / / / [ [ *.A g c.t 0 7 0 * * b !.{.`.`.[.Q.s 0 t g g C ) T I I I E I I 9X9X9X9X9X9X9X9X9X9X9X9X9X9X",
"9X9X9X9X9X9X9X9X9X9X/ / / / / / / / [ *.A c.c.t t t c.9 O % ~.{._.Y.[.W.z t d j g v . I I I I I I P 9X9X9X9X9X9X9X9X9X9X9X9X9X9X",
"9X9X9X9X9X9X9X9X9X9X/ / / / / / / [ [ *.M u u c.c.f c.S ) _ ^.{._.Y.[.].m.f f g g v ) P I I I I I E 9X9X9X9X9X9X9X9X9X9X9X9X9X9X",
"9X9X9X9X9X9X9X9X9X9X/ / / / / / / / / ^ ' -.C g f f v.S ) | ^.{._.Y.[.W.B.g g g g v ) I I I I I I I 9X9X9X9X9X9X9X9X9X9X9X9X9X9X",
"9X9X9X9X9X9X9X9X9X9X/ / / / / / / / / [ [ *.A f c.t C n R | ^.|._.Y.[.!.F v p j g v ) I I I I I I I 9X9X9X9X9X9X9X9X9X9X9X9X9X9X",
"9X9X9X9X9X9X9X9X9X9X/ / / / / / / / / [ [ *.Z f f C @ R U | ^.{._._.{.~.M + C g k v ) I I I I I I I 9X9X9X9X9X9X9X9X9X9X9X9X9X9X",
"9X9X9X9X9X9X9X9X9X9X/ / / / / / / / / / [ *.Z c.c.c . I Y  .^.{._._.{.^.| R v g g v ) I I I I I I I 9X9X9X9X9X9X9X9X9X9X9X9X9X9X",
"9X9X9X9X9X9X9X9X9X9X/ / / / / / / / / / [ *.A f g v ) L L  ./.|._._.{.^._ ) S g g v . I I I I I I I 9X9X9X9X9X9X9X9X9X9X9X9X9X9X",
"9X9X9X9X9X9X9X9X9X9X/ / / / / / / / / / [ *.Z f g v ) L L  .^.{._._.[.^.| ) v g g v ) I I I I I I I 9X9X9X9X9X9X9X9X9X9X9X9X9X9X",
"9X9X9X9X9X9X9X9X/ / / / / / / / / / / [ [ *.A c.g v ) L L  ./.{._._.{.^.| ) v g g v ) P P I I I E P I I 9X9X9X9X9X9X9X9X9X9X9X9X",
"9X9X9X9X9X9X9X9X/ [ / / / [ / / / [ [ ( ;.-.J v.k v ) Y L | 1.{._._.}.^.| ) v g c.D M ) E I I T I I I I 9X9X9X9X9X9X9X9X9X9X9X9X",
"9X9X9X9X9X9X/ / [ / / / [ [ [ [ [ [ ] ;.K J.Z.D.c.v . T L } ^.}._.'.}.1.| R v v.D.Z.P.B ) P L I P I T I I I 9X9X9X9X9X9X9X9X9X9X",
"9X9X9X9X9X9X/ ^ Q W W W ` ` W ` W W ! > J N.N.b.h 9 + . X % ,.E.V.V.T.<.% O c d b.N.N.G % X X . . . . R E I 9X9X9X9X9X9X9X9X9X9X",
"9X9X9X9X9X9X9X9X- - = = = = = = = = - 9 e y r q 0 8 *     5 w i i q i w 5 * 8 0 q r r 0 5     *   * * o 9X9X9X9X9X9X9X9X9X9X9X9X",
"9X9X9X9X9X9X9X9X, , < 1 < < < < < < & < & & 3 , 3 , < < < , , , , , , , < , 3 3 , , , , , < < < , < < 1 9X9X9X9X9X9X9X9X9X9X9X9X"
};
