/* XPM */
static char *result[] = {
/* columns rows colors chars-per-pixel */
"64 64 214 2 ",
"   c #3E3A3E",
".  c #7D241B",
"X  c #7E2117",
"o  c #4D3536",
"O  c #6C3A35",
"+  c #6F2C33",
"@  c #3A423F",
"#  c #5D4E3D",
"$  c #764838",
"%  c #1A3F4D",
"&  c #393C47",
"*  c #453848",
"=  c #473747",
"-  c #493F50",
";  c #642E42",
":  c #7C3147",
">  c #1E424E",
",  c #1C4550",
"<  c #1B4A54",
"1  c #1E575E",
"2  c #20434E",
"3  c #2A484B",
"4  c #3A4348",
"5  c #224955",
"6  c #224D5A",
"7  c #264853",
"8  c #3F4D58",
"9  c #24515D",
"0  c #2C585C",
"q  c #36585A",
"w  c #265660",
"e  c #265A62",
"r  c #2A5E6D",
"t  c #295A64",
"y  c #355C6D",
"u  c #2E6364",
"i  c #2C626D",
"p  c #326764",
"a  c #366B6A",
"s  c #2D6474",
"d  c #2C6679",
"f  c #2C6B7B",
"g  c #2A6876",
"h  c #336877",
"j  c #2F737E",
"k  c #32727E",
"l  c #377977",
"z  c #485649",
"x  c #424A56",
"c  c #49545C",
"v  c #4A5F54",
"b  c #4F4246",
"n  c #615848",
"m  c #734B4B",
"M  c #46685B",
"N  c #68675A",
"B  c #7E744D",
"V  c #465867",
"C  c #525367",
"Z  c #505569",
"A  c #4F4D60",
"S  c #496666",
"D  c #536965",
"F  c #5A7767",
"G  c #4A7275",
"H  c #587C7A",
"J  c #496C72",
"K  c #757068",
"L  c #9E1606",
"P  c #9E1807",
"I  c #9C1A09",
"U  c #971A0C",
"Y  c #A01504",
"T  c #A01806",
"R  c #85241A",
"E  c #972212",
"W  c #961F39",
"Q  c #991E38",
"!  c #981D37",
"~  c #A21B36",
"^  c #B61533",
"/  c #BD1332",
"(  c #B91A37",
")  c #822B23",
"_  c #88382A",
"`  c #96203A",
"'  c #A5223F",
"]  c #C30F2F",
"[  c #C11131",
"{  c #B1581E",
"}  c #884927",
"|  c #92452D",
" . c #8E4630",
".. c #905329",
"X. c #9E6438",
"o. c #9C733C",
"O. c #9D622A",
"+. c #B9662D",
"@. c #A86332",
"#. c #B96C33",
"$. c #BD763D",
"%. c #B05A20",
"&. c #C17237",
"*. c #9C2642",
"=. c #992944",
"-. c #803850",
";. c #A92C45",
":. c #945D50",
">. c #3F8274",
",. c #568679",
"<. c #648C72",
"1. c #76A57F",
"2. c #9B8037",
"3. c #C69D38",
"4. c #D49734",
"5. c #CA8239",
"6. c #E49D2D",
"7. c #D1A139",
"8. c #F2AC29",
"9. c #F3AD27",
"0. c #ECAB3B",
"q. c #F1A936",
"w. c #F4B13D",
"e. c #AE884C",
"r. c #858968",
"t. c #BA8965",
"y. c #9AA96B",
"u. c #CE925B",
"i. c #CC9050",
"p. c #E9995C",
"a. c #D6A947",
"s. c #F7B847",
"d. c #EEA64A",
"f. c #DA9671",
"g. c #D4A76A",
"h. c #C7A475",
"j. c #D3B477",
"k. c #EAAE73",
"l. c #EAB879",
"z. c #F1B46F",
"x. c #FFC275",
"c. c #2F7582",
"v. c #327581",
"b. c #347E84",
"n. c #537E81",
"m. c #34848B",
"M. c #358B8C",
"N. c #3A8385",
"B. c #3A928E",
"V. c #369293",
"C. c #399495",
"Z. c #3B9E9C",
"A. c #3A9D9A",
"S. c #358B91",
"D. c #3CA19D",
"F. c #3BA3A1",
"G. c #3AA7A3",
"H. c #548887",
"J. c #479581",
"K. c #439695",
"L. c #4B8D84",
"P. c #689787",
"I. c #5DA689",
"U. c #45AB9F",
"Y. c #47A599",
"T. c #56AB97",
"R. c #55B092",
"E. c #5AB99A",
"W. c #58B697",
"Q. c #5BB18F",
"!. c #75A681",
"~. c #76A882",
"^. c #77B384",
"/. c #69B296",
"(. c #6EAE8E",
"). c #45ADA0",
"_. c #48AFA1",
"`. c #4BB2A1",
"'. c #55BDA2",
"]. c #65B7A1",
"[. c #5CC6A4",
"{. c #5CC9A6",
"}. c #59C9A7",
"|. c #66D5A9",
" X c #68D4A7",
".X c #6FCCA5",
"XX c #869889",
"oX c #A3A88B",
"OX c #A7B393",
"+X c #8FBBA1",
"@X c #C9AD83",
"#X c #CDB88B",
"$X c #C3B992",
"%X c #D4B686",
"&X c #E7BE87",
"*X c #ABC39E",
"=X c #87D5A6",
"-X c #AAD5A7",
";X c #81C69F",
":X c #D5C798",
">X c #EAC68E",
",X c #FCC387",
"<X c #F9D488",
"1X c #F2D79F",
"2X c #D8DAA6",
"3X c #D0D6A4",
"4X c #F5DDA6",
"5X c #F9DDA6",
"6X c #F6DFA9",
"7X c #E8DFA8",
"8X c #FAE2AA",
"9X c #F6E0AA",
"0X c #E0E0AA",
"qX c None",
/* pixels */
"qXqXqXqXqXqXqXqXqXqXqXqXqXqXqXqXqXqXqXqXqXqXqXqXqXqX8.8.qXqX8.8.qXqX8.8.qXqXqXqXqXqXqXqXqXqXqXqXqXqXqXqXqXqXqXqXqXqXqXqXqXqXqXqX",
"qXqXqXqXqXqXqXqXqXqXqXqXqXqXqXqXqXqXqXqXqXqXqXqXqXqX8.8.qXqX8.8.qXqX8.8.qXqXqXqXqXqXqXqXqXqXqXqXqXqXqXqXqXqXqXqXqXqXqXqXqXqXqXqX",
"qXqXqXqXqXqXqXqXqXqXqXqXqXqXqXqXqXqXqXqXqXqXqXqXqXqX8.8.8.8.8.8.9.8.8.8.qXqXqXqXqXqXqXqXqXqXqXqXqXqXqXqXqXqXqXqXqXqXqXqXqXqXqXqX",
"qXqXqXqXqXqXqXqXqXqXqXqXqXqXqXqXqXqXqXqXqXqXqXqXqXqX8.8.q.0.q.0.q.q.8.8.qXqXqXqXqXqXqXqXqXqXqXqXqXqXqXqXqXqXqXqXqXqXqXqXqXqXqXqX",
"qXqXqXqXqXqXqXqXqXqXqXqXqXqXqXqXqXqXqXqXqXqXqXqXqXqX8.q.d.p.p.p.p.p.q.9.qXqXqXqXqXqXqXqXqXqXqXqXqXqXqXqXqXqXqXqXqXqXqXqXqXqXqXqX",
"qXqXqXqXqXqXqXqXqXqXqXqXqXqXqXqXqXqXqXqXqXqXqXqXqXqX6.4.$.t.f.f.t.$.4.6.qXqXqXqXqXqXqXqXqXqXqXqXqXqXqXqXqXqXqXqXqXqXqXqXqXqXqXqX",
"qXqXqXqXqXqXqXqXqXqXqXqXqXqXqXqXqXqX4X4X6X6X4X6X9Xl.5.O.N K @Xf.K n O.5.l.9X6X6X5X4XqXqXqXqXqXqXqXqXqXqXqXqXqXqXqXqXqXqXqXqXqXqX",
"qXqXqXqXqXqXqXqXqXqXqXqXqXqXqXqXqXqX5X4X4X4X4X6X8X&X$...n K @X@XK n ..$.>X9X4X5X5X5XqXqXqXqXqXqXqXqXqXqXqXqXqXqXqXqXqXqXqXqXqXqX",
"qXqXqXqXqXqXqXqXqXqXqXqXqXqXqXqX6X6X6X5X5X5X4X6X8X&X#.@.u.%X&X&X#Xt.@.$.&X6X4X4X4X6X5X5XqXqXqXqXqXqXqXqXqXqXqXqXqXqXqXqXqXqXqXqX",
"qXqXqXqXqXqXqXqXqXqXqXqXqXqXqXqX3X3X2X2X7X6X4X1X>Xf.#.&.k.&Xk.k.,Xk.#.+.g.>X4X1X2X2X2X3XqXqXqXqXqXqXqXqXqXqXqXqXqXqXqXqXqXqXqXqX",
"qXqXqXqXqXqXqXqXqXqXqXqX X X X.X=X=X=X-X0X5X8X>Xi.#.{ &.k.k.i.5.l.k.&.%.#.u.>X0X-X=X=X=X.X XqXqXqXqXqXqXqXqXqXqXqXqXqXqXqXqXqXqX",
"qXqXqXqXqXqXqXqXqXqXqXqX[.[.[.[.}.{.{..XOX3X4X&Xo.} } X.u.u.+.+.u.u.X...#.e.#X*X.X}.}.}.[.[.qXqXqXqXqXqXqXqXqXqXqXqXqXqXqXqXqXqX",
"qXqXqXqXqXqXqXqXqXqX|.{.`.U.U.U._.).).K.H.XX2X#XK @ 4 # X.+.{ { &.O.z N h.j.XXH.K.D.).U.U.`.[. XqXqXqXqXqXqXqXqXqXqXqXqXqXqXqXqX",
"qXqXqXqXqXqXqXqXqXqX[.'.Y.Z.Z.Z.Z.Z.C.b.c.n.oXoXM , 0 M B o.o.o.o.:.M ,.oXoXG j M.A.Z.Z.Z.Y.'.[.qXqXqXqXqXqXqXqXqXqXqXqXqXqXqXqX",
"qXqXqXqXqXqXqXqX X[.`.Y.Y.Z.Z.Z.D.C.v.v.d v.n.G 9 0 J.Q.(.^.^.^.1.1.W.,.,.M g g j b.C.Z.Z.Y.)._.[. XqXqXqXqXqXqXqXqXqXqXqXqXqXqX",
"qXqXqXqXqXqXqXqX X[.).Z.Z.D.Z.Z.C.m.v.d h s i t u >.E.|.|.|.|.|.|.|.|.E.>.1 u i s j m.A.Z.Z.A.).'.{.qXqXqXqXqXqXqXqXqXqXqXqXqXqX",
"qXqXqXqXqXqXqXqX X{._.Z.D.D.F.C.m.k d h h r 6 t J.E. X|.|. X|. X|. X X{.E.J.p 9 r v.v.v.C.D.D.Y.U.U.qXqXqXqXqXqXqXqXqXqXqXqXqXqX",
"qXqXqXqXqXqXqXqXE.T.K.C.C.C.C.m.v.s d d s r w l T.{.[.[.[.[.[.[.[.[.[.}.}.T.a e r r s v.M.C.C.C.C.C.qXqXqXqXqXqXqXqXqXqXqXqXqXqX",
"qXqXqXqXqXqXqXqXb.b.v.v.c.c.v.v.h d h i w t j B.Y.).U.U.U.U.U.U.U.U.U.U.).U.B.j w 9 r v.v.v.v.v.v.c.qXqXqXqXqXqXqXqXqXqXqXqXqXqX",
"qXqXqXqXqXqXqXqXd h Z Z C V y r r i s t 5 0 M.G.D.A.Y.Z.A.A.A.Z.A.A.Z.Z.Z.D.D.M.w 7 t i r r r p V c qXqXqXqXqXqXqXqXqXqXqXqXqXqX",
"qXqXqXqXqXqXqXqXqXqX=.*.*.: 8 < 6 6 6 5 2 e M.D.D.D.Z.Z.Z.Z.D.Z.A.Z.Z.Z.K.D.).M.t 2 5 6 6 6 6 4 O R qXqXqXqXqXqXqXqXqXqXqXqXqXqX",
"qXqXqXqXqXqXqXqXqXqX/ [ ] ! * , > 2 2 > > w N.C.C.C.C.C.C.C.C.K.T.(./.T.K.C.C.b.w % % 2 2 > >   X L qXqXqXqXqXqXqXqXqXqXqXqXqXqX",
"qXqXqXqXqXqXqXqXqXqX/ [ ] Q * , > 2 2 2 > 9 g v.v.v.v.v.k k k H.OX%X#XoXH.k v.h 6 2 7 % 2 , >   . T qXqXqXqXqXqXqXqXqXqXqXqXqXqX",
"qXqXqXqXqXqXqXqXqXqX/ [ [ ~ ; - 3 > > 2 2 6 i h d h g h d s s H h.z.&X@XH.j d r 7 2 % 7 > > ,   . T qXqXqXqXqXqXqXqXqXqXqXqXqXqX",
"qXqXqXqXqXqXqXqXqXqX/ / / ^ ~ + & , , 2 2 6 i h d h g d d d d F i.s.x.#XI.S.v.r 6 > > 2 2 > >   . T qXqXqXqXqXqXqXqXqXqXqXqXqXqX",
"qXqXqXqXqXqXqXqXqXqX/ / / [ [ Q * , , 2 2 5 t r s d h s d d d F 3.s.g.oXT.K.M.k a 0 6 > 2 2   o R I qXqXqXqXqXqXqXqXqXqXqXqXqXqX",
"qXqXqXqXqXqXqXqXqXqX/ / / [ [ ` * , , 2 2 2 < w r d d s d d d F 3.7.r.H.K._.W.E.W.J.0 > > & + R U I qXqXqXqXqXqXqXqXqXqXqXqXqXqX",
"qXqXqXqXqXqXqXqXqXqX/ / / [ [ ~ ; & 2 2 2 6 0 a l N.b.L.N.n.H r.a.i.F j S.K.'.{.{.R.>.u u z . L I I qXqXqXqXqXqXqXqXqXqXqXqXqXqX",
"qXqXqXqXqXqXqXqXqXqX/ / / / / ^ ~ : & , % 0 J.W./.'.E.E.E./.OXj.l.h.H d c.b.K._.).U.T.W.R.<._ L P I qXqXqXqXqXqXqXqXqXqXqXqXqXqX",
"qXqXqXqXqXqXqXqXqXqX/ / / / / / ] ! * < 9 l R.{.{.{.{.}.{.;X:X,X,X@XH d d c.S.C.A.).'.{.}.!. .I P I qXqXqXqXqXqXqXqXqXqXqXqXqXqX",
"qXqXqXqXqXqXqXqXqXqX/ / / / / [ ] Q * 1 j C.Y.)._._._.).).].$X,X,X@XH d d f c.b.V.G.).).`.,._ U I I qXqXqXqXqXqXqXqXqXqXqXqXqXqX",
"qXqXqXqXqXqXqXqXqXqX/ / / / / / [ ~ ; 8 l V.A.D.Z.D.Z.K.I.y.j.z.x.g.r.F F D a s b.S.A.G.G.,._ L I I qXqXqXqXqXqXqXqXqXqXqXqXqXqX",
"qXqXqXqXqXqXqXqXqXqX/ / / / / / / ^ ~ : 8 g V.D.A.G.A.1.y.a.0.w.w.0.3.3.3.2.v 9 9 g B.G.G.G _ L I I qXqXqXqXqXqXqXqXqXqXqXqXqXqX",
"qXqXqXqXqXqXqXqXqXqX/ / / / / / / ] ] ~ O 8 l M.M.M.M.<.2.4.0.s.s.s.s.s.7.2.z > % 0 J ,.,.N _ P I I qXqXqXqXqXqXqXqXqXqXqXqXqXqX",
"qXqXqXqXqXqXqXqXqXqX/ / / / / / / / / ^ ! : x e 1 1 0 0 v r.j.<X<X<X<Xj.B z 3 , , 4 O _ O _ E I I I qXqXqXqXqXqXqXqXqXqXqXqXqXqX",
"qXqXqXqXqXqXqXqXqXqX/ / / ^ / / / / / ] ] ! * > , < > > > v $X8X7X9X0XOXS > > , ,   . Y T T T I I I qXqXqXqXqXqXqXqXqXqXqXqXqXqX",
"qXqXqXqXqXqXqXqXqXqX/ / / / / / / / / / ] ` = , , > > > % D $X8X8X7X-X/.p > > > ,   X T T I I I I I qXqXqXqXqXqXqXqXqXqXqXqXqXqX",
"qXqXqXqXqXqXqXqXqXqX/ / / / / / / / / ] [ ` = > , > > > 2 D $X4X2X-X.XR.p > > , >   . I I I U I I I qXqXqXqXqXqXqXqXqXqXqXqXqXqX",
"qXqXqXqXqXqXqXqXqXqX/ / / / / / / / / / [ ` * , , > > , % D #X2X+X/.{.R.p > > , >   ) I I I I I U I qXqXqXqXqXqXqXqXqXqXqXqXqXqX",
"qXqXqXqXqXqXqXqXqXqX/ / / / / / / / / / ] ` * , , > > > % D OX-X].).[.R.p > > , 5 & . T I I I I I I qXqXqXqXqXqXqXqXqXqXqXqXqXqX",
"qXqXqXqXqXqXqXqXqXqX/ / / / / / / / / [ ] ! = % > 2 5 > > p (..X_.).[.T.p > 2 , , & . I I I I U I I qXqXqXqXqXqXqXqXqXqXqXqXqXqX",
"qXqXqXqXqXqXqXqXqXqX/ / / / / / / / [ ^ ~ : & , > 2 > > 2 p R.[.).Y.{.R.p > > > , o . P I I I I I I qXqXqXqXqXqXqXqXqXqXqXqXqXqX",
"qXqXqXqXqXqXqXqXqXqX/ / / / / / / [ [ Q ; & & < > > 2 2 2 p Q.[.U.U.{.R.p > > 2 ,   . I T I I I I I qXqXqXqXqXqXqXqXqXqXqXqXqXqX",
"qXqXqXqXqXqXqXqXqXqX/ / / / / / / / [ ! * , , , 5 2 2 > % p R.[.U.U.[.R.p > 2 , ,   . P I I U I I I qXqXqXqXqXqXqXqXqXqXqXqXqXqX",
"qXqXqXqXqXqXqXqXqXqX/ / / / / / / [ [ W * < , , 2 2 2 2 > p Q.{.U.U.[.Q.p > > > ,   . I I I I I I I qXqXqXqXqXqXqXqXqXqXqXqXqXqX",
"qXqXqXqXqXqXqXqXqXqX/ / / / / / / [ [ W * , , 2 2 2 > > > p R.{.U._.[.R.p > > > < o . T I I I I I U qXqXqXqXqXqXqXqXqXqXqXqXqXqX",
"qXqXqXqXqXqXqXqXqXqX/ / / / / / / / [ W * , % 2 > 2 2 2 % p R.[.U._.{.R.p > 2 > ,   X I T I I U I I qXqXqXqXqXqXqXqXqXqXqXqXqXqX",
"qXqXqXqXqXqXqXqXqXqX/ / / ( / / / [ [ W - 6 6 5 5 2 2 > > p R.}.U.U.{.Q.p > 5 6 1 & . I I I I I I I qXqXqXqXqXqXqXqXqXqXqXqXqXqX",
"qXqXqXqXqXqXqXqXqXqX/ / / / / / / / [ *.A r r w 5 % % % > u R.[._.).}.R.u 5 t i i c ) T I I U I I I qXqXqXqXqXqXqXqXqXqXqXqXqXqX",
"qXqXqXqXqXqXqXqXqXqX/ / / / / / / [ [ *.Z c.c.r 9 6 w & & v Q.}.).).{.T.a 9 i k f V ) I I I I I I I qXqXqXqXqXqXqXqXqXqXqXqXqXqX",
"qXqXqXqXqXqXqXqXqXqX/ / / / / / / / / =.Z c.d r r r d x + $ !.{.).Y.[.W.k i s f f c ) I I I I I I I qXqXqXqXqXqXqXqXqXqXqXqXqXqX",
"qXqXqXqXqXqXqXqXqXqX/ / / / / / / / [ ' A C y c.c.d c.C . | !.{.).).[.E.L.d d d f c ) I I I I I I U qXqXqXqXqXqXqXqXqXqXqXqXqXqX",
"qXqXqXqXqXqXqXqXqXqX/ / / / / / / / / ( ' : V d d d c.c ) _ !.{.).).[.E.M.d d h f c . I I I I I E I qXqXqXqXqXqXqXqXqXqXqXqXqXqX",
"qXqXqXqXqXqXqXqXqXqX/ / / / / / / / / / [ *.C d d s a ; R | !.{.).).[./.F V h g f c ) I I I I I I I qXqXqXqXqXqXqXqXqXqXqXqXqXqX",
"qXqXqXqXqXqXqXqXqXqX/ / / / / / / / / [ [ *.C c.c.y O E I  .!.{.G.U.[.(.$ O V f j c ) T I I I I I I qXqXqXqXqXqXqXqXqXqXqXqXqXqX",
"qXqXqXqXqXqXqXqXqXqX/ ( / / / / / / / [ [ *.A d d A ) Y Y  .!.{.U.U.[.1.| R c f f V ) I I I I I I I qXqXqXqXqXqXqXqXqXqXqXqXqXqX",
"qXqXqXqXqXqXqXqXqXqX/ / / / / / / / / / [ =.C c.f c ) L L  .!.}.).).}.1.| R c f f c . I I I I I I I qXqXqXqXqXqXqXqXqXqXqXqXqXqX",
"qXqXqXqXqXqXqXqXqXqX/ / / / / / / / / [ [ *.A c.f c ) P L  .!.}.).).}.~.| ) c f f c ) I I I I I I I qXqXqXqXqXqXqXqXqXqXqXqXqXqX",
"qXqXqXqXqXqXqXqX/ / / / / / / / / / / [ ] *.Z c.f c ) P L  .~.{.U.).}.1.| ) c f f c ) T I I I I I U I I qXqXqXqXqXqXqXqXqXqXqXqX",
"qXqXqXqXqXqXqXqX/ [ / / / [ / / / [ / ( ;.-.J v.j c R L L  .1.{.).).}.~.| ) c f c.S m ) E T I I I T I I qXqXqXqXqXqXqXqXqXqXqXqX",
"qXqXqXqXqXqX/ / / / / / [ [ [ [ / [ ] ;.K H.C.M.c.c ) Y L } ~.{.).`.}.1.| . c j M.C.L.N _ P P I T I I I I U qXqXqXqXqXqXqXqXqXqX",
"qXqXqXqXqXqX[ ^ Q ` ` ` W W ` ` ! ! Q : J M.M.m.g q O X X $ <.Y.B.B.Y.<.$ + x g m.M.M.G O X . . . . . R E I qXqXqXqXqXqXqXqXqXqX",
"qXqXqXqXqXqXqXqX= = * * * * * * * * - 4 w t e 0 9 7 &     4 q u e u u q 4 4 7 9 9 e e 0 4         & & o qXqXqXqXqXqXqXqXqXqXqXqX",
"qXqXqXqXqXqXqXqX, 2 , , , , , , , , , 2 % % > > 2 > > > > > > > > > > > > > 2 2 > > > > > > , , , , , , qXqXqXqXqXqXqXqXqXqXqXqX"
};
