/* XPM */
static char *result[] = {
/* columns rows colors chars-per-pixel */
"64 64 214 2 ",
"   c #3E3A3E",
".  c #7D241B",
"X  c #7E2117",
"o  c #4D3536",
"O  c #6C3A35",
"+  c #6F2C33",
"@  c #3A423F",
"#  c #5D4E3D",
"$  c #764838",
"%  c #1B3F4D",
"&  c #393C47",
"*  c #453848",
"=  c #473747",
"-  c #493F50",
";  c #642E42",
":  c #7C3147",
">  c #1E424E",
",  c #1C4550",
"<  c #1B4A54",
"1  c #1E575E",
"2  c #20434E",
"3  c #2C484B",
"4  c #3A4348",
"5  c #224955",
"6  c #224D5A",
"7  c #264853",
"8  c #3F4D58",
"9  c #24515D",
"0  c #2C585C",
"q  c #36585A",
"w  c #265660",
"e  c #265A62",
"r  c #2A5E6D",
"t  c #295A64",
"y  c #355C6D",
"u  c #2E6464",
"i  c #2C626D",
"p  c #326764",
"a  c #376A68",
"s  c #2D6474",
"d  c #2C6679",
"f  c #2C6B7B",
"g  c #2A6876",
"h  c #336877",
"j  c #2F737E",
"k  c #32727E",
"l  c #377977",
"z  c #495649",
"x  c #49545C",
"c  c #4A5F54",
"v  c #47474F",
"b  c #615848",
"n  c #734B4B",
"m  c #46685B",
"M  c #68675A",
"N  c #71734D",
"B  c #465867",
"V  c #525367",
"C  c #505569",
"Z  c #4F4D60",
"A  c #496766",
"S  c #566A64",
"D  c #597768",
"F  c #587C7A",
"G  c #497074",
"H  c #727267",
"J  c #9E1606",
"K  c #9E1807",
"L  c #9C1A09",
"P  c #971A0C",
"I  c #A01504",
"U  c #A01806",
"Y  c #85241A",
"T  c #972212",
"R  c #961F39",
"E  c #991E38",
"W  c #981D37",
"Q  c #A21B36",
"!  c #B61533",
"~  c #BD1332",
"^  c #B91A37",
"/  c #822B23",
"(  c #88382A",
")  c #96203A",
"_  c #A5223F",
"`  c #C30F2F",
"'  c #C11131",
"]  c #B1581E",
"[  c #92452D",
"{  c #8E4630",
"}  c #8C4E28",
"|  c #9C733C",
" . c #9E6332",
".. c #B9662D",
"X. c #A86332",
"o. c #B96C33",
"O. c #BD763D",
"+. c #B05A20",
"@. c #C17237",
"#. c #9C2642",
"$. c #992944",
"%. c #803850",
"&. c #A92C45",
"*. c #945D50",
"=. c #3F8274",
"-. c #568679",
";. c #648C72",
":. c #76A57F",
">. c #7DAF76",
",. c #7DB077",
"<. c #9C8037",
"1. c #C89D37",
"2. c #CF8937",
"3. c #E49D2D",
"4. c #D2A53B",
"5. c #F2AC29",
"6. c #F3AD27",
"7. c #EEAA3B",
"8. c #F1A936",
"9. c #F9B23D",
"0. c #AE884C",
"q. c #868968",
"w. c #BA8965",
"e. c #9AA96B",
"r. c #CE925B",
"t. c #CC9050",
"y. c #E9995C",
"u. c #D0AE44",
"i. c #F3A84F",
"p. c #DA9671",
"a. c #D5A76A",
"s. c #C7A475",
"d. c #D6B378",
"f. c #EAAE73",
"g. c #EAB879",
"h. c #F2B46F",
"j. c #FFC275",
"k. c #2F7582",
"l. c #327581",
"z. c #347E84",
"x. c #537E81",
"c. c #34848B",
"v. c #358B8C",
"b. c #3A8385",
"n. c #3A928E",
"m. c #369293",
"M. c #399495",
"N. c #3B9E9C",
"B. c #3A9D9A",
"V. c #358B91",
"C. c #3CA19D",
"Z. c #3BA3A1",
"A. c #3CA9A2",
"S. c #548887",
"D. c #479581",
"F. c #439695",
"G. c #4B8D84",
"H. c #689787",
"J. c #45AB9F",
"K. c #47A599",
"L. c #51AE94",
"P. c #5BA799",
"I. c #55B192",
"U. c #5AB99A",
"Y. c #58B697",
"T. c #5DA98B",
"R. c #75A681",
"E. c #73AA82",
"W. c #77B384",
"Q. c #6BB294",
"!. c #6EAE8C",
"~. c #45ADA0",
"^. c #48AEA1",
"/. c #4BB2A1",
"(. c #55BDA2",
"). c #5CADA1",
"_. c #65B7A1",
"`. c #5CC6A4",
"'. c #5CC9A7",
"]. c #5BCBA8",
"[. c #57C5A5",
"{. c #64CCA5",
"}. c #74C7A5",
"|. c #66D5A9",
" X c #68D4A7",
".X c #77D3A7",
"XX c #869889",
"oX c #A3A88B",
"OX c #A8B792",
"+X c #A4AD94",
"@X c #8FBBA1",
"#X c #C9AD83",
"$X c #CDB88B",
"%X c #C8BA91",
"&X c #D4B686",
"*X c #E7BE87",
"=X c #81C38E",
"-X c #ABC39E",
";X c #87D5A6",
":X c #ABD4A7",
">X c #D5C798",
",X c #EAC68E",
"<X c #FCC387",
"1X c #F2D79F",
"2X c #D9D9A6",
"3X c #D0D6A4",
"4X c #E5DFA8",
"5X c #F5DDA6",
"6X c #F9DDA6",
"7X c #F6DFA9",
"8X c #F7E1A9",
"9X c #F9E2AB",
"0X c #E0E0A9",
"qX c None",
/* pixels */
"qXqXqXqXqXqXqXqXqXqXqXqXqXqXqXqXqXqXqXqXqXqXqXqXqXqX5.5.qXqX5.5.qXqX5.5.qXqXqXqXqXqXqXqXqXqXqXqXqXqXqXqXqXqXqXqXqXqXqXqXqXqXqXqX",
"qXqXqXqXqXqXqXqXqXqXqXqXqXqXqXqXqXqXqXqXqXqXqXqXqXqX5.5.qXqX5.5.qXqX5.5.qXqXqXqXqXqXqXqXqXqXqXqXqXqXqXqXqXqXqXqXqXqXqXqXqXqXqXqX",
"qXqXqXqXqXqXqXqXqXqXqXqXqXqXqXqXqXqXqXqXqXqXqXqXqXqX5.5.5.5.5.5.6.5.5.5.qXqXqXqXqXqXqXqXqXqXqXqXqXqXqXqXqXqXqXqXqXqXqXqXqXqXqXqX",
"qXqXqXqXqXqXqXqXqXqXqXqXqXqXqXqXqXqXqXqXqXqXqXqXqXqX5.5.8.8.8.7.8.8.5.5.qXqXqXqXqXqXqXqXqXqXqXqXqXqXqXqXqXqXqXqXqXqXqXqXqXqXqXqX",
"qXqXqXqXqXqXqXqXqXqXqXqXqXqXqXqXqXqXqXqXqXqXqXqXqXqX6.8.i.y.y.y.y.i.8.6.qXqXqXqXqXqXqXqXqXqXqXqXqXqXqXqXqXqXqXqXqXqXqXqXqXqXqXqX",
"qXqXqXqXqXqXqXqXqXqXqXqXqXqXqXqXqXqXqXqXqXqXqXqXqXqX3.2.0.w.p.p.w.0.2.3.qXqXqXqXqXqXqXqXqXqXqXqXqXqXqXqXqXqXqXqXqXqXqXqXqXqXqXqX",
"qXqXqXqXqXqXqXqXqXqXqXqXqXqXqXqXqXqX5X5X5X5X5X8X9Xg.2. .b H s.p.H b  .2.g.9X7X7X5X5XqXqXqXqXqXqXqXqXqXqXqXqXqXqXqXqXqXqXqXqXqXqX",
"qXqXqXqXqXqXqXqXqXqXqXqXqXqXqXqXqXqX6X5X5X5X5X5X9X*XO.} b H &X&XH b } O.*X9X7X5X5X6XqXqXqXqXqXqXqXqXqXqXqXqXqXqXqXqXqXqXqXqXqXqX",
"qXqXqXqXqXqXqXqXqXqXqXqXqXqXqXqX9X6X6X8X8X5X5X8X7X*XO.X.r.&X*X*X&Xr.X.o.*X7X7X5X5X7X7X6XqXqXqXqXqXqXqXqXqXqXqXqXqXqXqXqXqXqXqXqX",
"qXqXqXqXqXqXqXqXqXqXqXqXqXqXqXqX3X3X2X2X5X8X5X1X,Xa.o.@.f.*Xf.h.*Xf.@.o.a.*X5X5X2X3X2X3XqXqXqXqXqXqXqXqXqXqXqXqXqXqXqXqXqXqXqXqX",
"qXqXqXqXqXqXqXqXqXqXqXqX X{. X.X;X;X;X:X2X9X9X,Xr...+.o.f.f.t.O.g.f.@.] o.r.,X4X:X;X;X;X.X XqXqXqXqXqXqXqXqXqXqXqXqXqXqXqXqXqXqX",
"qXqXqXqXqXqXqXqXqXqXqXqX`.`.`.[.'.[.[.}.-X>X5X*X| } { X.r.r.....r.r. .[ X.t.&X-X}.[.[.[.`.`.qXqXqXqXqXqXqXqXqXqXqXqXqXqXqXqXqXqX",
"qXqXqXqXqXqXqXqXqXqX X`./.J.J.J.^.~.~.F.S.XX>X%XM 4 @ # X...] ] @. .# b s.OXH.S.K.~.^.J.J./.`. XqXqXqXqXqXqXqXqXqXqXqXqXqXqXqXqX",
"qXqXqXqXqXqXqXqXqXqX{.(.J.B.B.B.N.N.m.c.k.x.+XoXB < 0 m N | | | | *.c -.oXoXF j c.m.N.N.N.K.(.`.qXqXqXqXqXqXqXqXqXqXqXqXqXqXqXqX",
"qXqXqXqXqXqXqXqX X`./.J.C.C.N.N.C.M.z.k f l.-.G 0 9 D.Y.!.W.W.W.,.!.I.T.D A a d k.z.M.C.N.C.~./.`. XqXqXqXqXqXqXqXqXqXqXqXqXqXqX",
"qXqXqXqXqXqXqXqX X`.J.B.C.C.Z.F.M.c.l.d h s r u e -.U. X|.|.|. X].|.|.U.=.e r i s j V.M.N.N.N.K.(.`.qXqXqXqXqXqXqXqXqXqXqXqXqXqX",
"qXqXqXqXqXqXqXqX X'.J.C.C.C.Z.M.z.l.f h d r 6 t D.U.{. X X|. X X|. X X{.Y.D.t w r l.l.z.M.C.C.K.^.^.qXqXqXqXqXqXqXqXqXqXqXqXqXqX",
"qXqXqXqXqXqXqXqXU.P.F.M.m.m.M.v.l.h h d s r w l L.].'.`.`.`.`.`.`.`.`.'.'.L.l e r r d l.V.M.m.M.m.m.qXqXqXqXqXqXqXqXqXqXqXqXqXqX",
"qXqXqXqXqXqXqXqXz.z.l.k.k.l.l.k h d h r 9 e j n.K.~.J.^.^.J.J.J.J.J.J.J.J.K.n.l w 9 i h l.l.l.l.k.l.qXqXqXqXqXqXqXqXqXqXqXqXqXqX",
"qXqXqXqXqXqXqXqXd h C C C B y i r r s t 5 e n.C.K.N.N.N.N.N.N.N.B.B.N.N.C.C.Z.v.w 7 t i r r r p B x qXqXqXqXqXqXqXqXqXqXqXqXqXqX",
"qXqXqXqXqXqXqXqXqXqX$.#.#.: 8 < 6 6 6 5 2 e v.Z.N.N.N.N.N.N.N.N.N.B.B.N.F.Z.Z.v.t 2 5 6 6 6 6 4 O Y qXqXqXqXqXqXqXqXqXqXqXqXqXqX",
"qXqXqXqXqXqXqXqXqXqX~ ' ` W * , > 2 2 > 2 9 b.M.M.m.M.M.M.M.M.F.P.P.!.P.F.M.M.b.w % % 2 2 , >   X J qXqXqXqXqXqXqXqXqXqXqXqXqXqX",
"qXqXqXqXqXqXqXqXqXqX' ' ` E * , > 2 2 2 2 9 g l.l.l.l.l.l.k k S.OX$X%XoXS.h l.h 6 2 2 2 2 > >   . U qXqXqXqXqXqXqXqXqXqXqXqXqXqX",
"qXqXqXqXqXqXqXqXqXqX~ ~ ' Q ; - 3 > > 2 2 6 i h h h s d h s s F s.h.<X#XS.k.d r 5 2 2 2 , > >   . U qXqXqXqXqXqXqXqXqXqXqXqXqXqX",
"qXqXqXqXqXqXqXqXqXqX~ ~ ~ ! Q + & , , 2 2 6 i h d h d h d d d D u.i.j.$XH.c.k.r 6 > > 2 2 , >   . U qXqXqXqXqXqXqXqXqXqXqXqXqXqX",
"qXqXqXqXqXqXqXqXqXqX~ ~ ~ ' ' E * , , 2 > 5 t i s d d s d g d D 1.9.a.oXP.N.v.k a 0 5 > 2 2   o Y K qXqXqXqXqXqXqXqXqXqXqXqXqXqX",
"qXqXqXqXqXqXqXqXqXqX~ ~ ~ ' ' ) * , , 2 2 2 < 1 r s g h d g d D 1.4.q.S.F.~.Y.U.Y.D.0 > > & + Y P L qXqXqXqXqXqXqXqXqXqXqXqXqXqX",
"qXqXqXqXqXqXqXqXqXqX~ ~ ~ ' ' Q ; & 2 > > 7 u p l G.b.b.b.x.F q.u.t.D k.V.F.(.{.{.Y.l p u z . J K L qXqXqXqXqXqXqXqXqXqXqXqXqXqX",
"qXqXqXqXqXqXqXqXqXqX~ ~ ~ ~ ~ ! Q : & , % 0 -.(.U.U.U.U.U.Q.OXd.g.s.F d k.k.F.~.^.J.L.I.I.;.( J L L qXqXqXqXqXqXqXqXqXqXqXqXqXqX",
"qXqXqXqXqXqXqXqXqXqX~ ~ ~ ~ ~ ' ` W * < 9 l I.].'.`.'.].[.;X>X<X<X#XF g d k.V.B.N.~.(.].].R.{ L L L qXqXqXqXqXqXqXqXqXqXqXqXqXqX",
"qXqXqXqXqXqXqXqXqXqX~ ~ ~ ~ ~ ~ ` E * 1 j M.K.J.^.^.^.~.A.).%X<X<X#XF d d f k.z.m.Z.~.~.~.-.( P L L qXqXqXqXqXqXqXqXqXqXqXqXqXqX",
"qXqXqXqXqXqXqXqXqXqX~ ~ ~ ~ ~ ~ ' Q ; 8 l m.C.C.N.N.N.F.T.e.d.h.j.a.q.D D S a s z.m.B.Z.A.-.( J L L qXqXqXqXqXqXqXqXqXqXqXqXqXqX",
"qXqXqXqXqXqXqXqXqXqX~ ~ ~ ~ ~ ~ ~ ! Q : q g n.C.A.A.B.:.e.4.7.9.9.7.4.4.1.<.m 9 9 g n.C.A.-.( L L L qXqXqXqXqXqXqXqXqXqXqXqXqXqX",
"qXqXqXqXqXqXqXqXqXqX~ ~ ~ ~ ~ ~ ~ ` ` Q + 8 l v.v.=.v.;.0.1.4.u.u.u.u.u.4.<.z > % 9 G -.F S / K K L qXqXqXqXqXqXqXqXqXqXqXqXqXqX",
"qXqXqXqXqXqXqXqXqXqX~ ~ ~ ~ ~ ~ ~ ~ ' ! W : 8 e 1 1 0 0 z ;.>.=XT.E.W.,.N z 3 > , 4 O ( ( ( T J L L qXqXqXqXqXqXqXqXqXqXqXqXqXqX",
"qXqXqXqXqXqXqXqXqXqX~ ~ ~ ! ~ ~ ~ ~ ~ ~ ` W = > , < > > > q L.[.C./..XQ.u > > > ,   . J K K L P L L qXqXqXqXqXqXqXqXqXqXqXqXqXqX",
"qXqXqXqXqXqXqXqXqXqX~ ~ ~ ~ ~ ~ ~ ~ ~ ~ ' W = , , , > > % p L.'.J.).:XOXA , > > , o . K L L L L L L qXqXqXqXqXqXqXqXqXqXqXqXqXqX",
"qXqXqXqXqXqXqXqXqXqX~ ~ ~ ~ ~ ~ ~ ~ ~ ~ ' W = > , , > > > u I.{._.@X2X%XA > > , ,   . P L L L L L L qXqXqXqXqXqXqXqXqXqXqXqXqXqX",
"qXqXqXqXqXqXqXqXqXqX~ ~ ~ ~ ~ ~ ~ ~ ~ ` ' ) * , > > > > > p I..X:X2X5X%XA > > > ,   . U L L L L P L qXqXqXqXqXqXqXqXqXqXqXqXqXqX",
"qXqXqXqXqXqXqXqXqXqX~ ~ ~ ~ ~ ~ ~ ~ ~ ~ ~ ) * , > , > > 2 a Q.:X4X6X0XOXA > > , 5 & . U L L P L L L qXqXqXqXqXqXqXqXqXqXqXqXqXqX",
"qXqXqXqXqXqXqXqXqXqX~ ~ ~ ~ ~ ~ ~ ~ ~ ~ ' W = > , 2 2 > > A OX2X6X4X:XQ.a > > > >   . K L L L L K P qXqXqXqXqXqXqXqXqXqXqXqXqXqX",
"qXqXqXqXqXqXqXqXqXqX~ ~ ~ ~ ~ ~ ~ ~ ~ ! Q : & , , 2 2 > > S $X5X2X-X.XI.u > 2 > ,   . K L L L L L L qXqXqXqXqXqXqXqXqXqXqXqXqXqX",
"qXqXqXqXqXqXqXqXqXqX~ ~ ~ ~ ~ ~ ~ ' ' Q ; & % 7 , 2 2 > > S %X4X@X_.{.I.p > 2 , < o . K L L L L T K qXqXqXqXqXqXqXqXqXqXqXqXqXqX",
"qXqXqXqXqXqXqXqXqXqX~ ~ ~ ~ ~ ~ ~ ~ ' R * , 2 2 2 2 2 > > m OX:XP.J.'.I.p > 2 > < & . U L L L L L K qXqXqXqXqXqXqXqXqXqXqXqXqXqX",
"qXqXqXqXqXqXqXqXqXqX~ ~ ^ ~ ~ ~ ~ ' ' R * , , 5 2 > 2 > 2 a Q.}./.~.`.I.p % 2 > ,   . L L L L P P K qXqXqXqXqXqXqXqXqXqXqXqXqXqX",
"qXqXqXqXqXqXqXqXqXqX~ ~ ~ ~ ~ ~ ~ ~ ' E * , > 2 2 2 2 > 2 p I.`.~.~.{.I.p 2 > 2 ,   . K L L L L K T qXqXqXqXqXqXqXqXqXqXqXqXqXqX",
"qXqXqXqXqXqXqXqXqXqX~ ~ ~ ~ ~ ~ ~ ~ ' E * , > 2 2 2 2 > > p I.`.J.J.'.I.p % % 2 ,   X K U L L K K P qXqXqXqXqXqXqXqXqXqXqXqXqXqX",
"qXqXqXqXqXqXqXqXqXqX~ ~ ~ ~ ~ ~ ~ ' ' E v < 6 5 2 2 2 > > p I.`.J.^.`.I.p 2 7 6 6 4 . K L L L T P K qXqXqXqXqXqXqXqXqXqXqXqXqXqX",
"qXqXqXqXqXqXqXqXqXqX~ ~ ~ ~ ~ ~ ~ ~ ` #.Z d r t % % % % % u I.`.~.^.{.I.p 7 t s i x / U K P L L K L qXqXqXqXqXqXqXqXqXqXqXqXqXqX",
"qXqXqXqXqXqXqXqXqXqX~ ~ ~ ~ ~ ~ ~ ~ ` $.Z k.k.r t 6 w & & c T.].~.^.`.I.a 9 r f f B / U L L L L L L qXqXqXqXqXqXqXqXqXqXqXqXqXqX",
"qXqXqXqXqXqXqXqXqXqX~ ~ ~ ~ ~ ~ ~ ~ ~ $.C k.d r r r d Z + $ E.'.~.J.`.U.l s s f f x . T K L P L K K qXqXqXqXqXqXqXqXqXqXqXqXqXqX",
"qXqXqXqXqXqXqXqXqXqX~ ~ ~ ~ ~ ~ ~ ~ ` _ Z V y k.k.d k.x / [ R.[.~.J.`.U.b.d d h f x / K L L L L P T qXqXqXqXqXqXqXqXqXqXqXqXqXqX",
"qXqXqXqXqXqXqXqXqXqX~ ~ ~ ~ ~ ~ ~ ~ ~ ^ _ : B d d d k.B / [ R.'.~.J.`.U.v.g d d f x / K L L L L K L qXqXqXqXqXqXqXqXqXqXqXqXqXqX",
"qXqXqXqXqXqXqXqXqXqX~ ~ ~ ~ ~ ~ ~ ~ ~ ' ` #.V d k.r B ; Y [ R.].~.J.`.P.D x h g f x / K L L L L L P qXqXqXqXqXqXqXqXqXqXqXqXqXqX",
"qXqXqXqXqXqXqXqXqXqX~ ~ ~ ~ ~ ~ ~ ~ ~ ' ' #.V k.d 8 O / L [ R.[.~.~.'.E.n O B f f x . T K L L L L L qXqXqXqXqXqXqXqXqXqXqXqXqXqX",
"qXqXqXqXqXqXqXqXqXqX~ ^ ~ ~ ~ ~ ~ ~ ~ ~ ` $.Z d k.Z . L J [ R.[.~.~.'.:.[ Y x f f x ( U L L L L L L qXqXqXqXqXqXqXqXqXqXqXqXqXqX",
"qXqXqXqXqXqXqXqXqXqX~ ~ ~ ~ ~ ~ ~ ~ ~ ~ ' $.V k.f x / J J { :.[.~.~.].:.[ Y x f f x + K K L T L L L qXqXqXqXqXqXqXqXqXqXqXqXqXqX",
"qXqXqXqXqXqXqXqXqXqX~ ~ ~ ~ ~ ~ ~ ~ ~ ' ' #.Z k.f x / J J } :.].J.~.'.:.[ / x f f x Y K K L L L L L qXqXqXqXqXqXqXqXqXqXqXqXqXqX",
"qXqXqXqXqXqXqXqX~ ~ ~ ~ ~ ~ ~ ~ ~ ~ ~ ~ ` #.C k.f x / J J { :.].A.~.].:.[ / x f f x Y J L L L L L T P L qXqXqXqXqXqXqXqXqXqXqXqX",
"qXqXqXqXqXqXqXqX~ ' ~ ~ ~ ' ~ ~ ~ ' ' ^ &.%.G l.k.x / I J { :.].~.~.].:.[ . x k.k.A n ( T K K L K U L K qXqXqXqXqXqXqXqXqXqXqXqX",
"qXqXqXqXqXqX~ ~ ~ ~ ~ ~ ' ' ' ' ~ ' ` &.H S.M.v.k.x . U J { :.]././.].R.[ X x k.v.M.G.M ( J J K K L K L P K qXqXqXqXqXqXqXqXqXqX",
"qXqXqXqXqXqX~ ! E ) ) ) R R ) ) R R W : G v.v.c.g 8 O . X $ ;.K.n.n.K.;.$ + 8 g c.v.v.G O X . . . . . Y T L qXqXqXqXqXqXqXqXqXqX",
"qXqXqXqXqXqXqXqX= = * * * * * * * * * v 9 t e 0 9 7 &     4 q u 0 e u q 4 & 3 6 9 e e 0 4     &     & o qXqXqXqXqXqXqXqXqXqXqXqX",
"qXqXqXqXqXqXqXqX> 2 , , , , , , , , , 2 % % > > 2 > , > , > > > > > > > > , , 2 > > > > > > , , , , < < qXqXqXqXqXqXqXqXqXqXqXqX"
};
