/* XPM */
static char *result[] = {
/* columns rows colors chars-per-pixel */
"64 64 215 2 ",
"   c #3E3A3E",
".  c #7D241B",
"X  c #7E2117",
"o  c #4D3536",
"O  c #6B3A35",
"+  c #6F2C33",
"@  c #3A423F",
"#  c #5D4E3D",
"$  c #744637",
"%  c #1B3F4D",
"&  c #383C47",
"*  c #453848",
"=  c #473747",
"-  c #493F50",
";  c #642E42",
":  c #7C3147",
">  c #1E424E",
",  c #1C4550",
"<  c #1B4A54",
"1  c #1E575E",
"2  c #20434E",
"3  c #2C484B",
"4  c #3A4348",
"5  c #224955",
"6  c #224D5A",
"7  c #264853",
"8  c #3E4D58",
"9  c #24515D",
"0  c #2C585C",
"q  c #35585A",
"w  c #265661",
"e  c #265A62",
"r  c #2A5E6D",
"t  c #295A64",
"y  c #385B6A",
"u  c #2E6465",
"i  c #2C606F",
"p  c #326764",
"a  c #376968",
"s  c #2D6474",
"d  c #2B6679",
"f  c #2C6B7B",
"g  c #2A6876",
"h  c #336877",
"j  c #2F737E",
"k  c #32727E",
"l  c #367977",
"z  c #495649",
"x  c #49545C",
"c  c #485859",
"v  c #47474F",
"b  c #615848",
"n  c #6E474F",
"m  c #46685B",
"M  c #696659",
"N  c #71734D",
"B  c #465867",
"V  c #525367",
"C  c #505569",
"Z  c #4F4D60",
"A  c #496766",
"S  c #546964",
"D  c #566F6B",
"F  c #5B7767",
"G  c #597C7A",
"H  c #497074",
"J  c #727268",
"K  c #9D1605",
"L  c #9E1807",
"P  c #9C1A09",
"I  c #961A0C",
"U  c #A01605",
"Y  c #84241A",
"T  c #972212",
"R  c #961F39",
"E  c #991E38",
"W  c #981D37",
"Q  c #A21B36",
"!  c #B61533",
"~  c #BD1332",
"^  c #B91A37",
"/  c #822B23",
"(  c #88382A",
")  c #96203A",
"_  c #A5223F",
"`  c #C30F2F",
"'  c #C11131",
"]  c #B1581E",
"[  c #95452D",
"{  c #8E4D2B",
"}  c #B4482D",
"|  c #B24930",
" . c #AD4D29",
".. c #9C733C",
"X. c #9E6332",
"o. c #B9662D",
"O. c #A86332",
"+. c #B96C33",
"@. c #BD763D",
"#. c #C17237",
"$. c #9C2642",
"%. c #992944",
"&. c #803850",
"*. c #A92C45",
"=. c #985A4B",
"-. c #3F8274",
";. c #558679",
":. c #648C72",
">. c #78AA7B",
",. c #9C8037",
"<. c #C89D37",
"1. c #CF8937",
"2. c #E49D2D",
"3. c #D2A53B",
"4. c #F2AC29",
"5. c #F3AD27",
"6. c #EEAA3B",
"7. c #F1A936",
"8. c #F9B23D",
"9. c #AE884C",
"0. c #868968",
"q. c #BA8965",
"w. c #8DA77D",
"e. c #A7A85A",
"r. c #CE925B",
"t. c #CC9050",
"y. c #E9995C",
"u. c #D0AE44",
"i. c #F3A84F",
"p. c #DA9671",
"a. c #D5A76A",
"s. c #C7A576",
"d. c #D6B378",
"f. c #E6AD78",
"g. c #EAB879",
"h. c #F2B46F",
"j. c #FFC275",
"k. c #2F7582",
"l. c #327581",
"z. c #347E84",
"x. c #537E81",
"c. c #34848B",
"v. c #358B8C",
"b. c #3A8385",
"n. c #3A928E",
"m. c #369293",
"M. c #399495",
"N. c #3B9E9C",
"B. c #3A9D9A",
"V. c #358B91",
"C. c #3CA19D",
"Z. c #3BA3A1",
"A. c #3BA9A3",
"S. c #578887",
"D. c #479581",
"F. c #439695",
"G. c #4B8D84",
"H. c #689787",
"J. c #45AB9F",
"K. c #47A599",
"L. c #56AB97",
"P. c #55B092",
"I. c #5AB99A",
"U. c #58B697",
"Y. c #5CA78A",
"T. c #77B384",
"R. c #70AE8C",
"E. c #44ADA1",
"W. c #49AFA1",
"Q. c #4BB2A1",
"!. c #55BDA2",
"~. c #5DAFA2",
"^. c #64B8A2",
"/. c #5CC6A4",
"(. c #5DC9A6",
"). c #59C8A7",
"_. c #64CCA5",
"`. c #75C8A5",
"'. c #66D5A9",
"]. c #68D4A7",
"[. c #76D3A7",
"{. c #869889",
"}. c #A3A88B",
"|. c #A7B392",
" X c #8EBBA2",
".X c #91AB82",
"XX c #C9AD83",
"oX c #D8AE80",
"OX c #CCB78B",
"+X c #D9B788",
"@X c #C3B891",
"#X c #C7BB93",
"$X c #E2AE80",
"%X c #E7BE87",
"&X c #82C38E",
"*X c #ABC39E",
"=X c #87D5A6",
"-X c #A8D7A8",
";X c #B1CFA5",
":X c #CDC49A",
">X c #EAC68E",
",X c #FCC387",
"<X c #F2D79F",
"1X c #D9DAA7",
"2X c #D0D6A4",
"3X c #E8DEA8",
"4X c #F5DDA6",
"5X c #F9DEA7",
"6X c #F6DFA8",
"7X c #F6E1A9",
"8X c #FAE1A9",
"9X c #FBE0A7",
"0X c #E0E0A9",
"qX c #DDE0AA",
"wX c None",
/* pixels */
"wXwXwXwXwXwXwXwXwXwXwXwXwXwXwXwXwXwXwXwXwXwXwXwXwXwX4.4.wXwX4.4.wXwX4.4.wXwXwXwXwXwXwXwXwXwXwXwXwXwXwXwXwXwXwXwXwXwXwXwXwXwXwXwX",
"wXwXwXwXwXwXwXwXwXwXwXwXwXwXwXwXwXwXwXwXwXwXwXwXwXwX4.4.wXwX4.4.wXwX4.4.wXwXwXwXwXwXwXwXwXwXwXwXwXwXwXwXwXwXwXwXwXwXwXwXwXwXwXwX",
"wXwXwXwXwXwXwXwXwXwXwXwXwXwXwXwXwXwXwXwXwXwXwXwXwXwX4.4.4.4.4.4.4.4.4.4.wXwXwXwXwXwXwXwXwXwXwXwXwXwXwXwXwXwXwXwXwXwXwXwXwXwXwXwX",
"wXwXwXwXwXwXwXwXwXwXwXwXwXwXwXwXwXwXwXwXwXwXwXwXwXwX4.4.7.7.7.7.6.7.4.4.wXwXwXwXwXwXwXwXwXwXwXwXwXwXwXwXwXwXwXwXwXwXwXwXwXwXwXwX",
"wXwXwXwXwXwXwXwXwXwXwXwXwXwXwXwXwXwXwXwXwXwXwXwXwXwX5.7.i.y.y.y.y.i.4.5.wXwXwXwXwXwXwXwXwXwXwXwXwXwXwXwXwXwXwXwXwXwXwXwXwXwXwXwX",
"wXwXwXwXwXwXwXwXwXwXwXwXwXwXwXwXwXwXwXwXwXwXwXwXwXwX2.1.9.q.p.p.r.9.1.2.wXwXwXwXwXwXwXwXwXwXwXwXwXwXwXwXwXwXwXwXwXwXwXwXwXwXwXwX",
"wXwXwXwXwXwXwXwXwXwXwXwXwXwXwXwXwXwX4X4X5X4X4X4X7Xg.1.X.b J s.s.J b X.1.%X7X6X5X5X4XwXwXwXwXwXwXwXwXwXwXwXwXwXwXwXwXwXwXwXwXwXwX",
"wXwXwXwXwXwXwXwXwXwXwXwXwXwXwXwXwXwX5X5X4X4X5X7X8X%X@.{ b J oXoXJ b { @.%X7X4X5X5X5XwXwXwXwXwXwXwXwXwXwXwXwXwXwXwXwXwXwXwXwXwXwX",
"wXwXwXwXwXwXwXwXwXwXwXwXwXwXwXwX9X5X5X9X7X5X5X7X8X%X#.O.q.oX%X%XXXr. .@.%X6X4X4X4X4X4X5XwXwXwXwXwXwXwXwXwXwXwXwXwXwXwXwXwXwXwXwX",
"wXwXwXwXwXwXwXwXwXwXwXwXwXwXwXwX2X2X2X1X3X5X7X<X>Xa.+.+.f.%Xh.h.%Xf.+.+.a.>X4X3X3X2X1X2XwXwXwXwXwXwXwXwXwXwXwXwXwXwXwXwXwXwXwXwX",
"wXwXwXwXwXwXwXwXwXwXwXwX]._.].[.=X=X=X-X3X9X8X>Xr.+.] #.h.f.t.@.h.f.#.] o.r.>X3X-X=X=X=X[.].wXwXwXwXwXwXwXwXwXwXwXwXwXwXwXwXwXwX",
"wXwXwXwXwXwXwXwXwXwXwXwX/././././.).).`.*X:X4X+X..{ { O.r.r.o.o.r.r...{ O.t.OX*X`.).)./././.wXwXwXwXwXwXwXwXwXwXwXwXwXwXwXwXwXwX",
"wXwXwXwXwXwXwXwXwXwX]./.Q.J.J.J.E.E.E.F.S.{.2XOXM   @ # O.o.] ] #.X.# b s.OXH.S.F.J.E.J.J.Q./.].wXwXwXwXwXwXwXwXwXwXwXwXwXwXwXwX",
"wXwXwXwXwXwXwXwXwXwX/.!.J.B.B.B.N.N.M.c.k.x.}.}.A , e m N ........=.m H }..XG j c.M.N.N.B.J.!./.wXwXwXwXwXwXwXwXwXwXwXwXwXwXwXwX",
"wXwXwXwXwXwXwXwX]./.Q.J.K.N.N.N.N.M.z.k f h S.H 0 1 D.P.R.T.T.T.T.R.P.Y.F A s g j z.M.Z.N.K.E.W./.].wXwXwXwXwXwXwXwXwXwXwXwXwXwX",
"wXwXwXwXwXwXwXwX]./.E.N.N.N.C.N.M.c.l.s f h i w u ;.I.'.'.'.'.'.(.'.'.I.-.u r i g k.c.M.B.N.B.E.!./.wXwXwXwXwXwXwXwXwXwXwXwXwXwX",
"wXwXwXwXwXwXwXwX]._.E.N.Z.C.N.M.c.l.f h f r 6 t D.I._.].].].].].].].]._.U.;.u 9 r h l.z.M.C.N.K.J.E.wXwXwXwXwXwXwXwXwXwXwXwXwXwX",
"wXwXwXwXwXwXwXwXI.L.F.m.m.m.M.c.k h h d i r w l L.(.(./././././././././.).L.l w r s s l.v.M.M.M.M.m.wXwXwXwXwXwXwXwXwXwXwXwXwXwX",
"wXwXwXwXwXwXwXwXz.z.l.l.l.l.l.k.f h h s w e k n.J.J.W.E.J.J.J.J.J.J.A.Q.E.C.n.j w 9 i h l.l.l.l.l.l.wXwXwXwXwXwXwXwXwXwXwXwXwXwX",
"wXwXwXwXwXwXwXwXd h C C V B y s r i i w 7 e v.C.C.N.N.N.B.C.C.B.C.C.C.C.C.C.J.v.t 5 t i i r r u B x wXwXwXwXwXwXwXwXwXwXwXwXwXwX",
"wXwXwXwXwXwXwXwXwXwX%.$.$.: v < 5 6 6 5 2 e v.J.N.N.F.Z.N.N.N.B.B.B.B.N.F.C.A.v.w 2 5 6 7 6 6 4 O Y wXwXwXwXwXwXwXwXwXwXwXwXwXwX",
"wXwXwXwXwXwXwXwXwXwX~ ' ' R * , > 2 2 2 > w z.m.M.M.M.M.M.M.M.F.Y.L.R.L.F.M.M.z.w 2 % 2 2 , ,   Y K wXwXwXwXwXwXwXwXwXwXwXwXwXwX",
"wXwXwXwXwXwXwXwXwXwX' ' ' E * , > 2 2 2 2 9 s l.l.l.l.l.l.k l.S.|.#XOX}.S.k l.s 6 2 2 2 2 > >   X L wXwXwXwXwXwXwXwXwXwXwXwXwXwX",
"wXwXwXwXwXwXwXwXwXwX~ ~ ' Q ; - 3 > > 2 > 6 i h h s s f h s s G a.h.,XXXS.f f r 6 2 2 2 , , ,   . L wXwXwXwXwXwXwXwXwXwXwXwXwXwX",
"wXwXwXwXwXwXwXwXwXwX~ ' ~ ! Q + & , , 2 2 9 i h f h s h f s d F t.i.j.OXY.c.k.r 6 > > 2 > , ,   . L wXwXwXwXwXwXwXwXwXwXwXwXwXwX",
"wXwXwXwXwXwXwXwXwXwX~ ~ ~ ' ' ) * , , 2 2 5 w i s s s f s d d F <.8.a.}.~.M.G.k a 0 5 > 2 2   o Y L wXwXwXwXwXwXwXwXwXwXwXwXwXwX",
"wXwXwXwXwXwXwXwXwXwX~ ~ ~ ' ' ) * , , 2 2 2 < 9 r s f h d d g F <.u.0.x.F.E.W.I.U.D.0 > > & + Y I P wXwXwXwXwXwXwXwXwXwXwXwXwXwX",
"wXwXwXwXwXwXwXwXwXwX~ ~ ~ ' ' Q ; & 7 , 2 6 0 a l G.z.b.z.G.G 0.u.u.D k.c.F.!._.(.P.-.u u z Y K L P wXwXwXwXwXwXwXwXwXwXwXwXwXwX",
"wXwXwXwXwXwXwXwXwXwX~ ~ ~ ~ ~ ! Q : & , % 0 D.U.I.I.I.I.!.R.|.f.g.s.G d k.l.K.W.Q.E.P.P.P.:.( K L P wXwXwXwXwXwXwXwXwXwXwXwXwXwX",
"wXwXwXwXwXwXwXwXwXwX~ ~ ~ ~ ~ ' ` W * , 9 l P.(./././.).).=X:X,X,XXXG d d k.V.m.C.C.).).(.H.[ K P P wXwXwXwXwXwXwXwXwXwXwXwXwXwX",
"wXwXwXwXwXwXwXwXwXwX~ ~ ~ ~ ~ ~ ` W * 1 j M.J.E.W.E.E.W.A.R.#X,X,XXXG d d f k.l.m.C.E.A.Q.S.{ I P P wXwXwXwXwXwXwXwXwXwXwXwXwXwX",
"wXwXwXwXwXwXwXwXwXwX~ ~ ~ ~ ~ ~ ' Q ; 8 l m.B.C.C.C.N.F.Y.w.d.h.j.a.0.F F D a d b.n.B.Z.Z.;.( K P P wXwXwXwXwXwXwXwXwXwXwXwXwXwX",
"wXwXwXwXwXwXwXwXwXwX~ ~ ~ ~ ~ ~ ~ ! Q : 8 g V.C.C.B.C.Y.e.3.6.8.8.6.3.3.3.,.m 1 9 g n.C.Z.;.( P K P wXwXwXwXwXwXwXwXwXwXwXwXwXwX",
"wXwXwXwXwXwXwXwXwXwX~ ~ ~ ~ ~ ~ ~ ` ` Q + 8 l v.v.v.v.:.e.<.3.3.u.u.u.3.<.,.z > % 0 H ;.;.S ( L P P wXwXwXwXwXwXwXwXwXwXwXwXwXwX",
"wXwXwXwXwXwXwXwXwXwX~ ~ ~ ~ ~ ~ ~ ~ ' ! E : c e 1 1 1 0 z N >.&XY.T.T.>.N z 3 > , 4 O ( ( / T P P P wXwXwXwXwXwXwXwXwXwXwXwXwXwX",
"wXwXwXwXwXwXwXwXwXwX~ ~ ~ ~ ~ ~ ~ ~ ~ ~ ~ W * > > > > > , u P.).J.C.'.P.u > > , ,   . L K P P P P P wXwXwXwXwXwXwXwXwXwXwXwXwXwX",
"wXwXwXwXwXwXwXwXwXwX~ ~ ~ ~ ~ ~ ~ ~ ~ ~ ' E = > , 2 2 > % p P.).E.J./.P.u , > , ,   X L L P P T P P wXwXwXwXwXwXwXwXwXwXwXwXwXwX",
"wXwXwXwXwXwXwXwXwXwX~ ~ ~ ~ ~ ~ ~ ~ ~ ~ ' ) = , , > 2 > % p P._.J.J.(.P.u , > > , & . L P P P P P P wXwXwXwXwXwXwXwXwXwXwXwXwXwX",
"wXwXwXwXwXwXwXwXwXwX~ ~ ~ ~ ~ ~ ~ ~ ~ ' ' ) * , , 2 2 > 2 p P./.E.J./.P.p > > , , o . L L P P P P P wXwXwXwXwXwXwXwXwXwXwXwXwXwX",
"wXwXwXwXwXwXwXwXwXwX~ ~ ~ ~ ~ ~ ~ ~ ~ ~ ' E = , , 2 2 2 % p P./.J.J.).P.p > > , , & . L P P P P P I wXwXwXwXwXwXwXwXwXwXwXwXwXwX",
"wXwXwXwXwXwXwXwXwXwX~ ~ ~ ~ ~ ~ ~ ~ ~ ~ ` W = % 2 2 2 2 > p P._.E.J./.P.p 2 2 > >   . P P P P P P P wXwXwXwXwXwXwXwXwXwXwXwXwXwX",
"wXwXwXwXwXwXwXwXwXwX~ ~ ~ ~ ~ ~ ~ ~ ~ ~ Q : & , , 2 2 , > p P./.J.Q.`.R.a > > > ,   . U P P P P P P wXwXwXwXwXwXwXwXwXwXwXwXwXwX",
"wXwXwXwXwXwXwXwXwXwX~ ~ ~ ~ ~ ~ ~ ' ' E ; & % 7 , 2 2 2 > p P./.J.^.;X|.A > > 2 < o . P P P P P P P wXwXwXwXwXwXwXwXwXwXwXwXwXwX",
"wXwXwXwXwXwXwXwXwXwX~ ~ ~ ~ ^ ~ ~ ~ ' W * , 2 2 2 2 2 , % p P._.^. X1X#XS > > , < & . U P P P P P P wXwXwXwXwXwXwXwXwXwXwXwXwXwX",
"wXwXwXwXwXwXwXwXwXwX~ ~ ~ ~ ~ ~ ~ ~ ' W * , , 2 2 2 2 2 , u P.[.;X1X4X@XS > > , ,   . L P P P P P P wXwXwXwXwXwXwXwXwXwXwXwXwXwX",
"wXwXwXwXwXwXwXwXwXwX~ ~ ~ ~ ~ ~ ~ ' ' ) * , , 2 2 2 2 , > p R.-X3X5X9X@XS > > 2 >   . P P P T P P I wXwXwXwXwXwXwXwXwXwXwXwXwXwX",
"wXwXwXwXwXwXwXwXwXwX^ ~ ~ ~ ~ ~ ~ ' ' W * , , 2 , 2 > > > A |.3X4X5X9X@XS % > , ,   X L P P P P P P wXwXwXwXwXwXwXwXwXwXwXwXwXwX",
"wXwXwXwXwXwXwXwXwXwX~ ~ ~ ~ ~ ~ ~ ~ ' ) - 6 6 5 2 > > > > S #X8X4X5X9X@XS > , < 9 4 . L U P P P P P wXwXwXwXwXwXwXwXwXwXwXwXwXwX",
"wXwXwXwXwXwXwXwXwXwX~ ~ ~ ~ ~ ~ ~ ~ ' $.Z r r w 5 % % % , A #X8X5X6X8X@XA < w i i c / P P P P P P P wXwXwXwXwXwXwXwXwXwXwXwXwXwX",
"wXwXwXwXwXwXwXwXwXwX~ ~ ~ ~ ~ ~ ~ ' ' %.V k.k.r 9 6 9 & & M OX6X6X6X8X#XD 9 i h f B / U P P I P P T wXwXwXwXwXwXwXwXwXwXwXwXwXwX",
"wXwXwXwXwXwXwXwXwXwX~ ~ ~ ~ ~ ~ ~ ~ ' %.C k.k.s r r k.& + [ +X8X8X6X8X#Xx.i s f f c / P P P P P P P wXwXwXwXwXwXwXwXwXwXwXwXwXwX",
"wXwXwXwXwXwXwXwXwXwX~ ~ ~ ~ ~ ~ ~ ~ ' _ ; B l.d k.k.k.B . } f.7X8X6X5X#XS.d f f f x / P P P P P P P wXwXwXwXwXwXwXwXwXwXwXwXwXwX",
"wXwXwXwXwXwXwXwXwXwX! ~ ~ ~ ~ ~ ~ ~ ~ ! _ : B d i k.k.B . } $X4X6X5X9X:XS.f f f f x / L P P P P P P wXwXwXwXwXwXwXwXwXwXwXwXwXwX",
"wXwXwXwXwXwXwXwXwXwX~ ~ ~ ~ ~ ~ ~ ~ ~ ~ ' $.V k.k.y y ; Y } $X8X8X6X6X#XJ 8 y f f x / L P P P P P P wXwXwXwXwXwXwXwXwXwXwXwXwXwX",
"wXwXwXwXwXwXwXwXwXwX~ ~ ~ ~ ~ ~ ~ ~ ~ ' ' $.C d d y + Y I | oX6X8X8X8X+X=.O B f f x / L P P P P P P wXwXwXwXwXwXwXwXwXwXwXwXwXwX",
"wXwXwXwXwXwXwXwXwXwX~ ~ ~ ~ ~ ~ ~ ~ ~ ' ' %.Z k.k.- / K K | $X6X8X3X3Xs.| . c f f B / L P P I P P I wXwXwXwXwXwXwXwXwXwXwXwXwXwX",
"wXwXwXwXwXwXwXwXwXwX~ ~ ~ ~ ~ ~ ~ ~ ~ ~ ' %.V d g x / K L | oX8X8X1X-X.X( / x f f x / L L P P P P P wXwXwXwXwXwXwXwXwXwXwXwXwXwX",
"wXwXwXwXwXwXwXwXwXwX~ ~ ~ ~ ~ ~ ~ ~ ~ ~ ' $.V d f B / P K | $X7X1X;X`.>.[ / x f f x / L P P P P P P wXwXwXwXwXwXwXwXwXwXwXwXwXwX",
"wXwXwXwXwXwXwXwX~ ~ ~ ~ ~ ~ ~ ~ ~ ~ ~ ' ` *.C k.f x . L K | $X1X X^.(.T.[ / x f f c / L L P P P P P P P wXwXwXwXwXwXwXwXwXwXwXwX",
"wXwXwXwXwXwXwXwX~ ' ~ ~ ~ ' ~ ~ ~ ' ' ^ *.&.H k.k.x / K K  .XX;X~.E.).R.[ . Z k.k.A n / T L P P P P P L wXwXwXwXwXwXwXwXwXwXwXwX",
"wXwXwXwXwXwX~ ~ ~ ~ ~ ~ ' ' ' ' ' ' ` *.J G.M.v.k.x / U K [ w.[.Q.E.).>.[ Y c k.v.M.G.M ( K L P P P P P P P wXwXwXwXwXwXwXwXwXwX",
"wXwXwXwXwXwX~ ! E R R ) ) R R ) R R E : H v.v.c.g 8 O X X $ :.K.n.n.K.:.O + 8 g c.v.v.H O X . . . . . Y T P wXwXwXwXwXwXwXwXwXwX",
"wXwXwXwXwXwXwXwX= = * * * * * * * * * - w t w 0 9 7 &     4 0 u u 0 u q 4 & 7 9 0 e w 0 4         & & o wXwXwXwXwXwXwXwXwXwXwXwX",
"wXwXwXwXwXwXwXwX> 2 , , , , , , , , , % % % > 2 > > > > > > > > > > > > > > 2 2 > > > > > , , , > , , < wXwXwXwXwXwXwXwXwXwXwXwX"
};
