/* XPM */
static char *result[] = {
/* columns rows colors chars-per-pixel */
"64 64 220 2 ",
"   c #3E3A3E",
".  c #7D241B",
"X  c #7B2017",
"o  c #4D3536",
"O  c #6C3A35",
"+  c #732B2F",
"@  c #3A423F",
"#  c #5D4E3D",
"$  c #7A4D3A",
"%  c #1A3F4D",
"&  c #393C47",
"*  c #453848",
"=  c #473747",
"-  c #493F50",
";  c #642E42",
":  c #7C3147",
">  c #1E424E",
",  c #1C4550",
"<  c #1B4A54",
"1  c #1E575E",
"2  c #20434E",
"3  c #2C484B",
"4  c #3A4248",
"5  c #224955",
"6  c #224D5A",
"7  c #254853",
"8  c #3E4D58",
"9  c #24515D",
"0  c #2C585C",
"q  c #385559",
"w  c #265660",
"e  c #265A62",
"r  c #2A5E6D",
"t  c #295965",
"y  c #355C6D",
"u  c #2E6465",
"i  c #2C626D",
"p  c #326764",
"a  c #356B6B",
"s  c #2D6474",
"d  c #2C6679",
"f  c #2C6B7B",
"g  c #2A6876",
"h  c #336877",
"j  c #2F737E",
"k  c #32727E",
"l  c #377977",
"z  c #424347",
"x  c #495649",
"c  c #424A56",
"v  c #49545C",
"b  c #4C5E57",
"n  c #5E4446",
"m  c #615848",
"M  c #734B4B",
"N  c #46685B",
"B  c #68675A",
"V  c #71734D",
"C  c #465867",
"Z  c #525367",
"A  c #505569",
"S  c #4F4D60",
"D  c #536964",
"F  c #597768",
"G  c #4A7275",
"H  c #587C7A",
"J  c #48686C",
"K  c #727267",
"L  c #9E1605",
"P  c #9E1807",
"I  c #9C1A09",
"U  c #971A0C",
"Y  c #A01605",
"T  c #A01806",
"R  c #85241A",
"E  c #972212",
"W  c #961F39",
"Q  c #991E38",
"!  c #981D37",
"~  c #A21B36",
"^  c #B61533",
"/  c #BD1332",
"(  c #B91A37",
")  c #822C23",
"_  c #812720",
"`  c #88382A",
"'  c #96203A",
"]  c #A5223F",
"[  c #C30F2F",
"{  c #C11131",
"}  c #B1581E",
"|  c #884927",
" . c #95452D",
".. c #8E4631",
"X. c #8D4838",
"o. c #905329",
"O. c #B6472D",
"+. c #AE4E29",
"@. c #9E6438",
"#. c #9C733C",
"$. c #9D622A",
"%. c #B9662D",
"&. c #A86332",
"*. c #B96C33",
"=. c #BD763D",
"-. c #C17237",
";. c #9C2642",
":. c #992944",
">. c #803850",
",. c #A92C45",
"<. c #945D50",
"1. c #3F8274",
"2. c #54847A",
"3. c #78A87D",
"4. c #7FB177",
"5. c #678C70",
"6. c #9C8037",
"7. c #C89D37",
"8. c #CF8937",
"9. c #E49D2D",
"0. c #D2A53B",
"q. c #F3AD27",
"w. c #F2AC29",
"e. c #EEAA3B",
"r. c #F1A936",
"t. c #F9B23D",
"y. c #AE884C",
"u. c #868968",
"i. c #BA8965",
"p. c #B19374",
"a. c #8FA87D",
"s. c #A7A85A",
"d. c #CE925B",
"f. c #CC9050",
"g. c #E9995C",
"h. c #D0AE44",
"j. c #F3A84F",
"k. c #DA9671",
"l. c #D5A76A",
"z. c #C7A577",
"x. c #D6B378",
"c. c #E8AE78",
"v. c #EAB879",
"b. c #F2B46F",
"n. c #FFC275",
"m. c #2F7582",
"M. c #327581",
"N. c #347E84",
"B. c #537E81",
"V. c #34848B",
"C. c #358B8C",
"Z. c #3A8385",
"A. c #39928F",
"S. c #369293",
"D. c #399495",
"F. c #3B9E9C",
"G. c #3A9D9A",
"H. c #358B91",
"J. c #3CA19D",
"K. c #3BA3A1",
"L. c #3BA8A2",
"P. c #548887",
"I. c #479581",
"U. c #439695",
"Y. c #4B8D84",
"T. c #689787",
"R. c #5DA689",
"E. c #46AB9F",
"W. c #45A499",
"Q. c #55AA97",
"!. c #55B092",
"~. c #5AB99A",
"^. c #59B697",
"/. c #5BB18F",
"(. c #6EA983",
"). c #73A781",
"_. c #77B384",
"`. c #6EAF93",
"'. c #44ADA0",
"]. c #49AEA0",
"[. c #4BB2A1",
"{. c #55BDA2",
"}. c #5DAEA0",
"|. c #63B8A2",
" X c #5CC6A4",
".X c #5DC8A6",
"XX c #58C8A6",
"oX c #64CCA5",
"OX c #66D5A9",
"+X c #68D4A7",
"@X c #74CDA6",
"#X c #869889",
"$X c #A3A88B",
"%X c #A4AD94",
"&X c #8DB292",
"*X c #C9AD83",
"=X c #CDB88B",
"-X c #C1BA93",
";X c #D4B686",
":X c #E7BE87",
">X c #E5AF80",
",X c #82C38E",
"<X c #ABC39E",
"1X c #87D5A6",
"2X c #A8D8A8",
"3X c #AECFA7",
"4X c #D5C798",
"5X c #EAC68E",
"6X c #FCC387",
"7X c #F2D79F",
"8X c #D8DAA6",
"9X c #D0D6A4",
"0X c #F5DDA6",
"qX c #F9DDA6",
"wX c #F6DFA9",
"eX c #EFDEA8",
"rX c #E1E1AA",
"tX c #FBE3AB",
"yX c #F6E1AA",
"uX c None",
/* pixels */
"uXuXuXuXuXuXuXuXuXuXuXuXuXuXuXuXuXuXuXuXuXuXuXuXuXuXw.w.uXuXw.w.uXuXw.w.uXuXuXuXuXuXuXuXuXuXuXuXuXuXuXuXuXuXuXuXuXuXuXuXuXuXuXuX",
"uXuXuXuXuXuXuXuXuXuXuXuXuXuXuXuXuXuXuXuXuXuXuXuXuXuXw.w.uXuXw.w.uXuXw.w.uXuXuXuXuXuXuXuXuXuXuXuXuXuXuXuXuXuXuXuXuXuXuXuXuXuXuXuX",
"uXuXuXuXuXuXuXuXuXuXuXuXuXuXuXuXuXuXuXuXuXuXuXuXuXuXw.w.w.w.w.w.w.w.w.w.uXuXuXuXuXuXuXuXuXuXuXuXuXuXuXuXuXuXuXuXuXuXuXuXuXuXuXuX",
"uXuXuXuXuXuXuXuXuXuXuXuXuXuXuXuXuXuXuXuXuXuXuXuXuXuXw.w.r.r.r.r.r.r.w.w.uXuXuXuXuXuXuXuXuXuXuXuXuXuXuXuXuXuXuXuXuXuXuXuXuXuXuXuX",
"uXuXuXuXuXuXuXuXuXuXuXuXuXuXuXuXuXuXuXuXuXuXuXuXuXuXw.r.j.g.g.g.g.j.r.w.uXuXuXuXuXuXuXuXuXuXuXuXuXuXuXuXuXuXuXuXuXuXuXuXuXuXuXuX",
"uXuXuXuXuXuXuXuXuXuXuXuXuXuXuXuXuXuXuXuXuXuXuXuXuXuX9.8.i.i.k.k.i.y.8.9.uXuXuXuXuXuXuXuXuXuXuXuXuXuXuXuXuXuXuXuXuXuXuXuXuXuXuXuX",
"uXuXuXuXuXuXuXuXuXuXuXuXuXuXuXuXuXuX0X0X0X0X0X0XtXv.8.$.m K z.z.K M $.8.:XyXwX0X0X0XuXuXuXuXuXuXuXuXuXuXuXuXuXuXuXuXuXuXuXuXuXuX",
"uXuXuXuXuXuXuXuXuXuXuXuXuXuXuXuXuXuXwXwX0X0X0XwXtX:X=.o.m K x.z.K m o.=.:XtXwX0X0XqXuXuXuXuXuXuXuXuXuXuXuXuXuXuXuXuXuXuXuXuXuXuX",
"uXuXuXuXuXuXuXuXuXuXuXuXuXuXuXuXqXqXqXwXqX0XeXwXtX:X-.&.i.>X:X:X*Xi.%.=.:XyXyX0X0XqXqXqXuXuXuXuXuXuXuXuXuXuXuXuXuXuXuXuXuXuXuXuX",
"uXuXuXuXuXuXuXuXuXuXuXuXuXuXuXuX9X8X9X8X0XwX0X7X5Xl.*.*.c.:Xb.c.:Xb.*.%.k.:X0XeX8X8X8X9XuXuXuXuXuXuXuXuXuXuXuXuXuXuXuXuXuXuXuXuX",
"uXuXuXuXuXuXuXuXuXuXuXuX+X+X+X@X1X1X1X2X8XtXtX5Xd.%.} =.c.b.f.=.v.c.-.} *.d.5XeX2X1X1X1X@X+XuXuXuXuXuXuXuXuXuXuXuXuXuXuXuXuXuXuX",
"uXuXuXuXuXuXuXuXuXuXuXuX X X XXXXXXXXX@X<X4XeX:X#.| | &.d.d.%.%.d.d.@.o.&.f.*X<XoXXXXXXX X XuXuXuXuXuXuXuXuXuXuXuXuXuXuXuXuXuXuX",
"uXuXuXuXuXuXuXuXuXuX+X X[.E.E.E.'.'.'.U.P.#X4X=XK @ 4 # &.%.} } -.$.# m z.z.T.P.U.[.'.E.E.[. X+XuXuXuXuXuXuXuXuXuXuXuXuXuXuXuXuX",
"uXuXuXuXuXuXuXuXuXuX X{.W.G.F.G.F.F.D.N.m.B.%X$Xb < 0 N V #.#.#.#.<.N 2.$X&XH m.V.D.F.F.G.E.{. XuXuXuXuXuXuXuXuXuXuXuXuXuXuXuXuX",
"uXuXuXuXuXuXuXuX+X X[.E.W.F.F.F.J.D.N.M.f k P.G 0 0 I.!.`.4._._.3.(.^.R.F a a f j N.D.J.F.W.'.]. X+XuXuXuXuXuXuXuXuXuXuXuXuXuXuX",
"uXuXuXuXuXuXuXuX+X X'.F.F.J.J.F.D.V.M.s h s r t u 1.~.OXOXOXOXOXOXOXOX~.1.u t r s k C.D.G.F.G.'.{..XuXuXuXuXuXuXuXuXuXuXuXuXuXuX",
"uXuXuXuXuXuXuXuX+XoX].F.F.U.J.D.N.M.d h d r 6 r I.~.oX+X+X+X+X+X+X+X+XoX~.I.p 6 y d M.N.G.J.J.J.E.].uXuXuXuXuXuXuXuXuXuXuXuXuXuX",
"uXuXuXuXuXuXuXuX~.Q.G.S.S.G.S.H.M.h h s s r 0 l Q..X.X X XXX X X X X XXX.XQ.a e r r s M.C.D.D.D.S.S.uXuXuXuXuXuXuXuXuXuXuXuXuXuX",
"uXuXuXuXuXuXuXuXN.N.M.m.m.M.M.M.d d h s w e j A.E.'.E.].E.E.E.E.E.E.E.E.'.E.S.k t w r k k k k k M.M.uXuXuXuXuXuXuXuXuXuXuXuXuXuX",
"uXuXuXuXuXuXuXuXd h A A Z C y r r r s t 5 0 C.J.W.F.F.F.G.F.F.F.F.F.F.F.F.J.'.C.w 5 t i r i i y C v uXuXuXuXuXuXuXuXuXuXuXuXuXuX",
"uXuXuXuXuXuXuXuXuXuX:.;.;.: 8 < 5 6 6 5 , e C.'.F.J.F.F.F.F.W.F.G.G.G.G.F.F.K.C.e 2 5 6 5 6 6 4 O R uXuXuXuXuXuXuXuXuXuXuXuXuXuX",
"uXuXuXuXuXuXuXuXuXuX/ { [ ! = , > 2 2 2 2 9 N.S.S.S.D.D.D.S.S.U.Q.`.}.Q.U.S.S.N.w > > 2 2 > ,   . L uXuXuXuXuXuXuXuXuXuXuXuXuXuX",
"uXuXuXuXuXuXuXuXuXuX{ { [ Q * < , 2 2 2 2 6 s M.M.M.M.M.M.M.k P.%X:X;X$XH m.k f 6 2 2 2 > , >   . T uXuXuXuXuXuXuXuXuXuXuXuXuXuX",
"uXuXuXuXuXuXuXuXuXuX/ / { ~ ; - 2 > , 2 2 6 i h h h s d h s s H z.b.:X*XT.f f r 5 > 2 2 , , ,   . T uXuXuXuXuXuXuXuXuXuXuXuXuXuX",
"uXuXuXuXuXuXuXuXuXuX/ / / ^ ~ + * , , > 2 9 u f f s h h h d d F f.j.n.=XT.V.M.t 6 2 > 2 2 , >   . T uXuXuXuXuXuXuXuXuXuXuXuXuXuX",
"uXuXuXuXuXuXuXuXuXuX/ / / { { Q * , , 2 2 5 t i s s f d s d d F 7.t.l.$X}.G.U.k a 0 5 > > 3   o R P uXuXuXuXuXuXuXuXuXuXuXuXuXuX",
"uXuXuXuXuXuXuXuXuXuX/ / / { { ' * , , 2 2 2 < 1 r d s s s d f F 7.0.5.P.U.'.Q.~.^.I.0 , % & + R U P uXuXuXuXuXuXuXuXuXuXuXuXuXuX",
"uXuXuXuXuXuXuXuXuXuX/ / / / { ~ ; & 2 2 2 5 0 a l N.Y.Z.N.Y.H u.h.h.F k C.U.{..X.X^.l u u x . P I I uXuXuXuXuXuXuXuXuXuXuXuXuXuX",
"uXuXuXuXuXuXuXuXuXuX/ / / / / ^ ~ : & , % 0 2.{.~.~.~.{.~.`.%Xx.v.z.H d m.V.U.'.'.E.!.!.!.5.` P I I uXuXuXuXuXuXuXuXuXuXuXuXuXuX",
"uXuXuXuXuXuXuXuXuXuX/ / / / / { { ! * < 9 l !..X.XoX.X.XXX1X4X6X6X*XH d d f V.G.G.'.{.oXXX(...I I I uXuXuXuXuXuXuXuXuXuXuXuXuXuX",
"uXuXuXuXuXuXuXuXuXuX/ / / / / { { ! = 1 j D.E.'.].].'.'.K.`.=X6X6X*XH d d d M.N.D.K.'.'.'.2.` I I I uXuXuXuXuXuXuXuXuXuXuXuXuXuX",
"uXuXuXuXuXuXuXuXuXuX/ / / / / / { ~ ; c l S.G.J.F.F.F.U.R.a.x.b.n.l.u.F F F a s N.S.F.K.L.2.` L I I uXuXuXuXuXuXuXuXuXuXuXuXuXuX",
"uXuXuXuXuXuXuXuXuXuX/ / / / / / / ^ ~ : q g A.J.G.G.G.3.s.0.t.j.t.e.0.7.0.6.N 9 9 g A.L.L.2.` I I I uXuXuXuXuXuXuXuXuXuXuXuXuXuX",
"uXuXuXuXuXuXuXuXuXuX/ / / / / / / [ [ ~ O 8 l C.C.C.C.5.s.7.0.h.h.h.h.0.7.6.x , % 0 J 2.2.D ` P I I uXuXuXuXuXuXuXuXuXuXuXuXuXuX",
"uXuXuXuXuXuXuXuXuXuX/ / / / / / / / [ ^ ! : c e 1 1 0 0 x 5.4._.(.(.,X4.5.# 3 , > 4 O ` ` ) E P I I uXuXuXuXuXuXuXuXuXuXuXuXuXuX",
"uXuXuXuXuXuXuXuXuXuX/ / / ^ / / / / / [ [ ! = , , < % % % 0 !.XXL.L.XX!.1 > > , ,   . Y L I P I I I uXuXuXuXuXuXuXuXuXuXuXuXuXuX",
"uXuXuXuXuXuXuXuXuXuX/ / / / / / / / / / { ' = , , > > > % p !. X'.E.XX!.u > > > ,   . P P P I I I I uXuXuXuXuXuXuXuXuXuXuXuXuXuX",
"uXuXuXuXuXuXuXuXuXuX/ / / / / / / / / / [ ' = 2 , , > > 2 p !. XE.E. X!.p > > , < & . P P U I E I U uXuXuXuXuXuXuXuXuXuXuXuXuXuX",
"uXuXuXuXuXuXuXuXuXuX/ / / / / / / / / [ [ ' z , > 2 > > % p !..XE.E. X!.p > > , , o . P P I I I I I uXuXuXuXuXuXuXuXuXuXuXuXuXuX",
"uXuXuXuXuXuXuXuXuXuX/ / / / / / / / / / [ ' = , , > > > 2 p !..XE.E. X!.p > > > 2 & . T U I I I I I uXuXuXuXuXuXuXuXuXuXuXuXuXuX",
"uXuXuXuXuXuXuXuXuXuX/ / / / / / / / / { { ! = % , 2 2 2 > p !. XE.E..X!.p > 2 > ,   . P I I I I I I uXuXuXuXuXuXuXuXuXuXuXuXuXuX",
"uXuXuXuXuXuXuXuXuXuX/ / / / / / / / / ^ ~ : & , , 2 2 2 > p /..X[.E. X!.p > 2 > ,   . P I I I I I I uXuXuXuXuXuXuXuXuXuXuXuXuXuX",
"uXuXuXuXuXuXuXuXuXuX/ / / / / / / / [ ~ ; & % 7 , 2 2 2 % p !. XE.E..X!.p > 2 , ,   . T I I I I I I uXuXuXuXuXuXuXuXuXuXuXuXuXuX",
"uXuXuXuXuXuXuXuXuXuX/ / / / / / / / { W * , % 7 2 2 2 > 2 p !. XE.[. X!.p > > 2 , @ . T I I I I I I uXuXuXuXuXuXuXuXuXuXuXuXuXuX",
"uXuXuXuXuXuXuXuXuXuX/ / / / / / / { { Q * , , 2 2 2 2 2 > p /..XE.E. X/.p > > , , o . P P I P I I I uXuXuXuXuXuXuXuXuXuXuXuXuXuX",
"uXuXuXuXuXuXuXuXuXuX/ / / / / / / { { ' * 5 , 2 > 2 2 , > p !..XE.E. X!.p > > , <   . P I I E I I U uXuXuXuXuXuXuXuXuXuXuXuXuXuX",
"uXuXuXuXuXuXuXuXuXuX/ / / / / / / { { ' * , > 2 2 2 2 2 % p !..XE.[. X!.p > > > >   . P I I I I I I uXuXuXuXuXuXuXuXuXuXuXuXuXuX",
"uXuXuXuXuXuXuXuXuXuX/ / ( / / / / / { ' - < 6 5 2 2 2 > > p !. XE.E. X!.p > , 6 1 & . P I I I I I I uXuXuXuXuXuXuXuXuXuXuXuXuXuX",
"uXuXuXuXuXuXuXuXuXuX/ / / / / / / / { ;.S r r t % % % % > p !. X'.'.oX!.p 7 t s i v ) P I I I E I I uXuXuXuXuXuXuXuXuXuXuXuXuXuX",
"uXuXuXuXuXuXuXuXuXuX/ / / / / / / { [ :.A m.m.r t 6 9 & & b /. X'.'. X!.a 9 r f f v ) P P I I I I E uXuXuXuXuXuXuXuXuXuXuXuXuXuX",
"uXuXuXuXuXuXuXuXuXuX/ / / / / / / / { :.A m.m.r r r m.& + $ (..X'.'. X^.l r s f f v ) I I I I I I P uXuXuXuXuXuXuXuXuXuXuXuXuXuX",
"uXuXuXuXuXuXuXuXuXuX/ / / / / / / / { ] ; J s m.m.m.m.Z ) ` )..X'.'.oX{.Z.d s f f v ) P I I I U I U uXuXuXuXuXuXuXuXuXuXuXuXuXuX",
"uXuXuXuXuXuXuXuXuXuX/ / / / / / / / / ^ ,.: C d r m.m.C . ..). X'.E.oX^.Z.f f d f v + T P I I I I I uXuXuXuXuXuXuXuXuXuXuXuXuXuX",
"uXuXuXuXuXuXuXuXuXuX/ / / / / / / / / { [ :.A f m.y C ; R ..)..X'.E. X}.F v h h f v ) T I I I I I I uXuXuXuXuXuXuXuXuXuXuXuXuXuX",
"uXuXuXuXuXuXuXuXuXuX/ / / / / / / / / { { ;.A d d y + R I ..)..X'.'. X(.M O C f f v ) I I I I I I I uXuXuXuXuXuXuXuXuXuXuXuXuXuX",
"uXuXuXuXuXuXuXuXuXuX/ ( / / / / / / / / { :.A d m.- ) L Y ..). X'.].@Xa. .. v f f b ) T I I I U I I uXuXuXuXuXuXuXuXuXuXuXuXuXuX",
"uXuXuXuXuXuXuXuXuXuX/ / / / / / / / / / { :.Z d j v R Y L ..).XXK.}.3X*XO.. C m.f v ) P P I I I I I uXuXuXuXuXuXuXuXuXuXuXuXuXuX",
"uXuXuXuXuXuXuXuXuXuX/ / / / / / / / / { { ;.Z d f v ) L L ..(.oX|.&X8X>XO.. v d f v ) P I I I I I I uXuXuXuXuXuXuXuXuXuXuXuXuXuX",
"uXuXuXuXuXuXuXuX/ / / / / / / / / / / { [ ,.A m.f v ) L L ..3.@X3X8XyX>XO.) v d f v ) T P I I I I I I I uXuXuXuXuXuXuXuXuXuXuXuX",
"uXuXuXuXuXuXuXuX/ { / / / { / / / { / ( ,.>.G m.m.v ) Y L  .&X2XrXtXtX>XO.. c m.j J M ) E P I P I I I I uXuXuXuXuXuXuXuXuXuXuXuX",
"uXuXuXuXuXuX/ / / / / / { { { { { { [ ,.K P.D.C.m.v ) L L +.*XyXtXtXyX>XO.. C m.C.D.Y.B ` L P I I I I I I I uXuXuXuXuXuXuXuXuXuX",
"uXuXuXuXuXuX/ ^ Q ' ' ' W W ' ' W Q Q : G C.C.V.g q O X X X.p.%X-X4X%Xp.X.+ 8 g V.C.C.G O . . . . . . R E I uXuXuXuXuXuXuXuXuXuX",
"uXuXuXuXuXuXuXuX= = * * * * * * * * - & w t 0 9 9 7 &     4 b D D D D b z & 7 6 9 e e 0 4         & & o uXuXuXuXuXuXuXuXuXuXuXuX",
"uXuXuXuXuXuXuXuX> 2 , , , , , , , , , 2 % % 2 > > > > > , > > % > > > > > > > 2 2 % > > > > , , > , , < uXuXuXuXuXuXuXuXuXuXuXuX"
};
